<?xml version="1.0" encoding="utf-8"?>
<!-- Generator: Adobe Illustrator 19.2.1, SVG Export Plug-In . SVG Version: 6.00 Build 0)  -->
<svg version="1.1" id="layer" xmlns="http://www.w3.org/2000/svg" xmlns:xlink="http://www.w3.org/1999/xlink" x="0px" y="0px"
	 viewBox="0 0 652 652" style="enable-background:new 0 0 652 652;" xml:space="preserve">
<style type="text/css">
	.st0{fill:#CFAE34;}
	.st1{fill:#0D2640;}
</style>
<g>
	<g>
		<path class="st0" d="M105.2,226.3c-1.4-0.1-2.8-0.1-4.2-0.1H20V342h36.8v-15.5H35.5v-84.8H101c1.4,0,2.8,0,4.2,0.1
			c42.3,2.2,76,37.3,76,80.2c0,42.8-33.7,78-76,80.2c-1.4,0.1-2.8,0.1-4.2,0.1H84.5V342h49.2v-15.5H84.5V297h49.2v-15.5H69v136.3h32
			c1.4,0,2.8,0,4.2-0.1c50.9-2.2,91.6-44.3,91.6-95.7C196.8,270.6,156.1,228.5,105.2,226.3"/>
		<path class="st1" d="M253.2,260.3h26.9c5.6,0,10.8,0.9,15.5,2.7c4.7,1.8,8.8,4.3,12.2,7.6c3.4,3.2,6,7,7.9,11.4
			c1.9,4.4,2.8,9.1,2.8,14.2v0.2c0,5.1-0.9,9.8-2.8,14.2c-1.9,4.4-4.5,8.2-7.9,11.4c-3.4,3.2-7.4,5.8-12.2,7.6
			c-4.7,1.9-9.9,2.8-15.5,2.8h-26.9V260.3z M280,321c3.8,0,7.2-0.6,10.3-1.8c3.1-1.2,5.7-2.9,7.9-5.1c2.2-2.2,3.8-4.8,5.1-7.8
			c1.2-3,1.8-6.3,1.8-9.8v-0.2c0-3.5-0.6-6.8-1.8-9.8c-1.2-3-2.9-5.6-5.1-7.8c-2.2-2.2-4.8-3.9-7.9-5.1c-3.1-1.2-6.5-1.9-10.3-1.9
			h-14.2V321H280z"/>
		<path class="st1" d="M357.2,333.7c-3.9,0-7.6-0.7-11-2.1c-3.4-1.4-6.4-3.3-8.9-5.8c-2.5-2.5-4.5-5.4-5.9-8.9
			c-1.4-3.5-2.2-7.3-2.2-11.5v-0.2c0-3.9,0.7-7.6,2-11c1.3-3.4,3.1-6.4,5.5-9c2.4-2.6,5.2-4.6,8.4-6.1c3.2-1.5,6.8-2.2,10.7-2.2
			c4.3,0,8.1,0.8,11.4,2.4c3.3,1.6,6,3.7,8.1,6.4c2.2,2.7,3.8,5.8,4.9,9.3c1.1,3.5,1.7,7.3,1.7,11.2c0,0.5,0,1.1-0.1,1.7
			c0,0.6-0.1,1.2-0.2,1.8h-40c0.7,4.5,2.5,7.9,5.3,10.3c2.8,2.4,6.3,3.6,10.4,3.6c3.1,0,5.8-0.6,8-1.7c2.3-1.1,4.5-2.7,6.7-4.8
			l7.3,6.5c-2.6,3.1-5.7,5.6-9.3,7.4C366.6,332.7,362.2,333.7,357.2,333.7 M369.6,301.4c-0.2-2-0.7-3.9-1.3-5.6
			c-0.7-1.7-1.6-3.3-2.8-4.5c-1.2-1.3-2.6-2.3-4.2-3c-1.6-0.8-3.4-1.1-5.5-1.1c-3.8,0-7,1.3-9.5,4c-2.5,2.6-4,6.1-4.6,10.4H369.6z"
			/>
		<polygon class="st1" points="396,260.3 449.5,260.3 449.5,271.8 408.5,271.8 408.5,291.6 444.9,291.6 444.9,303.1 408.5,303.1 
			408.5,332.4 396,332.4 		"/>
		<path class="st1" d="M487,333.7c-3.9,0-7.6-0.7-11-2.1c-3.4-1.4-6.4-3.3-8.9-5.8c-2.5-2.5-4.5-5.4-5.9-8.9
			c-1.4-3.5-2.2-7.3-2.2-11.5v-0.2c0-3.9,0.7-7.6,2-11c1.3-3.4,3.1-6.4,5.5-9c2.4-2.6,5.2-4.6,8.4-6.1c3.2-1.5,6.8-2.2,10.7-2.2
			c4.3,0,8.1,0.8,11.4,2.4c3.3,1.6,6,3.7,8.1,6.4c2.2,2.7,3.8,5.8,4.9,9.3c1.1,3.5,1.6,7.3,1.6,11.2c0,0.5,0,1.1,0,1.7
			c0,0.6-0.1,1.2-0.2,1.8h-40c0.7,4.5,2.5,7.9,5.3,10.3c2.8,2.4,6.3,3.6,10.4,3.6c3.1,0,5.8-0.6,8-1.7c2.3-1.1,4.5-2.7,6.7-4.8
			l7.3,6.5c-2.6,3.1-5.7,5.6-9.3,7.4C496.4,332.7,492,333.7,487,333.7 M499.4,301.4c-0.2-2-0.7-3.9-1.3-5.6
			c-0.7-1.7-1.6-3.3-2.8-4.5c-1.2-1.3-2.6-2.3-4.2-3c-1.6-0.8-3.5-1.1-5.5-1.1c-3.8,0-7,1.3-9.5,4c-2.5,2.6-4,6.1-4.6,10.4H499.4z"
			/>
		<path class="st1" d="M524.3,257.2h12.6v29.3c0.9-1.3,1.9-2.5,2.9-3.7c1.1-1.1,2.3-2.2,3.7-3.1c1.4-0.9,2.9-1.6,4.6-2.1
			c1.7-0.5,3.6-0.8,5.7-0.8c6.2,0,10.9,1.9,14.3,5.7c3.4,3.8,5,8.9,5,15.2v34.6h-12.6v-30.8c0-4.2-1-7.5-3-9.8
			c-2-2.3-4.8-3.4-8.5-3.4c-3.6,0-6.5,1.2-8.8,3.5c-2.2,2.4-3.4,5.7-3.4,9.9v30.6h-12.6V257.2z"/>
		<path class="st1" d="M588.2,278h12.6v12.3c1.7-4.1,4.2-7.4,7.3-9.9c3.2-2.5,7.1-3.6,11.9-3.4v13.2h-0.7c-2.7,0-5.3,0.4-7.5,1.3
			c-2.3,0.9-4.2,2.2-5.9,4c-1.6,1.8-2.9,4-3.8,6.7c-0.9,2.7-1.3,5.9-1.3,9.4v20.7h-12.6V278z"/>
		<polygon class="st1" points="251.2,348.7 274,348.7 274,353.5 256.6,353.5 256.6,362 272.1,362 272.1,366.9 256.6,366.9 
			256.6,379.4 251.2,379.4 		"/>
		<path class="st1" d="M306.3,379.9c-2,0-3.8-0.3-5.4-0.9c-1.6-0.6-3-1.4-4.1-2.6c-1.1-1.1-2-2.6-2.6-4.2c-0.6-1.7-0.9-3.6-0.9-5.9
			v-17.7h5.4v17.5c0,2.9,0.7,5,2.1,6.5c1.4,1.5,3.3,2.2,5.7,2.2c2.4,0,4.3-0.7,5.7-2.2c1.4-1.4,2.1-3.6,2.1-6.4v-17.7h5.4v17.4
			c0,2.3-0.3,4.3-0.9,6c-0.6,1.7-1.5,3.2-2.7,4.3c-1.1,1.2-2.5,2-4.2,2.6C310.2,379.6,308.3,379.9,306.3,379.9"/>
		<path class="st1" d="M340.6,348.7h13.7c1.9,0,3.6,0.3,5.1,0.8c1.5,0.5,2.7,1.3,3.7,2.3c0.8,0.9,1.4,1.8,1.9,2.9
			c0.4,1.1,0.7,2.3,0.7,3.7v0.1c0,1.3-0.2,2.4-0.5,3.4c-0.4,1-0.9,1.9-1.5,2.7c-0.6,0.8-1.4,1.4-2.3,2c-0.9,0.5-1.9,1-3,1.3
			l8.3,11.6h-6.4l-7.6-10.7h-0.1H346v10.7h-5.4V348.7z M353.9,363.9c1.9,0,3.5-0.5,4.6-1.4c1.1-0.9,1.7-2.2,1.7-3.8v-0.1
			c0-1.7-0.6-2.9-1.7-3.8c-1.1-0.9-2.7-1.3-4.7-1.3H346v10.4H353.9z"/>
		<polygon class="st1" points="386.1,348.7 391.1,348.7 407.5,369.9 407.5,348.7 412.9,348.7 412.9,379.4 408.3,379.4 391.4,357.5 
			391.4,379.4 386.1,379.4 		"/>
		<rect x="434.8" y="348.7" class="st1" width="5.4" height="30.7"/>
		<polygon class="st1" points="469.6,353.7 459.9,353.7 459.9,348.7 484.8,348.7 484.8,353.7 475.1,353.7 475.1,379.4 469.6,379.4 
					"/>
		<path class="st1" d="M516.8,379.9c-2,0-3.8-0.3-5.4-0.9c-1.6-0.6-3-1.4-4.1-2.6c-1.1-1.1-2-2.6-2.6-4.2c-0.6-1.7-0.9-3.6-0.9-5.9
			v-17.7h5.4v17.5c0,2.9,0.7,5,2.1,6.5c1.4,1.5,3.3,2.2,5.7,2.2c2.4,0,4.3-0.7,5.7-2.2c1.4-1.4,2.1-3.6,2.1-6.4v-17.7h5.4v17.4
			c0,2.3-0.3,4.3-0.9,6c-0.6,1.7-1.5,3.2-2.7,4.3c-1.1,1.2-2.5,2-4.2,2.6C520.7,379.6,518.8,379.9,516.8,379.9"/>
		<path class="st1" d="M551.1,348.7h13.7c1.9,0,3.6,0.3,5.1,0.8c1.5,0.5,2.7,1.3,3.7,2.3c0.8,0.9,1.4,1.8,1.9,2.9
			c0.4,1.1,0.7,2.3,0.7,3.7v0.1c0,1.3-0.2,2.4-0.5,3.4c-0.4,1-0.9,1.9-1.5,2.7c-0.6,0.8-1.4,1.4-2.3,2c-0.9,0.5-1.9,1-3,1.3
			l8.3,11.6h-6.4l-7.6-10.7h-0.1h-6.7v10.7h-5.4V348.7z M564.4,363.9c1.9,0,3.5-0.5,4.6-1.4c1.1-0.9,1.7-2.2,1.7-3.8v-0.1
			c0-1.7-0.6-2.9-1.7-3.8c-1.1-0.9-2.7-1.3-4.7-1.3h-7.9v10.4H564.4z"/>
		<polygon class="st1" points="596.6,348.7 619.3,348.7 619.3,353.5 601.9,353.5 601.9,361.4 617.3,361.4 617.3,366.3 601.9,366.3 
			601.9,374.5 619.5,374.5 619.5,379.4 596.6,379.4 		"/>
	</g>
</g>
</svg>
