<?xml version="1.0" encoding="utf-8"?>
<!-- Generator: Adobe Illustrator 19.2.1, SVG Export Plug-In . SVG Version: 6.00 Build 0)  -->
<svg version="1.1" id="layer" xmlns="http://www.w3.org/2000/svg" xmlns:xlink="http://www.w3.org/1999/xlink" x="0px" y="0px"
	 viewBox="0 0 652 652" style="enable-background:new 0 0 652 652;" xml:space="preserve">
<style type="text/css">
	.st0{fill:#00377C;}
</style>
<g>
	<polygon class="st0" points="124.6,277 40.6,277.1 29.2,293.1 94.7,293 84.1,314.6 94.4,331.3 	"/>
	<polygon class="st0" points="70.1,375 89.3,375 52.7,310.9 52.7,310.9 81.3,310.9 88.4,296.6 26.7,296.6 	"/>
	<polygon class="st0" points="107.3,315.9 94.5,339.2 94.5,339.1 79.5,314.7 79.4,314.6 59.2,314.6 94.4,374.9 94.5,375.2 
		136.6,299.4 136.6,299.4 126.9,281 	"/>
	<polygon class="st0" points="151.9,284.6 168,284.6 176.7,306.6 185.7,284.6 200.6,284.6 185.2,319.4 167.3,319.4 	"/>
	<path class="st0" d="M227.7,306l5.7-12.2l5.4,12.2H227.7z M207.1,319.4h14.4l2.7-5.8h18l2.5,5.8h16.2l-17.8-34.8h-18.3L207.1,319.4
		z"/>
	<polygon class="st0" points="274.7,284.6 296.2,284.6 307.9,307.9 308.1,307.9 308.1,284.6 320.8,284.6 320.8,319.4 300,319.4 
		287.6,294.6 287.5,294.6 287.5,319.4 274.7,319.4 	"/>
	<g>
		<path class="st0" d="M368.8,295.2c-0.2-0.9-0.8-2-1.8-2.8c-1.1-0.8-2.7-1.4-5-1.4c-6.3,0-9.7,4.2-9.7,10.5
			c0,6.7,3.1,11.5,10.4,11.5c3.2,0,5.5-0.5,6.8-1.2v-5.3H361v-7.3h23.1v18.4c-6.8,1.6-15.9,2.8-23.6,2.8c-17.5,0-22.9-7.6-22.9-17.9
			c0-13.1,9.2-18.8,24.6-18.8c12.6,0,21.7,2.7,21.9,11.5H368.8z"/>
		<path class="st0" d="M402.1,284.6h14.2v19.1c0,6.7,2.3,8.7,6.7,8.7c4.5,0,6.8-2.1,6.8-8.7v-19.1h13.9v20.3c0,5.5-1,7.8-3.3,10.2
			c-3.5,3.7-9.6,5.2-17.5,5.2c-7.9,0-14-1.5-17.5-5.2c-2.3-2.4-3.3-4.7-3.3-10.2V284.6z"/>
		<path class="st0" d="M476.1,306l5.7-12.2l5.4,12.2H476.1z M455.5,319.4h14.4l2.7-5.8h18l2.5,5.8h16.2l-17.8-34.8h-18.3
			L455.5,319.4z"/>
		<path class="st0" d="M538.3,291.6h5.4c3.5,0,5.8,1.1,5.8,4.2c0,3.3-2.4,4.3-5.6,4.3h-5.6V291.6z M523.7,319.4h14.7v-12.6h4.5
			c5,0,5.6,0.6,6.3,4.9l1.2,7.8H565l-1.9-11.7c-0.6-3.5-3.4-4.7-6.8-4.8v-0.5c4.3-0.8,7.5-3.7,7.5-8.2c0-7.7-5.9-9.6-15.4-9.6h-24.8
			V319.4z"/>
		<path class="st0" d="M596.7,292.5h4.1c6.6,0,10.7,3,10.7,9.5c0,6.5-4,9.5-10.7,9.5h-4.1V292.5z M582.1,319.4h21.2
			c10.8,0,14.6-1.3,18.7-4.6c3-2.4,4.7-7.4,4.7-12.5c0-5.2-1.7-9.4-4.2-11.9c-4.8-4.8-11.4-5.8-21.7-5.8h-18.7V319.4z"/>
		<path class="st0" d="M173.3,339.5h-17v34.9h5.9v-15h12.7c8.5,0,13.3-3.8,13.3-10.3C188.2,342.3,183.8,339.5,173.3,339.5
			 M162.2,344.1h11c7.3,0,8.8,1.9,8.8,5c0,3.9-2.7,5.7-8.4,5.7h-11.4V344.1z"/>
		<path class="st0" d="M238.6,365.7l-0.1-0.6c-0.8-5.1-1.9-7.3-5.8-8.2c4.3-1.1,6.9-4.1,6.9-8c0-6.7-4.1-9.4-14.1-9.4h-18.2v34.9h6
			v-15.3h9.7c6.5,0,8.2,1.6,8.8,3.9c0.4,1.5,0.7,3.2,1,4.8c0.5,2.5,0.9,4.8,1.5,6.3l0.1,0.2h6.3l-0.2-0.5
			C239.7,371.8,239.2,369.1,238.6,365.7 M213.4,344.1H225c6.3,0,8.4,1.3,8.4,5.2c0,3.7-2.5,5.2-8.5,5.2h-11.6V344.1z"/>
		<path class="st0" d="M276.7,338.6c-15.3,0-20.8,9.9-20.8,18.4c0,8.5,5.4,18.4,20.8,18.4c15.3,0,20.8-9.9,20.8-18.4
			C297.5,348.5,292,338.6,276.7,338.6 M276.7,370.7c-8.7,0-14.5-5.5-14.5-13.8c0-8.3,5.8-13.8,14.5-13.8c8.7,0,14.5,5.5,14.5,13.8
			C291.2,365.2,285.4,370.7,276.7,370.7"/>
		<path class="st0" d="M334.3,339.5h-17v34.9h6v-15h12.7c8.5,0,13.3-3.8,13.3-10.3C349.3,342.3,344.8,339.5,334.3,339.5
			 M323.2,344.1h11c7.3,0,8.8,1.9,8.8,5c0,4-2.6,5.7-8.4,5.7h-11.4V344.1z"/>
		<polygon class="st0" points="549.5,369.8 549.5,358.8 569.9,358.8 570.1,358.8 570.1,354.2 569.9,354.2 549.5,354.2 549.5,344.1 
			571.3,344.1 571.5,344.1 571.5,339.5 571.3,339.5 543.6,339.5 543.5,339.5 543.5,374.4 543.6,374.4 571.9,374.4 572.1,374.4 
			572.1,369.8 571.9,369.8 		"/>
		<polygon class="st0" points="373.3,358.8 393.8,358.8 393.8,354.2 373.3,354.2 373.3,344.1 395.2,344.1 395.2,339.5 367.4,339.5 
			367.4,374.4 395.8,374.4 395.8,369.8 373.3,369.8 		"/>
		<path class="st0" d="M446.3,365.6l-0.1-0.5c-0.9-5.1-1.9-7.3-5.8-8.2c4.3-1.1,6.9-4.1,6.9-8c0-6.7-4.1-9.4-14.1-9.4h-18.2v34.9
			h5.9v-15.3h9.8c6.5,0,8.2,1.6,8.8,3.9c0.4,1.6,0.7,3.3,1,5c0.4,2.4,0.9,4.6,1.4,6.1l0.1,0.2h6.3l-0.2-0.5
			C447.3,371.8,446.8,369.1,446.3,365.6 M421,344.1h11.7c6.3,0,8.4,1.3,8.4,5.2c0,3.7-2.5,5.2-8.5,5.2H421V344.1z"/>
		<polyline class="st0" points="482,344.3 497.4,344.3 497.4,339.5 460.7,339.5 460.7,344.3 476,344.3 476,374.4 482,374.4 		"/>
		<rect x="515.3" y="339.5" class="st0" width="5.9" height="35"/>
		<path class="st0" d="M615.3,355.3l-13.5-2.2c-3.6-0.6-5.4-2-5.4-4.1c0-3.3,3.9-5.9,9.2-5.9c7,0,10.8,2,11.2,5.8l0,0.3h6.2l0-0.4
			c-0.6-9-10.5-10.3-16.4-10.3c-10.1,0-16.2,4-16.2,10.7c0,8.2,8.7,9.2,16.4,10c6.1,0.7,11.5,1.3,11.5,5.2c0,3.8-4.5,6.2-11.4,6.2
			c-6.9,0-11.2-2.7-11.4-6.9l0-0.3h-6.3l0,0.4c0.7,7.6,6.5,11.5,17.3,11.5c11,0,17.6-4.2,17.6-11.3
			C624.2,359.3,621,356.3,615.3,355.3"/>
	</g>
</g>
</svg>
