<?xml version="1.0" encoding="utf-8"?>
<!-- Generator: Adobe Illustrator 19.2.1, SVG Export Plug-In . SVG Version: 6.00 Build 0)  -->
<svg version="1.1" id="layer" xmlns="http://www.w3.org/2000/svg" xmlns:xlink="http://www.w3.org/1999/xlink" x="0px" y="0px"
	 viewBox="0 0 652 652" style="enable-background:new 0 0 652 652;" xml:space="preserve">
<style type="text/css">
	.st0{fill:#6A216A;}
	.st1{fill:#FFFFFF;}
	.st2{fill:#F3B229;}
	.st3{fill:#DB322A;}
	.st4{fill:#84BF41;}
</style>
<g id="Page-1">
	<g>
		<path id="Fill-1" class="st0" d="M223.5,372.6c4.8,3.3,10.4,5.6,16.3,5.6c8.5,0,11.8-5.3,11.8-9.4c0-6-5.3-8.1-9.5-9.8l-3.9-1.6
			c-3.6-1.6-7.7-3.4-10.7-7c-1.5-1.8-3.7-5.2-3.7-10.1c0-9.1,7.6-17.6,21.6-17.6c7.7,0,13,2.3,15,3.2v10.2c-2-1.5-6.7-5.2-14.3-5.2
			c-7.7,0-10.6,4.6-10.6,8.4c0,5.5,5.5,7.9,10,9.7l4.3,1.8c3.5,1.6,7.5,3.4,10.3,7c1.9,2.3,3.4,5.9,3.4,10.1
			c0,10.3-8.6,18.5-22.9,18.5c-3.9,0-10-0.6-17.1-3.4V372.6"/>
		<path id="Fill-2" class="st0" d="M287.5,385.1c-1.2,0.3-2.8,0.6-5.1,0.6c-2.4,0-5.9-0.3-8.5-3.3c-2.6-2.9-2.6-5.9-2.5-9.7
			l0.2-23.3h-5.5l0-7.3h5.7v-8l10-3.1V342h9.6v7.3h-9.7l-0.2,18.6c0,4.6,0,6.5,1,8c0.8,1.1,2.4,2.3,5.3,2.3c1.9,0,3.9-0.5,5.7-1.1
			L287.5,385.1"/>
		<path id="Fill-3" class="st0" d="M316.1,348.3c-3.4,0.1-6.2,1.5-8.1,4.8c-1.9,3.1-2.3,6.7-2.3,10.3c0,3.4,0.4,7.3,2.4,10.4
			c2,3.1,5,4.5,8.1,4.5c7.1,0,10.4-7.2,10.4-15.2c0-7.8-2.9-14.9-10.3-14.9H316.1z M316,385.7c-14,0-21.1-9.7-21.1-21.9
			c0-12.7,8.1-22.7,21.6-22.7c12.3,0,20.8,8.6,20.8,22C337.3,375.6,330.1,385.7,316,385.7L316,385.7z"/>
		<path id="Fill-4" class="st0" d="M412.6,347.4c-0.3-3.4-2.8-5.3-5.8-5c-3.5,0.3-5.4,3.4-5.1,6.6c0.2,2.7,2.8,4.7,4.8,6.5
			C412.6,353.2,412.8,349.9,412.6,347.4z M403.7,363.2c-2.7,1-5.8,3.9-5.4,8.3c0.3,3.8,3.6,8.6,11,7.9c2.9-0.2,5.9-1.9,9.1-4.4
			L403.7,363.2z M426.6,381.5l-8.4-6.5c0,0,6.6,2.4,5.3,3.8c-1.3,1.4-2.5,2.7-5.2,4.4c-4,2.5-7.1,3-10.8,3
			c-9.8,0.2-17.1-4.6-17.8-12.9c-0.3-3.3,0.6-6.6,2.3-9.1c2.2-3,5-4.5,7-5.6c-1.3-1.3-4.9-4.8-5.3-9c-0.6-7,4.5-12.3,12.5-13
			c7.5-0.7,13.4,3.7,14,10.1c0.2,2.6-0.5,5.4-2,7.6c-2,2.9-3.6,4.3-6.1,5.5l19.3,15.4L426.6,381.5L426.6,381.5z"/>
		<path id="Fill-5" class="st0" d="M433.7,372.2c4.8,3.3,10.4,5.6,16.3,5.6c8.5,0,11.8-5.3,11.8-9.4c0-6-5.3-8.1-9.5-9.8l-3.9-1.6
			c-3.6-1.6-7.7-3.4-10.7-7c-1.6-1.8-3.7-5.2-3.7-10.1c0-9.1,7.6-17.6,21.6-17.6c7.7,0,13,2.3,15,3.2v10.2c-2-1.6-6.7-5.2-14.3-5.2
			c-7.7,0-10.6,4.6-10.6,8.4c0,5.5,5.5,7.9,10,9.7l4.3,1.8c3.5,1.6,7.5,3.4,10.3,7c1.9,2.3,3.4,5.9,3.4,10.1
			c0,10.3-8.6,18.5-22.9,18.5c-3.9,0-10-0.6-17.1-3.4V372.2"/>
		<path id="Fill-6" class="st0" d="M515.9,384.7h-10.1v-21.5c-0.1-6.7-0.1-10.1-2.9-12.5c-1.1-0.9-3-1.8-5.9-1.8
			c-2.8,0-5.1,0.7-7.9,2.6v33.2h-10.2v-60.8h10.2v26.3l-2.4-4.9c0,0,3.7-1.9,5.9-2.7c1.8-0.6,5.4-1.5,8.5-1.5
			c2.6,0,7.2,0.3,10.7,3.5c4,3.6,4,8,4.1,11.7V384.7"/>
		<path id="Fill-7" class="st0" d="M543,348.3c-3.4,0.1-6.2,1.5-8.1,4.8c-1.9,3.1-2.3,6.7-2.3,10.3c0,3.4,0.4,7.3,2.4,10.4
			c2,3.1,5,4.5,8.1,4.5c7.2,0,10.4-7.2,10.4-15.2c0-7.8-2.9-14.9-10.3-14.9H543z M542.9,385.7c-13.9,0-21.1-9.7-21.1-21.9
			c0-12.7,8.1-22.7,21.6-22.7c12.3,0,20.7,8.6,20.7,22C564.2,375.6,557,385.7,542.9,385.7L542.9,385.7z"/>
		<path id="Fill-8" class="st0" d="M580.7,375.4c1,0.7,3.9,2.6,8.3,2.6c8.3,0,12.3-6.8,12.3-15.2c0-4.4-1.2-7.8-2.9-10
			c-1.6-2.1-4.7-4.2-9.4-4.2c-2.9,0-5.8,0.8-8.3,2.1V375.4z M580.4,344.2c1.1-0.5,4.3-1.7,5.2-2c0.8-0.3,3.4-1,6.6-1
			c12.5,0,19.7,8.7,19.7,21.4c0,14-8.5,23.2-20.7,23.2c-5.1,0-8.4-1.6-10.6-2.8v19.7h-10.2v-60.5h10.2v7.1
			C580.7,349.3,579.3,344.7,580.4,344.2L580.4,344.2z"/>
		<path id="Fill-9" class="st0" d="M353.8,375.4c1,0.7,3.9,2.6,8.3,2.6c8.3,0,12.3-6.8,12.3-15.2c0-4.4-1.2-7.8-2.9-10
			c-1.6-2.1-4.7-4.2-9.4-4.2c-2.9,0-5.8,0.8-8.3,2.1V375.4z M353.5,344.2c1.1-0.5,4.3-1.7,5.2-2c0.8-0.3,3.4-1,6.7-1
			c12.5,0,19.7,8.7,19.7,21.4c0,14-8.5,23.2-20.7,23.2c-5.1,0-8.4-1.6-10.6-2.8v19.7h-10.2v-60.5h10.2v7.1
			C353.8,349.3,352.4,344.7,353.5,344.2L353.5,344.2z"/>
		<g id="Group-13">
			<g>
				<path id="Fill-10" class="st0" d="M618.7,345.1h1.3c0.8,0,1.4-0.1,1.4-1c0-0.8-0.8-0.9-1.5-0.9h-1.2V345.1z M617.3,342.1h2.7
					c1.8,0,2.8,0.6,2.8,2.1c0,1.3-0.8,1.8-1.9,1.9l1.9,3.1h-1.5l-1.7-3h-0.9v3h-1.4V342.1z M619.8,350.7c2.6,0,4.8-2.1,4.8-5
					c0-2.9-2.2-5-4.8-5c-2.7,0-4.8,2.1-4.8,5C615,348.6,617.1,350.7,619.8,350.7z M619.8,339.3c3.5,0,6.5,2.5,6.5,6.4
					c0,3.9-3.1,6.4-6.5,6.4s-6.5-2.5-6.5-6.4C613.2,341.8,616.3,339.3,619.8,339.3L619.8,339.3z"/>
			</g>
			<g>
				<path id="Fill-12" class="st1" d="M193.6,281.6C193.6,281.6,193.6,281.6,193.6,281.6c0.1,0,0.1,0,0.2,0.1
					C193.7,281.6,193.7,281.6,193.6,281.6z M128,233C128.1,233,128.1,232.9,128,233c0.1,0,0.1,0,0.1,0
					C128.1,232.9,128.1,232.9,128,233L128,233z"/>
			</g>
		</g>
		<path id="Fill-14" class="st2" d="M26.7,368c-0.2-0.5-0.4-1.1-0.4-1.7c0-2.3,1.9-4.1,4.1-4.1h0l157,0l0,0c2.3,0,4.1,1.8,4.1,4.1
			c0,0.6-0.1,1.2-0.4,1.7l0,0c-14.8,30.5-46.1,51.6-82.3,51.6S41.5,398.6,26.7,368"/>
		<path id="Fill-15" class="st3" d="M45.4,262.9c0.2-0.4,0.4-0.8,0.7-1.1c1.2-1.2,3.2-1.2,4.4,0l0,0l83.5,83.6l0,0
			c1.2,1.2,1.2,3.2,0,4.4c-0.3,0.3-0.7,0.5-1.1,0.7l0,0c-24.1,8.4-52,2.9-71.2-16.4C42.5,314.9,37,287,45.4,262.9"/>
		<path id="Fill-16" class="st0" d="M131.6,240.1c0.3-0.1,0.6-0.2,0.9-0.2c1.3,0,2.3,1,2.3,2.3h0l0,88.2l0,0c0,1.3-1,2.3-2.3,2.3
			c-0.3,0-0.6-0.1-0.9-0.2c-17.1-8.3-28.9-25.9-28.9-46.2C102.7,266,114.5,248.4,131.6,240.1"/>
		<path id="Fill-17" class="st4" d="M191.2,289.2c0.2,0.1,0.4,0.2,0.6,0.4c0.7,0.7,0.7,1.8,0,2.5h0l-47.3,47.3l0,0
			c-0.7,0.7-1.8,0.7-2.5,0c-0.2-0.2-0.3-0.4-0.4-0.6l0,0c-4.7-13.7-1.6-29.4,9.3-40.3C161.8,287.5,177.5,284.5,191.2,289.2"/>
	</g>
</g>
</svg>
