<?xml version="1.0" encoding="UTF-8" standalone="no"?>
<!-- Created with Inkscape (http://www.inkscape.org/) -->

<svg
   xmlns:dc="http://purl.org/dc/elements/1.1/"
   xmlns:cc="http://creativecommons.org/ns#"
   xmlns:rdf="http://www.w3.org/1999/02/22-rdf-syntax-ns#"
   xmlns:svg="http://www.w3.org/2000/svg"
   xmlns="http://www.w3.org/2000/svg"
   xmlns:sodipodi="http://sodipodi.sourceforge.net/DTD/sodipodi-0.dtd"
   xmlns:inkscape="http://www.inkscape.org/namespaces/inkscape"
   width="41.938992mm"
   height="21.095737mm"
   viewBox="0 0 148.60273 74.748676"
   id="svg5167"
   version="1.1"
   inkscape:version="0.91 r13725"
   sodipodi:docname="Giant.svg">
  <defs
     id="defs5169" />
  <sodipodi:namedview
     id="base"
     pagecolor="#ffffff"
     bordercolor="#666666"
     borderopacity="1.0"
     inkscape:pageopacity="0.0"
     inkscape:pageshadow="2"
     inkscape:zoom="7.9195959"
     inkscape:cx="43.318006"
     inkscape:cy="44.442867"
     inkscape:document-units="px"
     inkscape:current-layer="layer1"
     showgrid="false"
     fit-margin-top="0"
     fit-margin-left="0"
     fit-margin-right="0"
     fit-margin-bottom="0"
     inkscape:window-width="1366"
     inkscape:window-height="705"
     inkscape:window-x="-8"
     inkscape:window-y="-8"
     inkscape:window-maximized="1"
     showguides="false" />
  <metadata
     id="metadata5172">
    <rdf:RDF>
      <cc:Work
         rdf:about="">
        <dc:format>image/svg+xml</dc:format>
        <dc:type
           rdf:resource="http://purl.org/dc/dcmitype/StillImage" />
        <dc:title />
      </cc:Work>
    </rdf:RDF>
  </metadata>
  <g
     inkscape:label="Layer 1"
     inkscape:groupmode="layer"
     id="layer1"
     transform="translate(-142.8415,-577.84501)">
    <g
       id="g516"
       transform="matrix(1.25,0,0,-1.25,194.76387,595.75927)">
      <path
         d="m 0,0 c 0,3.776 2.959,6.835 6.641,6.835 2.308,0 4.272,-1.144 5.464,-2.979 8.334,2.628 22.368,4.15 28.305,4.197 1.877,0.012 14.522,0.665 22.262,-4.595 0.913,1.068 4.65,4.326 8.609,2.855 1.141,-0.428 3.259,-2.318 2.826,-5.487 l 2.87,-0.179 c -1.307,-2.272 -3.913,-10.746 -11.349,-12.174 -3.218,-4.414 -1.653,-4.508 2.042,-1.474 0.985,0.811 3.176,2.634 3.176,2.634 l 1.565,-7.092 C 67.018,-23.526 58.41,-33.737 50.494,-24.997 29.89,-34.406 14.012,-36.968 12.8,-37.261 c -1.825,-0.444 -20.61,-4.372 -33.608,-0.49 -5.869,-7.403 -12.031,-8.902 -14.435,-6.334 -5.216,5.577 1.173,13.604 2.87,15.519 l 0.041,1.471 c -8.738,2.589 -9.254,10.547 -8.911,13.471 1.171,9.989 10.991,18.369 12.652,19.581 8.782,6.377 15.085,7.625 21.521,8.114 3.05,0.234 4.157,-0.452 5.959,-4.102 C 0.542,6.622 1.755,4.618 -5.373,-0.288 L -4.067,-1.449 0,0 Z"
         style="fill:#ffffff;fill-opacity:1;fill-rule:nonzero;stroke:none"
         id="path518"
         inkscape:connector-curvature="0" />
    </g>
    <g
       id="g520"
       transform="matrix(1.25,0,0,-1.25,194.76487,595.76715)">
      <path
         d="m 0,0 c 0,3.774 2.958,6.832 6.639,6.832 2.308,0 4.271,-1.143 5.463,-2.977 8.331,2.626 22.362,4.148 28.297,4.195 1.877,0.012 14.518,0.665 22.257,-4.593 0.912,1.068 4.648,4.324 8.605,2.854 1.142,-0.428 3.259,-2.318 2.826,-5.486 L 76.956,0.647 C 75.65,-1.624 73.044,-10.095 65.61,-11.522 c -3.217,-4.413 -1.653,-4.506 2.042,-1.474 0.984,0.811 3.175,2.634 3.175,2.634 l 1.564,-7.09 C 67,-23.517 58.395,-33.724 50.48,-24.987 29.882,-34.392 14.008,-36.953 12.797,-37.246 c -1.825,-0.444 -20.605,-4.371 -33.6,-0.489 -5.867,-7.401 -12.027,-8.899 -14.431,-6.333 -5.214,5.576 1.173,13.599 2.869,15.514 l 0.041,1.47 c -8.735,2.588 -9.251,10.543 -8.908,13.465 0.547041,4.6645624 2.980947,8.978202 5.58875,12.3743807 2.97448,3.873709 6.175198,6.5538136 7.06025,7.1996193 8.78,6.374 15.08,7.622 21.515,8.11 3.049,0.234 4.156,-0.451 5.957,-4.1 C 0.541,6.62 1.755,4.616 -5.371,-0.287 l 1.306,-1.162 z"
         style="fill:none;stroke:#006f51;stroke-width:0.46399999;stroke-linecap:butt;stroke-linejoin:miter;stroke-miterlimit:3.86400008;stroke-dasharray:none;stroke-opacity:1"
         id="path522"
         inkscape:connector-curvature="0"
         sodipodi:nodetypes="cscccccccccccccccccscccccc" />
    </g>
    <g
       id="g524"
       transform="matrix(1.25,0,0,-1.25,158.52825,631.38702)">
      <path
         d="M 0,0 C -2.21,9.081 16.546,21.696 41.894,28.176 67.242,34.653 89.583,32.542 91.791,23.458 94.003,14.375 75.247,1.762 49.899,-4.719 24.547,-11.196 2.211,-9.086 0,0"
         style="fill:#ffc222;fill-opacity:1;fill-rule:nonzero;stroke:none"
         id="path526"
         inkscape:connector-curvature="0" />
    </g>
    <g
       id="g528"
       transform="matrix(1.25,0,0,-1.25,240.92625,616.07627)">
      <path
         d="M 0,0 C -1.128,-1.608 -0.085,-2.054 0.786,-1.075 5.046,4.281 11.045,9.364 13.915,9.185 15.222,8.919 15.222,6.778 15.308,5.17 14.435,4.546 10.784,0.889 9.741,-2.857 9.405,-4.06 10.31,-4.849 11.567,-4.281 c 3.568,1.603 5.302,3.313 6.871,5.262 1.65,2.049 4.436,6.151 4.436,6.151 -0.698,0.894 -3.134,0.627 -3.134,0.627 2.35,6.333 5.566,5.35 7.478,4.906 0.871,1.25 1.655,2.676 2.611,3.744 0.717,0.804 3.044,1.964 3.997,1.249 0.665,-0.495 0.869,-1.249 -0.171,-2.673 -0.85,-1.16 -1.39,-2.053 -1.39,-2.053 l 2.953,-0.267 C 34.87,11.149 32.004,4.104 26.958,6.866 25.828,5.439 23.125,1.894 22.353,-1.787 c -0.699,-3.299 0.722,-3.533 3.475,-2.851 2.524,0.625 6.176,4.459 6.871,5.35 l 0.174,-1.693 c -0.784,-0.98 -5.655,-6.419 -8.957,-8.03 -3.48,-1.693 -8.958,-0.801 -5.394,7.584 -2.608,-1.518 -5.739,-6.959 -11.651,-8.117 -1.537,-0.303 -3.824,1.783 -1.825,6.778 0.371,0.924 1.999,3.568 2.436,4.103 -1.826,-0.356 -5.829,-6.6 -8.002,-8.565 -2.266,-2.042 -5.305,-2.137 -4.869,3.034 -0.869,-0.804 -3.442,-3.359 -5.305,-4.282 -4.694,-2.318 -5.827,-0.354 -5.478,5.084 0,0 -5.128,-3.924 -6.35,-4.905 -0.77,-0.624 -1.825,-1.068 -2.607,-0.714 -0.782,0.358 -2.868,3.122 -3.129,4.998 -4.174,-4.373 -10.698,-9.544 -13.216,0.444 -1.917,-0.891 -11.047,-7.759 -11.743,-8.295 -0.695,-0.537 -1.915,-2.496 -2.694,-3.657 -0.784,-1.159 -8.782,-12.49 -12.871,-10.882 -4.172,5.085 6.955,13.113 8.002,14.983 3.13,4.104 6.435,9.546 7.563,13.292 0,0 -8.182,-7.125 -9.394,-8.115 -2.606,-2.143 -4.666,-2.843 -6.864,-1.606 -3.658,2.049 -4.63,6.716 -4.261,9.006 1.303,8.118 8.475,14.508 10.085,15.789 10.434,8.294 19.48,8.294 21.999,8.026 1.307,-1.247 2.001,-3.925 2.001,-3.925 -1.479,-2.495 -7.13,-5.529 -9.914,-6.508 -0.26,1.158 1.13,2.676 2.089,3.476 -5.741,-2.764 -15.653,-7.182 -21.13,-17.126 -1.132,-2.049 -0.262,-6.864 4.52,-3.476 2.57,1.818 6.958,4.459 17.479,14.359 0.521,0.801 1.823,0.445 2.607,-0.267 1.068,-0.973 1.742,-1.25 0.96,-2.497 -0.655,-1.042 -4.174,-9.098 -8.607,-16.145 l 10.517,5.35 c 1.741,4.373 5.564,9.725 8.698,11.421 2.176,1.174 3.823,-0.805 2.608,-2.768 -1.217,-1.963 -4.784,-6.956 -6.001,-7.941 -0.958,-5.974 4.608,-4.366 6.785,-1.066 2.868,8.919 13.305,12.844 19.564,14.358 1.045,-0.356 3.218,-2.673 0.435,-3.654 1.217,-1.16 3.042,-2.768 -0.351,-5.352 -1.565,-1.197 -3.828,-5.349 -2.519,-6.691 1.479,-1.518 3.654,-0.533 5.653,1.247 0.929,0.829 1.477,1.429 2.175,2.766 0.693,1.339 3.65,5.531 5.736,7.226 C 3.913,7.67 5.656,7.58 4.09,5.262 3.331,4.14 2.089,2.586 0,0"
         style="fill:#ffffff;fill-opacity:1;fill-rule:nonzero;stroke:none"
         id="path530"
         inkscape:connector-curvature="0" />
    </g>
    <g
       id="g532"
       transform="matrix(1.25,0,0,-1.25,239.84187,614.29402)">
      <path
         d="M 0,0 C -1.13,-1.605 -0.087,-2.052 0.782,-1.068 5.043,4.282 11.04,9.365 13.912,9.187 15.219,8.921 15.219,6.78 15.302,5.175 14.435,4.55 10.783,0.893 9.738,-2.853 c -0.333,-1.207 0.568,-1.996 1.827,-1.429 3.567,1.608 5.302,3.314 6.871,5.265 1.652,2.051 4.435,6.154 4.435,6.154 -0.694,0.89 -3.131,0.622 -3.131,0.622 2.347,6.335 5.566,5.354 7.475,4.906 0.871,1.25 1.655,2.678 2.613,3.746 0.717,0.805 3.043,1.962 3.999,1.248 0.664,-0.493 0.866,-1.248 -0.177,-2.676 -0.847,-1.161 -1.39,-2.047 -1.39,-2.047 l 2.957,-0.271 C 34.87,11.147 32.001,4.102 26.956,6.866 25.828,5.441 23.122,1.897 22.348,-1.783 c -0.694,-3.302 0.727,-3.536 3.48,-2.855 2.522,0.625 6.173,4.461 6.87,5.35 l 0.173,-1.693 C 32.086,-1.962 27.215,-7.4 23.912,-9.008 20.434,-10.704 14.956,-9.812 18.523,-1.426 15.914,-2.947 12.783,-8.384 6.868,-9.544 5.33,-9.845 3.044,-7.761 5.043,-2.765 5.412,-1.842 7.042,0.802 7.476,1.339 5.651,0.983 1.653,-5.26 -0.523,-7.226 c -2.265,-2.046 -5.304,-2.139 -4.868,3.034 -0.87,-0.802 -3.441,-3.363 -5.303,-4.282 -4.695,-2.317 -5.829,-0.357 -5.481,5.088 0,0 -5.128,-3.928 -6.348,-4.91 -0.773,-0.623 -1.827,-1.069 -2.608,-0.712 -0.782,0.355 -2.87,3.124 -3.131,4.995 -4.173,-4.371 -10.694,-9.544 -13.217,0.446 -1.915,-0.894 -11.043,-7.761 -11.74,-8.297 -0.695,-0.532 -1.912,-2.497 -2.692,-3.654 -0.784,-1.16 -8.784,-12.489 -12.875,-10.885 -4.173,5.083 6.959,13.113 8.004,14.987 3.127,4.102 6.435,9.542 7.563,13.286 0,0 -8.181,-7.12 -9.392,-8.115 -2.611,-2.139 -4.669,-2.841 -6.868,-1.604 -3.653,2.051 -4.626,6.722 -4.262,9.009 1.306,8.117 8.478,14.509 10.088,15.787 10.434,8.294 19.476,8.294 21.999,8.027 1.304,-1.247 2.001,-3.92 2.001,-3.92 -1.476,-2.502 -7.132,-5.534 -9.912,-6.514 -0.261,1.16 1.132,2.676 2.083,3.477 -5.737,-2.763 -15.652,-7.184 -21.126,-17.124 -1.13,-2.053 -0.262,-6.869 4.519,-3.479 2.569,1.82 6.956,4.456 17.479,14.36 0.522,0.802 1.826,0.446 2.61,-0.267 1.066,-0.973 1.739,-1.247 0.955,-2.499 -0.652,-1.042 -4.173,-9.097 -8.607,-16.143 l 10.523,5.352 c 1.737,4.37 5.563,9.721 8.694,11.417 2.178,1.175 3.826,-0.805 2.609,-2.768 -1.217,-1.962 -4.787,-6.955 -5.999,-7.934 -0.958,-5.977 4.608,-4.371 6.778,-1.073 2.871,8.921 13.308,12.845 19.568,14.361 1.043,-0.356 3.218,-2.676 0.438,-3.657 1.217,-1.16 3.04,-2.766 -0.35,-5.352 -1.569,-1.195 -3.83,-5.347 -2.523,-6.691 1.479,-1.514 3.653,-0.533 5.653,1.25 0.926,0.828 1.479,1.424 2.172,2.765 C -3.39,1.87 -0.436,6.064 1.653,7.759 3.915,7.669 5.651,7.582 4.087,5.262 3.331,4.144 2.086,2.587 0,0"
         style="fill:#006f51;fill-opacity:1;fill-rule:nonzero;stroke:none"
         id="path534"
         inkscape:connector-curvature="0" />
    </g>
    <g
       id="g536"
       transform="matrix(1.25,0,0,-1.25,199.57375,596.95864)">
      <path
         d="M 0,0 C 0,1.872 1.478,3.391 3.301,3.391 5.126,3.391 6.602,1.872 6.602,0 6.602,-1.869 5.126,-3.388 3.301,-3.388 1.478,-3.388 0,-1.869 0,0"
         style="fill:#e31937;fill-opacity:1;fill-rule:nonzero;stroke:none"
         id="path538"
         inkscape:connector-curvature="0" />
    </g>
    <g
       id="g540"
       transform="matrix(1.25,0,0,-1.25,199.61575,596.95864)">
      <path
         d="M 0,0 C 0,1.854 1.463,3.358 3.268,3.358 5.074,3.358 6.535,1.854 6.535,0 6.535,-1.85 5.074,-3.354 3.268,-3.354 1.463,-3.354 0,-1.85 0,0 Z"
         style="fill:none;stroke:#ffffff;stroke-width:1.31900001;stroke-linecap:butt;stroke-linejoin:miter;stroke-miterlimit:3.86400008;stroke-dasharray:none;stroke-opacity:1"
         id="path542"
         inkscape:connector-curvature="0" />
    </g>
    <g
       id="g544"
       transform="matrix(1.25,0,0,-1.25,222.45012,607.54752)">
      <path
         d="M 0,0 C -2.435,-0.493 -8.219,-4.595 -9.173,-7.714 -9.514,-8.827 -8.69,-9.041 -7.828,-8.431 -5.436,-6.738 -0.349,-0.759 0,0"
         style="fill:#ffffff;fill-opacity:1;fill-rule:nonzero;stroke:none"
         id="path546"
         inkscape:connector-curvature="0" />
    </g>
    <g
       id="g548"
       transform="matrix(1.25,0,0,-1.25,212.99163,617.80402)">
      <path
         d="M 0,0 C 1.092,0.491 4.827,4.769 5.349,5.486 3.697,4.817 -0.476,0.846 0,0"
         style="fill:#ffc222;fill-opacity:1;fill-rule:nonzero;stroke:none"
         id="path550"
         inkscape:connector-curvature="0" />
    </g>
  </g>
</svg>
