<?xml version="1.0" encoding="utf-8"?>
<!-- Generator: Adobe Illustrator 19.2.1, SVG Export Plug-In . SVG Version: 6.00 Build 0)  -->
<svg version="1.1" id="layer" xmlns="http://www.w3.org/2000/svg" xmlns:xlink="http://www.w3.org/1999/xlink" x="0px" y="0px"
	 viewBox="0 0 652 652" style="enable-background:new 0 0 652 652;" xml:space="preserve">
<g>
	<path d="M521.1,329.5L521.1,329.5L521.1,329.5l-0.5-0.2c-6.9-2.5-14.6-3.9-22.6-3.9l-4.2,0.2h-1.2h-0.2l0,0
		c-38.4,3-56.4,35.6-56.8,64.9c0,0.2,0,0.5,0,0.5c0,0.2,0,0.7,0,0.7c0,19.9-4.8,34.7-14.8,45.3l-1.6,1.6
		c-12.9,12.2-29.6,12.7-34.4,12.7l-3-0.2c0,0-4.4-0.2-10.4-1.8l-1.4-0.5c-0.2,0-0.7-0.2-0.7-0.2c-5.8-1.8-10.9-4.4-15.3-7.4
		l-0.7-0.7l-3.2-2.5c-0.2-0.2-0.7-0.7-0.7-0.7c-8.5-7.6-14.1-17.1-16.9-29.1c-1.6-6.5-2.3-13.2-2.1-19.9c0-21.3,6.7-37.7,19.4-47.8
		c13.6-10.9,30.5-12,40.9-9.7c0.2,0,12.9,2.1,18.7,13.6c1.2,1.6,1.6,3.5,1.8,4.8c0,0.7,0.2,1.2,0.2,1.6c0,1.8-0.5,3.5-0.9,4.6
		l-0.5,1.8v0.5v0.5l0.2,3.9c0.7,3.5,3.9,6,7.9,6c1.6,0,3.2-0.2,4.8-0.7c2.8-1.2,4.6-2.8,5.3-5.3c1.6-6.2-4.4-15-7.2-18.7
		c-10.2-12-25.2-18.5-42.3-18.5c-19.6,0-39.1,8.8-51.8,23.3v-92.9l0.2-121.8c0-22.2,0-47.6,39.3-61h-0.5c0.2,0,0.2,0,0.5-0.2h-53.6
		l-56.6-0.2c0.2,0,0.2,0,0.5,0.2h-0.5c9.9,3.5,17.3,7.6,22.9,12.2l0.2,0.2c0.5,0.5,1.2,0.9,1.6,1.4c14.6,13.6,14.6,31.2,14.6,47.1
		v215.1v12c-0.5-0.5-2.5-2.5-5.8-5.8c-18.7-19-77.9-78.8-104.4-109.5l-8.1-9.7c-0.5-0.5-36.7-40.7-7.4-69.8
		c14.3-14.3,37.2-20.6,58.7-15.9c22.4,4.8,39.5,20.1,48.3,42.7v-0.5c0,0.2,0,0.2,0.2,0.2v-17.1l0.2-18c-0.5-0.5-49.4-31.7-106.1-4.2
		c-0.5,0.2-51.1,26.1-31,73.7c5.1,12.9,12.9,24,18.7,30.7c0,0,0,0,1.6,1.8c0.2,0.2,0.2,0.2,0.5,0.5c0,0-0.2,0.2-0.5,0.2
		c-2.3,1.2-11.6,6.2-20.8,12.7c-22.6,13.9-60.8,43-60.8,82.5c0,59.6,52.2,101.4,126.8,101.4l11.8-0.5l2.5-0.2l7.6-0.7
		c15.9-1.6,30.7-5.3,43.7-10.6l1.6-0.7c0.2,0,4.6-2.1,4.6-2.1l6.2-3.2l1.6-0.9c10.2-5.8,18.5-12,25.2-18.7c0.2,0.5,0.7,0.9,0.9,1.4
		c7.2,9.5,29.1,34,63.8,36h0.7h3.9c25.9,0,41.8-12.7,50.6-23.3c4.8-6.2,8.1-12.5,9.9-16.4c0.7,1.8,1.4,3.7,2.3,5.5
		c5.8,12.9,15.3,22.9,27.7,28.6c8.5,3.9,17.8,6,28,6c3.9,0,7.9-0.5,12.2-1.2h0.5c32.3-5.5,46.4-33.3,48.5-57.1
		C562.4,372.5,551.3,340.9,521.1,329.5 M365.8,72.8h0.5c-12.7,4.4-21.3,9.9-27,16.4C344.8,82.8,353.3,77.2,365.8,72.8 M276.2,192.1
		v0.5c-1.4-3.7-3-7.4-4.8-10.6C273.2,185.1,274.8,188.4,276.2,192.1 M147.2,275.7c-14.6,11.6-34.2,31.9-39,60.1
		C113,307.6,132.7,287.3,147.2,275.7 M246.8,446.9c-43.9,10.4-103.7-6.7-127.8-53.4c-8.3-16.2-11.8-31-11.8-44.4
		c0-54.5,56.1-84.6,56.8-84.8c0,0.2,130.3,134,130.3,134C294.2,421.7,276.4,440,246.8,446.9 M295.3,360.7
		C295.3,360.7,295.1,360.5,295.3,360.7v-5.1V360.7z M256.3,72.6c-0.2,0-0.2,0-0.5-0.2l53.6,0.2H256.3z M309.7,419.6
		c0.2-0.2,0.2-0.2,0.5-0.5l0,0C310.1,419.4,309.9,419.6,309.7,419.6 M326.8,348.7L326.8,348.7c2.1-2.3,4.2-4.4,6.2-6.2
		C330.9,344.3,328.8,346.4,326.8,348.7 M438.6,419.4c0.5-0.9,0.9-1.8,1.2-2.5c0,0,0,0,0,0.2C439.5,417.8,439,418.7,438.6,419.4
		 M497.3,453.1c-26.8,0-40.9-29.6-40.9-58.9c0-44.4,22.2-64.7,43-64.7c13.6,0,42,15.5,42,63.1C541.4,422,525.9,453.1,497.3,453.1"/>
</g>
<g>
	<path d="M112.1,499.1l-22.6-0.2l-0.2,1.2c6.5,0.2,8.1,1.4,8.1,7.9v43.9c0,8.1-3,8.5-3.7,8.5c-1.6,0-2.5-0.9-3-2.8
		c-0.7-3.2-2.3-4.8-4.8-4.8c-1.8,0-3.9,1.6-3.9,4.4c0,2.5,1.8,5.5,6.9,5.5c10.6,0,16.2-9.2,16.2-27v-29.3l0,0c0-1.2,0-1.8,0.2-2.8
		c0.7-2.5,2.3-3.5,6.9-3.7L112.1,499.1L112.1,499.1z M160.4,552l-21.5-54.5c0,0,0,0-0.2,0.2l0,0c-0.2,0.2-0.5,0.7-0.7,1.2
		c-1.8,2.3-3.7,4.2-5.5,5.3l0,0c0,0.2,1.4,2.8,1.4,2.8l-17.6,46.4c-1.8,5.1-3.7,6.9-6.9,7.6l-0.2,1.2l15.7,0.2l0.2-1.2
		c-0.2-0.2-2.1-0.5-2.1-0.5c-2.3-0.2-5.1-0.9-5.1-3.9c0-1.4,0.9-4.6,2.5-9l3.7-9.9h22l0,0c0,0.2,3.7,9.9,3.7,9.9
		c1.8,4.4,2.8,7.6,2.8,8.8c0,3.5-4.2,4.2-7.6,4.2l-0.2,1.2v0.2h23.1l0.2-1.2C163.4,560.1,162.5,557.3,160.4,552 M138.9,497.7
		L138.9,497.7c0,0,0.5,1.2,1.2,3L138.9,497.7C138.9,498,138.9,498,138.9,497.7 M124.8,536.1L124.8,536.1h5.3H124.8z M140.1,536.1
		c-6,0-14.8-0.2-15-0.2l0.2-0.7c1.6-3.9,9.2-24.5,9.9-26.3c0.2,0.7,10.4,26.6,10.6,27h-5.8V536.1z M145.8,536.1c0-0.2,0-0.5-0.2-0.7
		L145.8,536.1L145.8,536.1z M197.6,561.7c-14.3,0-22.9-15.3-22.9-30c0-15.5,7.4-32.1,23.3-32.1c13.9,0,20.8,11.3,22.4,22l0.9,0.2
		l0.2-20.6l-0.9-0.2c-0.2,0-3,4.4-3,4.4c-0.2,0-0.2-0.2-0.5-0.2c-6-4.8-12-6.9-19.2-6.9c-18.5,0-31.9,13.9-31.9,33
		c0,19.9,11.8,32.3,31,32.3c7.9,0,14.8-2.5,21-7.4l0,0c0,0.5,2.3,5.1,2.3,5.1l0,0h0.9l0.2-19.9l-0.9-0.2
		C218.2,554.1,209.6,561.7,197.6,561.7 M217.5,556.7c0.2-0.2,0.7-0.5,0.9-0.7l0,0C218.2,556.2,217.7,556.4,217.5,556.7 M260.7,498
		c-10.6,0-30.7,6.9-30.7,33.5c0,11.8,6.5,31.9,30.3,31.9c25.2,0,31.9-20.3,31.9-32.1C292.1,508.4,275.7,498,260.7,498 M260.2,562
		c-14.3,0-21.9-15-21.9-30c0-22.4,11.6-32.3,23.1-32.3c7.4,0,22.4,7.6,22.4,31.7C283.8,546,275.5,562,260.2,562 M326.5,528.7
		c8.5-1.8,13.4-7.4,13.4-15.3c0-4.8-2.8-9.9-6.9-11.8c-4.6-2.3-9.2-2.8-15.3-2.8h-2.1l-18.5,0.2l-0.2,1.2c5.3,0.5,6.7,0.9,6.7,5.1
		v51.1c0,3.5-2.3,4.2-6.7,4.4l-0.2,1.2c0.2,0.2,9.9,0.2,9.9,0.2l9.9,0.2c17.1,0,26.6-6.2,26.6-17.6
		C343.6,536.1,336.9,529.6,326.5,528.7 M311.5,500l0.7,0.2c3.9,0,8.5,0,11.5,1.2c5.1,1.8,8.1,6.5,8.1,12.9
		c0,12.9-10.9,14.3-15.7,14.3h-4.8L311.5,500z M319.4,561c-4.8,0-7.9-0.9-7.9-6v-24.7l4.2,0.2c10.2,0,19.4,1.2,19.4,14.8
		C335.1,555.5,329.5,561,319.4,561 M462.2,561.7c-14.3,0-22.9-15.3-22.9-30c0-15.5,7.4-32.1,23.3-32.1c13.9,0,20.8,11.3,22.4,22
		l0.9,0.2l0.2-20.6l-0.9-0.2c-0.2,0-3,4.4-3,4.4c-0.2,0-0.2-0.2-0.5-0.2c-6-4.8-12-6.9-19.2-6.9c-18.5,0-31.9,13.9-31.9,33
		c0,15.9,7.6,27.3,20.8,31c-4.2,5.3-8.8,7.6-14.6,7.6c-10.2,0-23.1-11.1-35.1-23.8c3-3.9,7.4-10.4,7.4-10.4c3-4.2,5.5-6.2,10.4-6.9
		l0.2-0.9l-15.5-0.2l-0.2,0.9c0.2,0.2,0.7,0.2,0.7,0.2c1.4,0,3.2,0.2,3.9,1.2l0.5,1.4c-0.2,1.6-5.3,9-8.3,13.6
		c-6.7-7.2-12.9-14.8-18.5-21.3c0.9-0.5,4.8-2.8,4.8-2.8l3.7-2.1c4.6-3.2,6.5-6,6.5-9.9c0-6.9-7.4-11.1-12.7-11.1
		c-3.5,0-6.9,1.2-9.9,3.5c-3.2,2.5-5.1,6.5-5.1,11.3c0,4.4,1.8,9.7,4.6,13.9c-7.4,3.9-14.3,9.7-14.3,20.3c0,9.7,7.2,17.1,16.4,17.1
		c8.8,0,13.9-4.6,18.3-9.7l1.4-1.8c0,0.2,0.2,0.2,0.5,0.5c15.7,16.2,28.2,19.4,36.3,19.4c8.3,0,14.1-3,19.6-10.4
		c2.8,0.7,5.8,1.2,9,1.2c7.9,0,15-2.5,21-7.4l0,0c0,0.5,2.3,5.1,2.3,5.1l0,0h0.9l0.2-19.9l-0.9-0.2
		C482.7,554.1,474.2,561.7,462.2,561.7 M382.2,523.2L382.2,523.2c0.5-0.2,0.9-0.5,1.4-0.9C383.1,522.7,382.7,522.9,382.2,523.2
		 M374.1,508.4c0-3.7,1.2-6,4.2-7.4c1.6-0.7,3.7-0.9,6.2-0.5c4.8,0.9,8.3,5.1,8.3,10.2c0,4.4-6.5,9.7-10.6,12.2
		C377.4,517.4,374.1,513.4,374.1,508.4 M381.3,557.8c-8.3,0-14.1-6.9-14.1-16.9c0-5.5,2.8-9.9,8.3-13.4c6,8.1,12.9,16.4,20.1,23.8
		C391.5,555.5,387.3,557.8,381.3,557.8 M451.3,564c0.5-0.5,0.9-1.2,1.4-1.8l0,0C452.4,562.9,452,563.6,451.3,564 M482,556.7
		c0.2-0.2,0.7-0.5,0.9-0.7l0,0C482.7,556.2,482.3,556.4,482,556.7 M525.2,498c-10.6,0-30.7,6.9-30.7,33.5c0,11.8,6.5,31.9,30.3,31.9
		c25.2,0,31.9-20.3,31.9-32.1C556.7,508.4,540.2,498,525.2,498 M524.8,562c-14.3,0-21.9-15-21.9-30c0-22.4,11.5-32.3,23.1-32.3
		c7.4,0,22.4,7.6,22.4,31.7C548.3,546,540,562,524.8,562"/>
</g>
</svg>
