<?xml version="1.0" encoding="utf-8"?>
<!-- Generator: Adobe Illustrator 19.2.1, SVG Export Plug-In . SVG Version: 6.00 Build 0)  -->
<svg version="1.1" id="layer" xmlns="http://www.w3.org/2000/svg" xmlns:xlink="http://www.w3.org/1999/xlink" x="0px" y="0px"
	 viewBox="0 0 652 652" style="enable-background:new 0 0 652 652;" xml:space="preserve">
<style type="text/css">
	.st0{fill:#E2231A;}
</style>
<g>
	<path class="st0" d="M86.6,343.8c1.4-2,2.6-4,3.8-6.1l0.2-0.3l0.2,2.4l-4.6,18.5l0,0c0,0.1,0,0.2-0.1,0.4c-0.1,0.8,0.1,1.7,0.5,2.4
		l0,0c0.4,0.7,1,1.4,1.7,1.9h0c0.2,0.1,0.4,0.3,0.7,0.4c1,0.5,2.1,0.6,3.2,0.4h0c0.4-0.1,0.8-0.2,1.2-0.3l0,0c0.1,0,0.2-0.1,0.3-0.1
		v0c1.5-0.7,2.8-1.6,4-2.7l0,0l2.2-2.1l-0.1,0.1c1.6-1.4,3.1-2.9,4.5-4.4l0.1-0.1c0.5,1.9,1.4,3.8,2.5,5.4l0,0
		c0.1,0.2,0.3,0.4,0.5,0.6l0,0c0.7,0.8,1.5,1.5,2.5,2l0,0c0.1,0.1,0.3,0.1,0.4,0.2c2,0.8,4.2,1.1,6.3,0.7l0,0
		c0.9-0.1,1.9-0.3,2.8-0.5l0,0c0.4-0.1,0.9-0.3,1.3-0.4c1.8-0.7,3.5-1.7,5-2.9h0c1.5-1.2,2.7-2.6,3.8-4.1l0,0
		c1.1-1.5,2.1-3.1,2.9-4.8c0.6-1.3,1.2-2.7,1.6-4.1l0,0c0.2-0.9,0.4-1.8,0.4-2.7l0-0.1c0.1-1.2,0.2-2.4,0.4-3.6l0,0.1
		c0.1-0.5,0.2-1.1,0.4-1.6l0,0c0.1-0.3,0.3-0.6,0.6-0.8c0.3-0.2,0.7-0.3,1-0.3c0.2,0,0.4,0,0.6,0.1l0,0.1c-0.1,2.4-0.5,4.8-1.1,7.1
		l0-0.1c-0.6,2.2-1.1,4.4-1.4,6.7l0,0c-0.3,2.1-0.1,4.2,0.5,6.2l0,0c0.1,0.3,0.2,0.5,0.3,0.8l0,0c0.1,0.2,0.2,0.5,0.3,0.7
		c0.5,0.9,1.3,1.8,2.1,2.4h0c0.9,0.7,2,1.2,3.1,1.4l0,0c0.3,0.1,0.7,0.1,1.1,0.2c2.5,0.4,5,0.1,7.3-0.8h0c1.4-0.5,2.8-1.2,4-2l0,0
		c0.9-0.7,1.7-1.4,2.5-2.2v0c1.8-1.7,3.3-3.6,4.6-5.7v0c1.4-2.4,2.5-5,3.2-7.7l0,0c0.5-1.6,0.9-3.3,1.1-5l0-0.1
		c0.4-0.2,0.8-0.4,1.2-0.4h0c0.5,0,1.1,0.2,1.5,0.5l0.2-0.5c-2,4.7-3.7,9.5-5.3,14.4l-0.2,0.5l-1.5,4.4l0,0
		c-0.3,0.8-0.4,1.6-0.5,2.5l0,0c0,0.4,0,0.9,0.1,1.3l0,0c0,0.2,0.1,0.3,0.2,0.5l0,0c0.2,0.3,0.5,0.6,0.9,0.8l0,0
		c0.2,0.1,0.4,0.1,0.6,0.2l0,0c2.4,0.5,4.8,0.7,7.2,0.6l0,0c1.5-0.1,2.9-0.4,4.2-1l0,0c0.7-0.4,1.3-0.9,1.9-1.5l-0.1,0.1
		c1.5-3.3,2.8-6.6,3.9-10l0-0.1l1-2.5l0,0c0.1-0.3,0.2-0.5,0.2-0.8l0,0c0.1-0.3,0.2-0.5,0.3-0.7l0,0c0.1-0.3,0.3-0.5,0.6-0.6h0
		c0.6-0.2,1.2-0.2,1.8,0c0.3,0.1,0.6,0.4,0.9,0.6c0.1,0.1,0.1,0.1,0.1,0.2c0.3,0.5,0.5,1,0.5,1.6l0,0c0,0.6-0.2,1.2-0.3,1.7l0,0
		l-0.7,2.1l0,0c-0.1,0.2-0.1,0.4-0.1,0.6l0,0c-0.3,1.6-0.2,3.3,0.2,4.9l0,0c0,0.1,0.1,0.2,0.1,0.4c0.3,0.8,0.8,1.6,1.5,2.2l0,0
		c0.7,0.6,1.5,1.1,2.3,1.4c1.9,0.8,3.9,0.8,5.8,0.1l0,0c0.8-0.3,1.6-0.7,2.4-1.2h0c1.7-1,3.3-2.2,4.6-3.7l0,0c0.7-0.7,1.3-1.4,2-2.1
		l0,0c1.8-2.1,3.5-4.3,5-6.7l0-0.1c0.1,0.1,0.1,0.2,0.2,0.3c0.7,1.4,1.2,3,1.2,4.6v0c0,0.9-0.2,1.8-0.6,2.6l0,0
		c-0.3,0.5-0.6,0.8-1.1,1.1l0,0c-0.3,0.2-0.7,0.4-1,0.6l0,0c-0.2,0.1-0.3,0.1-0.5,0.1h0c-0.2,0-0.5,0-0.7-0.1l0,0
		c-0.2-0.1-0.5-0.2-0.7-0.3l0,0c-0.2-0.1-0.4-0.2-0.6-0.2h0c-0.2,0-0.4,0-0.6,0.1l0,0c-0.2,0.1-0.3,0.2-0.4,0.4
		c-0.1,0.2-0.1,0.3-0.1,0.5v0c0,0.3,0.1,0.5,0.2,0.8l0,0c0.1,0.2,0.2,0.4,0.3,0.5l0,0c0.5,0.7,1.1,1.3,1.8,1.8v0
		c0.9,0.6,1.9,1.1,2.9,1.3l0,0c0.4,0.1,0.9,0.2,1.3,0.2h0c1.6,0.1,3.1-0.2,4.5-0.8l0,0c0.9-0.3,1.8-0.7,2.6-1.1l0,0
		c0.8-0.4,1.6-0.9,2.4-1.4l0,0c1-0.7,2-1.4,3-2.1l0.1,0l-0.9,3.9l0,0c-0.1,0.2,0,0.4,0.1,0.6v0c0.1,0.1,0.2,0.2,0.4,0.3h0
		c0.3,0.2,0.6,0.3,0.9,0.4l0,0c3.8,0.7,7.6,0.7,11.4,0l0,0c0.4-0.1,0.8-0.2,1.2-0.3l0,0c0.3-0.1,0.6-0.4,0.8-0.7l0,0l9.7-21.6l0,0
		c0.4-1.1,1-2.1,1.8-3l0,0c0.4-0.4,0.8-0.8,1.4-1.1c0.5-0.2,1.1-0.3,1.7-0.1c0.1,0,0.3,0.2,0.3,0.3c0,0.1,0.1,0.2,0.1,0.3l0,0.5
		c0,0.3,0,0.7-0.1,1l0,0l-0.3,1l0,0c-0.4,1.2-0.9,2.3-1.5,3.4l0,0c-0.5,0.9-1,1.8-1.5,2.8l0.1-0.2c-1.1,2.3-2,4.7-2.8,7.1l0,0.1
		c-0.3,1-0.6,2.1-0.7,3.2l0,0c-0.1,0.8-0.1,1.6,0.1,2.4l0,0c0.2,1,0.7,2,1.3,2.8l0,0c0,0,0.1,0.1,0.1,0.1l0,0c0.5,0.6,1.2,1,1.9,1.3
		l0,0c1.3,0.4,2.6,0.4,3.9,0.1l0,0c0.8-0.2,1.6-0.4,2.3-0.7h0c1.9-0.7,3.7-1.7,5.3-2.9c1.6-1.2,3.1-2.6,4.4-4.2l0,0
		c0.5-0.6,1-1.3,1.5-2l0-0.1c0,0.7,0.1,1.5,0.2,2.2l0,0c0.3,1.6,0.8,3.1,1.6,4.5l0,0c0.2,0.4,0.5,0.7,0.8,1l0,0
		c0.6,0.7,1.4,1.3,2.2,1.7c1.5,0.7,3.2,0.7,4.7,0.1l0,0c1.5-0.6,2.9-1.5,4.1-2.6l0,0c1.7-1.6,3.4-3.2,4.9-4.9l-0.3,0.3
		c2.8-3,5.5-6.1,8-9.3l-0.1,0.1c2.3-3,4.5-6.1,6.6-9.2l0.3-0.5c0.5-0.7,0.9-1.4,1.3-2.1l0,0h0.3l-0.3,2.1l0.1-0.2
		c-3,5.7-5.4,11.6-7.3,17.7l-0.1,0.2l-0.2,0.8l0,0c-0.4,1.3-0.5,2.6-0.5,3.9v0c0,0.8,0.2,1.7,0.7,2.4l0,0c0.2,0.4,0.5,0.7,0.8,0.9
		l0,0c0.3,0.2,0.7,0.4,1,0.6c1.1,0.5,2.3,0.7,3.5,0.5l0,0c1.7-0.3,3.3-0.8,4.8-1.7l0,0c1.9-1,3.7-2.2,5.5-3.4l-0.2,0.1
		c2.1-1.3,4.1-2.8,6-4.3l0.2-0.2c0.3,1,0.7,2,1.2,2.9h0c0.7,1.2,1.5,2.2,2.5,3.1l0,0c1.1,0.9,2.3,1.7,3.6,2.1l0,0
		c2.2,0.9,4.6,1.2,6.9,0.9l0,0c1.7-0.2,3.3-0.7,4.8-1.4c1.5-0.7,3-1.6,4.3-2.7h0c0.1-0.1,0.2-0.2,0.3-0.2c1.4-1.2,2.6-2.6,3.6-4.1
		l0,0c0.3-0.6,0.6-1.2,0.8-1.8l0,0c0.2-0.5,0.3-1,0.4-1.5c0-0.3,0-0.6-0.1-0.8v0c0-0.1,0-0.1-0.1-0.2c-0.1-0.3-0.3-0.5-0.6-0.5
		c-0.1-0.1-0.3-0.1-0.4-0.1c-0.2,0-0.4,0-0.5,0.1l-0.1,0.1c-0.4,0.4-0.8,0.8-1.3,1.1l0,0c-1.9,1.6-4,2.8-6.3,3.8l0,0
		c-0.5,0.2-1.1,0.3-1.7,0.3c-0.9,0-1.9-0.3-2.7-0.8l0,0c-0.7-0.4-1.3-0.9-1.7-1.5c-0.6-0.8-1.1-1.7-1.3-2.7l0,0
		c-0.2-0.7-0.1-1.4,0-2l0,0c0.2-0.7,0.5-1.3,1-1.7l0,0c0.7-0.1,1.3-0.3,2-0.6c2-0.7,3.8-1.7,5.4-2.9c1.5-1.2,2.8-2.5,3.9-4.1l0,0
		c0.3-0.4,0.7-0.9,0.9-1.4c0.9-1.4,1.5-3,1.8-4.6v0c0.3-1.5,0.1-3-0.5-4.3l0,0c-0.3-0.7-0.7-1.2-1.2-1.8l0,0
		c-0.7-0.6-1.4-1.1-2.3-1.4l0,0c-1.3-0.5-2.8-0.7-4.2-0.6l0,0c-1.7,0.2-3.3,0.6-4.8,1.3h0c-1.5,0.7-2.9,1.6-4.2,2.7l0,0
		c-1,0.8-1.9,1.7-2.7,2.6l0,0c-0.3,0.3-0.5,0.6-0.8,1l0,0c-1.1,1.5-1.9,3.1-2.5,4.9l0,0l-2.1,6.8l0,0.1c-0.6,1.7-1.3,3.3-2.3,4.8
		l0,0c-0.5,0.7-1.2,1.4-1.9,1.8l0,0c-0.4,0.2-0.8,0.5-1.2,0.7l0,0c-0.2,0.1-0.3,0.2-0.5,0.3l0,0c-0.1,0.1-0.3,0.1-0.4,0.1h0
		c-0.1,0-0.3,0-0.4-0.1c-0.1-0.1-0.2-0.2-0.2-0.3l0,0c0-0.2-0.1-0.4-0.1-0.5v0c0-0.6,0.2-1.1,0.4-1.7l0,0.1c0.2-0.4,0.3-0.9,0.5-1.3
		l0.1-0.4c1.7-5.6,3.8-11.1,6.1-16.5l-0.1,0.3c0.1-0.2,0.1-0.5,0.1-0.7c0-0.5-0.2-1.1-0.6-1.5l0,0c-0.2-0.3-0.4-0.5-0.7-0.6l0,0
		c-0.2-0.1-0.4-0.2-0.6-0.3l0,0c-1.5-0.7-3.1-1-4.8-0.9l0,0c-1.7,0.1-3.5,0.3-5.2,0.8l-0.1,0c-0.2,0-0.3-0.1-0.4-0.2v0
		c-0.1-0.2-0.2-0.3-0.2-0.5l0,0c0-0.7,0.2-1.3,0.4-1.9l0,0.1c0.2-0.6,0.4-1.2,0.6-1.8l0,0c0-0.1,0-0.2,0.1-0.3l0,0
		c0.1-0.8,0.2-1.5,0.1-2.3l0,0c0-0.7-0.3-1.3-0.7-1.8c-0.3-0.4-0.7-0.7-1.1-0.9l0,0c-0.5-0.2-1-0.1-1.5,0l0,0
		c-0.6,0.2-1.2,0.6-1.7,1.1l0,0c-0.6,0.6-1.1,1.2-1.6,2v0c-0.7,1.2-1.2,2.5-1.5,3.9l0,0c-0.1,0.4-0.1,0.8,0,1.2l0,0
		c0.1,0.5,0.2,1,0.3,1.5l0,0c0.2,0.5,0.3,1,0.4,1.5c0.1,0.4,0.1,0.7,0,1.1l0,0c-0.2,1.2-0.7,2.3-1.4,3.4l0,0l-2,2.8l-0.1,0.1
		c-1.5,2.2-3.1,4.3-4.8,6.4l-0.1,0.1c-1.2,1.4-2.5,2.8-3.8,4.2l0.2-0.2c0,0-0.1,0.1-0.1,0.1c-0.2,0.3-0.5,0.5-0.9,0.6h0
		c-0.2,0-0.4,0-0.6-0.1c-0.2-0.1-0.4-0.3-0.5-0.5l0,0c-0.1-0.2-0.1-0.5-0.1-0.7v0c0-0.3,0-0.6,0-0.9l0,0c0.1-0.7,0.3-1.4,0.6-2.1
		l0,0.1c0.3-0.7,0.6-1.3,0.9-2l0.1-0.3c1.3-3.5,2.9-6.9,4.6-10.3l-0.1,0.2c0.2-0.2,0.3-0.4,0.3-0.6c0.1-0.3,0-0.6-0.1-0.8l0,0
		c-0.1-0.2-0.3-0.5-0.6-0.6l0,0c-0.6-0.4-1.2-0.7-1.8-0.8l0,0c-0.4-0.1-0.7-0.1-1.1-0.2l0.1,0c-2.4-0.3-4.9-0.3-7.3-0.1h0l-0.5,0.1
		l0,0c-0.7,0.1-1.3,0.4-1.9,0.7l0,0c-0.8,0.5-1.4,1.1-2,1.8c-1,1.5-1.8,3.1-2.4,4.7l0,0c-0.5,1.2-1,2.4-1.6,3.5l0,0
		c-2.2,4.2-4.8,8.3-7.7,12.1l0.1-0.1c-0.1,0.1-0.1,0.2-0.1,0.2l0,0l-0.2,0.4c0,0.1-0.1,0.2-0.1,0.2c-0.1,0.1-0.2,0.1-0.3,0.1l0,0
		c-0.2,0.3-0.5,0.5-0.8,0.7l0,0c-0.2,0.1-0.4,0.2-0.6,0.2c-0.2,0-0.4-0.1-0.5-0.2v0c-0.2-0.1-0.3-0.2-0.3-0.4l0,0
		c-0.2-0.6-0.1-1.3,0.1-1.9l0,0c0.3-0.6,0.6-1.1,0.9-1.6l0,0c0.4-0.5,0.7-1.1,1-1.7l0,0c0-0.1,0.1-0.2,0.1-0.3l0,0.1
		c1.4-2.9,2.5-5.9,3.3-9l0,0c0.1-0.4,0.2-0.9,0.3-1.3l0-0.1c0.4-1.9,0.2-3.9-0.4-5.7l0,0c-0.1-0.2-0.2-0.4-0.2-0.6l0,0
		c-0.4-0.8-1-1.5-1.7-2l0,0c-0.1-0.1-0.2-0.1-0.3-0.2l0,0c-0.7-0.4-1.6-0.6-2.5-0.5l0,0c-1.1,0.1-2.1,0.4-3.1,0.9
		c-0.7,0.3-1.4,0.7-2.1,1.1l0.1-0.1c-2.4,1.3-4.8,2.7-7,4.4l-0.1,0.1h-0.4v0c-0.1-0.2-0.1-0.5-0.1-0.7l0,0c0.1-0.2,0.1-0.5,0.3-0.7
		l0,0l0.1-0.3c0-0.1,0.1-0.1,0.1-0.2l0,0c0.5-0.9,1.2-1.8,2.1-2.4l0,0c1-0.8,2-1.5,3-2.2l0,0c0.5-0.3,0.9-0.7,1.4-1.1l0,0
		c0.2-0.1,0.3-0.3,0.5-0.5c2.5-2.3,4.6-4.9,6.5-7.8l0,0c1-1.4,1.9-2.8,2.7-4.3l0,0c0.5-1,0.9-2,1.1-3.1l0,0c0-0.1,0-0.1,0-0.2l0,0
		c0.1-0.9-0.1-1.9-0.6-2.7l0,0c-0.3-0.5-0.6-0.9-1-1.2l0,0c-0.5-0.4-1.1-0.7-1.8-0.8h0c-1.1-0.2-2.2-0.2-3.3,0.1l0.1,0
		c-1.8,0.4-3.6,1-5.3,1.8l-0.1,0c-0.9,0.4-1.7,0.9-2.6,1.4c-2.5,1.5-4.8,3.4-6.9,5.5c-2.2,2.2-4.1,4.7-5.6,7.3l-0.1,0.2l0.1-0.2
		c-3.1,5.2-5.8,10.7-8,16.5l0-0.1c-1.5,3.7-2.8,7.4-4,11.2l-0.1,0.4c-0.2,0.4-0.4,0.7-0.6,1.1l0,0c-0.6,0.8-1.2,1.6-2,2.3l0,0
		c-0.1,0.1-0.3,0.3-0.5,0.3l0,0c-0.1,0-0.2,0.1-0.3,0.1v0c-0.1,0-0.1-0.1-0.2-0.2c0-0.9-0.1-1.7-0.2-2.6c-0.4-2.6-1.2-5.1-2.3-7.4
		l-0.1-0.2c-0.7-1.4-1.4-2.9-1.9-4.3l0,0.1c-0.1-0.3-0.2-0.7-0.3-1l0,0c-0.3-1-0.5-2.1-0.6-3.1l0,0c0-0.7,0-1.5,0.2-2.2
		c0.1-0.5,0.2-1,0.4-1.5l0,0c0.1-0.3,0.3-0.7,0.6-0.9l0,0c0.2-0.2,0.4-0.3,0.7-0.4c0.2-0.1,0.5-0.1,0.7,0c0.3,0.9,0.4,1.8,0.4,2.7
		l0-0.1c0,0.9,0,1.9,0.1,2.8l0,0.1c0.1,0.7,0.3,1.4,0.6,2.1v0c0.2,0.4,0.5,0.8,0.9,1l0,0c0.2,0.2,0.4,0.3,0.6,0.4l0,0
		c1,0.6,2.1,0.9,3.2,0.8h0c0.1,0,0.2,0,0.3,0c0.7-0.1,1.3-0.4,1.8-0.8l0,0c0.6-0.5,1-1.2,1.4-1.9c0.6-1.2,0.9-2.5,0.8-3.8v0
		c0-0.9-0.1-1.8-0.4-2.6l0,0c-0.3-1.1-0.9-2.1-1.7-2.9l0,0c-0.2-0.2-0.4-0.4-0.6-0.6l0,0c-0.7-0.5-1.5-0.9-2.4-1.1l0,0
		c-1.6-0.2-3.2-0.1-4.7,0.4l0,0l-0.4,0.1l0,0c-0.8,0.2-1.6,0.5-2.3,0.9l0,0c-1.6,0.8-3.2,1.8-4.5,3.1l0,0c-1.3,1.3-2.5,2.7-3.3,4.3
		l0,0c-0.6,1.3-1.1,2.6-1.3,4l0,0.1c-0.3,1.4-0.6,2.8-1,4.2v0c-0.8,2.5-1.9,4.9-3.3,7.2h0c-1.4,2.2-3,4.3-4.9,6.2l0,0l-0.6,0.7v0
		c-0.1,0.1-0.3,0.3-0.5,0.4c-0.1,0.1-0.3,0.1-0.4,0.1h0c-0.1,0-0.2,0-0.3-0.1l0,0c-0.1-1.3,0.1-2.7,0.6-3.9l0,0
		c0.6-1.4,1.2-2.7,1.9-4v0c0-0.1,0-0.1,0-0.2c0.1-0.9-0.2-1.8-0.6-2.6c-0.5-0.9-1.2-1.7-1.9-2.3l-1.2-1.1c1.4-1.2,2.9-2.3,4.4-3.4
		l0,0c1.4-1,2.5-2.3,3.5-3.7l0,0c0.1-0.2,0.2-0.3,0.3-0.5c0.6-1.1,1-2.4,1-3.7v0c0-0.3,0-0.7-0.1-1c-0.2-0.7-0.5-1.4-1-1.9
		c-0.4-0.4-0.8-0.7-1.3-1c-1-0.6-2.2-0.9-3.4-0.8h0c-1.7,0.1-3.3,0.4-4.9,1l0,0c-2.5,1-5,2.2-7.5,3.4l-0.3,0.2l0,0
		c-0.1-0.1-0.2-0.3-0.2-0.5v0c0-0.2,0.1-0.3,0.1-0.5c0.1-0.1,0.1-0.3,0.2-0.4c0.1-0.1,0.1-0.2,0.2-0.3c0.4-0.7,1-1.3,1.7-1.8
		c0.8-0.5,1.7-1,2.5-1.4l0,0c0.7-0.3,1.3-0.7,1.9-1.1l0,0c0.1-0.1,0.3-0.2,0.4-0.3c2-1.5,3.7-3.2,5.2-5.2v0c1.6-2.1,2.9-4.4,3.9-6.9
		l0,0c0.5-1.3,0.7-2.7,0.7-4.1c0-0.2,0-0.3-0.1-0.5c-0.1-0.7-0.5-1.4-0.9-2l0,0c-0.2-0.2-0.4-0.4-0.7-0.6l0,0
		c-0.3-0.2-0.5-0.3-0.8-0.4c-1.2-0.5-2.5-0.7-3.8-0.5l0,0c-1.9,0.3-3.7,0.9-5.4,1.9l0,0c-0.4,0.2-0.8,0.5-1.3,0.7l0,0
		c-2.9,1.9-5.6,4.1-8,6.7l0,0c-2.4,2.5-4.6,5.4-6.3,8.4l-0.1,0.1l-0.8,1.4l0.1-0.2c-1.3,2.3-2.4,4.6-3.4,7l-0.1,0.2l-0.6,1.2l0,0
		c-0.4,0.8-1,1.5-1.7,2l0,0c-0.7,0.5-1.5,0.9-2.3,1.1l0,0c-0.5,0.1-1,0.2-1.5,0.3l0,0c-0.4,0.1-0.8,0-1.2-0.1l0,0
		c-0.2-0.1-0.3-0.1-0.5-0.3l0,0c-0.5-0.4-0.9-0.9-1.2-1.4l0,0l-1-1.7c-0.2-0.3-0.4-0.5-0.6-0.8l0,0c-0.3-0.3-0.7-0.6-1.1-0.8l0,0
		c-0.9-0.5-1.9-0.7-2.9-0.6h0c-0.2,0-0.3,0.1-0.5,0.1c-0.5,0.2-1,0.5-1.3,0.9c-0.3,0.4-0.5,0.8-0.6,1.3v0c0,0,0,0.1,0,0.1
		c-0.1,0.5,0.1,1,0.4,1.5l0,0c0.3,0.4,0.6,0.7,1,1l0,0c0.5,0.4,1,0.8,1.5,1.2c0.3,0.3,0.6,0.6,0.8,0.9c0.4,0.6,0.5,1.3,0.5,2v0
		c0,0.7-0.1,1.5-0.2,2.2l0,0c-0.2,1.2-0.5,2.4-0.9,3.6v0c-0.7,1.9-1.6,3.7-2.9,5.3l0,0c-0.6,0.7-1.3,1.4-2.1,2l0,0
		c-0.1,0.1-0.3,0.2-0.4,0.3l0,0c-1,0.5-2.2,0.5-3.2,0l0,0c-0.5-0.3-1-0.6-1.4-1.1c-0.5-0.6-0.9-1.3-1.1-2.1l0,0
		c-0.1-0.4-0.2-0.7-0.2-1.1c-0.4-2.5-0.2-5.1,0.7-7.5l0,0c0.4-1.3,1-2.6,1.6-3.8c0.7-1.3,1.6-2.5,2.5-3.6l0,0
		c0.9-1.1,1.7-2.3,2.4-3.6l0,0c0.2-0.3,0.3-0.7,0.4-1l0,0c-0.1-0.2-0.3-0.3-0.4-0.4c-0.5-0.4-1.1-0.6-1.6-0.5h0
		c-0.7,0-1.3,0.2-1.9,0.4l0.1,0c-1.1,0.4-2.1,0.9-3.1,1.5l-0.1,0c-0.3,0.2-0.6,0.3-0.9,0.4l0,0c-1.6,0.8-3.2,1.6-4.7,2.5l-0.1,0
		c-1.2,0.7-2.4,1.2-3.6,1.7l0,0c-0.5,0.2-1.1,0.4-1.6,0.5l0.1,0c-0.5,0.1-1,0.1-1.5,0h0c-0.1,0-0.3-0.1-0.4-0.1l0,0
		c-0.9-0.4-1.7-1-2.4-1.6l0.1,0.1c-0.7-0.6-1.5-1.3-2.3-1.8l-0.1,0c-0.7-0.5-1.4-0.8-2.2-0.9c-0.4,0-0.8,0-1.2,0.1h0
		c-0.6,0.1-1.2,0.3-1.7,0.7l0,0c-0.4,0.3-0.7,0.7-0.8,1.1c-0.1,0.4-0.1,0.8,0,1.2l0,0c0.1,0.4,0.4,0.8,0.6,1.1l0,0
		c0.5,0.7,1.1,1.4,1.8,1.9h0c0.9,0.7,1.9,1.2,2.9,1.6l0,0c0.3,1.1,0.4,2.2,0.2,3.4l0,0.1c-0.2,1-0.4,1.9-0.7,2.8l0,0
		c-0.5,2.2-1.3,4.3-2.4,6.4l0-0.1c-0.7,1.2-1.5,2.3-2.5,3.1l0,0c-0.6,0.5-1.3,0.9-2.1,1.1l0,0c-0.4,0.1-0.9,0.1-1.3,0l0,0
		c-0.3-0.1-0.6-0.2-0.9-0.3c-0.6-0.3-1.2-0.8-1.6-1.4l0,0c-0.3-0.3-0.5-0.7-0.7-1.1l0,0c0-0.1-0.1-0.2-0.1-0.3
		c-0.7-1.7-1-3.5-0.8-5.4l0,0c0-0.6,0.1-1.2,0.1-1.8l0-0.1c0.2-1.6,0.6-3.3,1.1-4.9l0,0.1c0.8-2.6,2-5.2,3.5-7.5l1.9-3l0,0
		c0.2-0.4,0.4-0.7,0.6-1.1l0,0c-0.1-0.2-0.3-0.4-0.6-0.5l0,0c-0.2-0.1-0.5-0.1-0.7-0.1h0c-0.1,0-0.2,0-0.3,0l0,0
		c-0.4,0-0.9,0.1-1.3,0.2c-1.3,0.3-2.5,0.8-3.5,1.6l0,0c-1,0.7-2,1.5-2.9,2.3l0,0c-0.1,0.1-0.3,0.2-0.4,0.4l-0.1,0.1
		c-1.9,1.9-3.6,4-4.9,6.2l0-0.1c-1.5,2.4-2.7,5.1-3.5,7.8l-0.1,0.2c-0.2,0.9-0.5,1.7-0.8,2.6l0.1-0.2c-0.3,0.7-0.6,1.4-1.2,2
		c-0.5,0.5-1,1-1.7,1.3h0c-0.3,0.1-0.5,0.2-0.8,0.3l0,0c-0.3,0-0.5,0-0.7-0.2v0c-0.1-0.1-0.3-0.2-0.3-0.4l0,0
		c-0.3-0.6-0.4-1.2-0.3-1.8l0,0c0.1-0.6,0.3-1.2,0.6-1.8l0,0.1c0.3-0.6,0.5-1.2,0.8-1.8l0.1-0.3c1.4-4.2,3.1-8.3,5-12.3l-0.1,0.3
		c0.1-0.5,0-1-0.1-1.6l0,0c-0.2-0.7-0.5-1.2-1-1.7c-0.1-0.1-0.3-0.3-0.4-0.4c-0.7-0.6-1.4-1-2.3-1.2l0,0c-0.7-0.1-1.4-0.1-2,0l0,0
		l-2.2,0.3l0,0c-0.6,0.1-1.3,0-1.9-0.2l0,0c-0.2-0.1-0.4-0.1-0.5-0.2l0,0c-0.1,0-0.1-0.1-0.2-0.1c-0.2-0.2-0.3-0.4-0.4-0.7v0
		c0-0.3,0-0.5,0.1-0.8c0.1-0.5,0.3-0.9,0.5-1.4l0.1-0.3l0,0c0.4-1.2,0.7-2.6,0.6-3.9v0c0-0.6-0.2-1.2-0.4-1.7l0,0
		c-0.1-0.2-0.2-0.4-0.4-0.5l0,0c-0.3-0.3-0.7-0.6-1.2-0.7l0,0c-0.5-0.1-1-0.1-1.4-0.1c-0.6,0.1-1.2,0.4-1.7,0.8l0,0
		c0,0-0.1,0.1-0.1,0.1c-0.7,0.7-1.3,1.5-1.7,2.4l0,0c-0.6,1.3-1,2.8-1.1,4.3l0-0.1c0,1.1-0.1,2.2,0,3.4l0,0.2c0,0.9-0.1,1.9-0.3,2.8
		l0,0c-0.6,2.1-1.5,4-2.7,5.8l0,0l-0.3,0.5l-1.2,2.1h-0.4l0,0c0-0.2,0-0.4,0-0.6c0-0.1,0.1-0.2,0.1-0.4l0,0c0.6-2.4,0.4-4.9-0.4-7.3
		c-0.5-1.4-1.2-2.7-2.1-3.8l0,0l-2.1-2.5l0,0c-0.4-0.5-0.7-1-1-1.6l0,0c1.5-0.9,2.8-2,4-3.2l0,0c1.6-1.6,2.9-3.4,3.9-5.3l0,0
		c1.1-2.1,1.9-4.4,2.3-6.7l0,0c0.2-1.2,0.2-2.4,0.2-3.5l0,0c-0.1-2-0.7-3.9-1.5-5.7c-0.4-0.8-0.9-1.6-1.4-2.3l0,0
		c-1.1-1.6-2.5-3-4.1-4.2c-1.6-1.2-3.3-2.1-5.1-2.8l0,0c-0.7-0.3-1.4-0.5-2.2-0.7c-5.1-1.5-10.5-1.7-15.8-0.8l0,0
		c-0.3,0-0.6,0.1-0.8,0.1h0c-4.2,0.7-8.2,1.9-12,3.7l0,0c-2.6,1.2-5.1,2.8-7.3,4.6l-0.1,0.1c-2.3,1.8-4.3,3.9-6.1,6.2l0.1-0.1
		c-1.9,2.4-3.5,5-4.8,7.8l0,0c-0.1,0.3-0.3,0.7-0.4,1c-0.9,2.3-1.2,4.8-1.1,7.4l0,0c0.1,0.7,0.2,1.3,0.4,2l0,0
		c0.4,1.3,0.9,2.6,1.7,3.7h0c0.8,1.1,1.7,2.1,2.8,2.9l0,0c0.3,0.2,0.6,0.4,1,0.5l0,0c1.5,0.6,3.1,0.7,4.6,0.3l0,0
		c0.7-0.1,1.4-0.4,2-0.8c0.8-0.5,1.5-1.1,2.1-1.8l0,0c0.5-0.7,0.8-1.5,0.9-2.3v0c0.1-0.6,0.1-1.1,0-1.7c-0.2-0.9-0.5-1.8-1.1-2.5
		l0,0c-0.3-0.3-0.5-0.7-0.8-1l0,0c-0.9-0.9-2-1.7-3.1-2.2c-0.8-0.4-1.6-0.7-2.5-1l0,0c-0.2-0.6-0.3-1.3-0.1-1.9
		c0.3-1.3,0.8-2.6,1.5-3.7c0.4-0.6,0.8-1.3,1.2-1.9c0.6-0.9,1.3-1.7,2-2.5l0,0c1.6-1.7,3.4-3.3,5.4-4.5l-0.1,0
		c2.2-1.4,4.7-2.5,7.2-3.2l0.1,0c3.8-1.2,7.9-1.4,11.8-0.6c0.7,0.2,1.3,0.4,2,0.6c1.4,0.6,2.7,1.4,3.9,2.4c0.6,0.5,1.1,1.1,1.6,1.7
		c1.1,1.4,1.9,2.9,2.5,4.6c1.1,3.1,1.1,6.5,0.1,9.7l0,0c-0.2,0.6-0.4,1.1-0.7,1.6c-0.6,1.1-1.4,2.2-2.4,3l0,0
		c-0.9,0.9-2,1.7-3.1,2.3l0,0c-1,0.5-2.1,0.7-3.2,0.6h0c-0.1,0-0.2,0-0.3-0.1h0c-0.2,0-0.3-0.1-0.4-0.1l0,0c-0.1,0-0.2-0.1-0.3-0.2
		h0c-0.1-0.1-0.1-0.2-0.1-0.3v0c0-0.1,0-0.2,0-0.2l0,0l0.1-0.4l5.4-15.5v0c0.2-0.5,0.3-1,0.2-1.6v0c0,0,0-0.1,0-0.1
		c-0.1-0.4-0.3-0.7-0.5-1l0,0c-0.2-0.1-0.3-0.2-0.5-0.3H51.1l-19.7,47.5l0,0c-0.2,0.5-0.2,1.1,0,1.6v0c0.2,0.6,0.5,1.1,0.8,1.6l0,0
		c0.1,0.2,0.2,0.3,0.4,0.5l0,0c0.9,1,1.9,1.9,3.1,2.6l0,0c0.6,0.4,1.2,0.7,1.8,1.1l0,0c0.4,0.2,0.9,0.4,1.3,0.7c3,1.5,6.3,2.5,9.6,3
		l0,0c2.3,0.5,4.6,0.7,6.9,0.7c3.9,0,7.7-0.6,11.3-1.9l0,0l0.5-0.2l0,0c2.2-1,4.3-2.3,6.3-3.7v0c2.6-1.8,4.9-4,6.9-6.3l0,0l1.4-1.5
		l-0.1,0.1c1.9-2.1,3.6-4.3,5.2-6.6L86.6,343.8 M280.1,311.6L280.1,311.6c0.4-1,1.1-1.9,1.9-2.7h0c0.8-0.8,1.8-1.4,2.8-1.8h0
		c1.2-0.4,2.5-0.6,3.7-0.4c1.1,0.2,2.2,0.6,3.1,1.3l0,0c0.8,0.6,1.5,1.4,2,2.2h0c0.6,1,1,2.1,1.1,3.3l0,0c0.1,1.3-0.1,2.6-0.6,3.8
		c-0.4,0.9-1.1,1.8-1.8,2.5l0,0c-0.2,0.2-0.4,0.3-0.6,0.4l0,0c-1,0.7-2.2,1.1-3.5,1.2h0c-1.5,0.2-3.1-0.1-4.5-0.7v0
		c-0.5-0.2-0.9-0.5-1.3-0.8l0,0c-0.8-0.6-1.6-1.4-2.1-2.3v0c0-0.1-0.1-0.1-0.1-0.2l0,0c-0.5-0.9-0.8-1.8-0.7-2.8
		c0-0.3,0.1-0.7,0.1-1l0,0L280.1,311.6 M38.9,356.3L38.9,356.3c-0.6-0.2-1.1-0.5-1.5-1l0,0c-0.6-0.5-1.1-1.1-1.4-1.8l0,0l13.8-1.5
		l0,0c0.6-0.5,1-1,1.3-1.7l-0.1,0.1c0.3-0.7,0.7-1.4,1-2.2l0.1-0.2c0.1-0.2,0.1-0.3,0.2-0.5l-0.1,0.2c2.6-5.4,4.8-10.9,6.7-16.5
		l0.1-0.2c0-0.5,0.2-0.9,0.5-1.3v0c0.1-0.2,0.3-0.3,0.5-0.4l0,0c0.4-0.3,1-0.4,1.5-0.4h0c0.9,0,1.8,0.3,2.5,0.8
		c0.5,0.3,0.9,0.6,1.2,1.1c0.7,0.9,1.1,1.9,1.4,2.9l0,0c0.1,0.2,0.1,0.5,0.1,0.7l0,0c0.3,2.7,0.1,5.4-0.7,8l0,0
		c-0.5,1.5-1.1,3-1.9,4.4l0,0c-1.1,1.8-2.5,3.4-4.1,4.8l0,0c-1.6,1.4-3.3,2.5-5.2,3.4l0,0c-2.4,1.1-5,1.8-7.7,2
		c-2.7,0.2-5.3-0.1-7.9-0.9l0,0L38.9,356.3 M258.7,307.5L258.7,307.5c0.3-0.1,0.7-0.1,1,0.1c0.2,0.1,0.5,0.3,0.6,0.6v0
		c0.3,0.5,0.5,1.1,0.4,1.7v0c-0.1,0.6-0.2,1.2-0.5,1.8l0,0l-0.2,0.6l0,0c-1,2.2-2.3,4.4-3.8,6.3c-1.5,1.9-3.3,3.6-5.2,5l0,0
		l-0.5-0.4l0-0.1c1.1-3.6,2.5-7.1,4.2-10.4l-0.1,0.1c0.9-1.7,2.1-3.3,3.4-4.7l0,0C258.3,307.9,258.5,307.7,258.7,307.5 M183.6,342.9
		L183.6,342.9c-0.2,0-0.5-0.2-0.6-0.4c-0.1-0.2-0.2-0.4-0.3-0.7l0,0c0-0.4,0-0.8,0.1-1.2l0,0c0.3-1.2,0.9-2.2,1.7-3.1h0
		c0.3-0.4,0.7-0.8,1.2-1.1l0,0c0.9-0.7,1.8-1.4,2.9-1.9l0,0c0.7-0.3,1.5-0.5,2.3-0.5h0c0.4,0,0.7,0.1,1,0.2l0,0
		c0.3,0.2,0.5,0.4,0.7,0.7c0,0.1,0.1,0.1,0.1,0.2l0,0c-0.3,1.2-0.8,2.4-1.4,3.4c-0.7,1-1.6,1.9-2.6,2.6l0,0
		c-0.9,0.6-1.8,1.1-2.8,1.5l0,0c-0.4,0.2-0.9,0.3-1.4,0.4h0C184.1,343,183.8,342.9,183.6,342.9 M195,311.3L195,311.3
		c0.5-0.7,1-1.4,1.6-2.1l0,0c0.7-0.9,1.5-1.7,2.3-2.5l0,0l0.3,2.5l0,0c-0.6,2.2-1.5,4.3-2.7,6.3c-1.1,1.8-2.5,3.4-4.1,4.9h0
		c-0.1,0.1-0.2,0.2-0.3,0.3l0,0c-0.5,0.5-1.1,0.9-1.7,1.3l0,0c0-0.2,0-0.5,0.1-0.7l0.2-0.6c0.8-2.7,1.9-5.3,3.4-7.7l0-0.1
		C194.3,312.4,194.7,311.9,195,311.3 M326.6,339.7L326.6,339.7l1-3.2c0.5-1.4,1.1-2.8,1.7-4.1l0,0c0.6-1.2,1.3-2.3,2.1-3.3l0,0
		c0.2-0.3,0.5-0.6,0.8-0.8c0.1-0.1,0.3-0.2,0.4-0.2c0.1,0,0.3,0,0.4,0c0.1,0.1,0.2,0.1,0.3,0.3l0,0c0.1,0.2,0.2,0.4,0.3,0.6l0,0
		c0.1,0.4,0.2,0.8,0.2,1.3l0,0c0.1,1.7-0.2,3.4-0.9,4.9l0,0c-0.5,1.2-1.2,2.3-2.1,3.2l0,0c-0.9,0.9-1.9,1.7-3.1,2.2
		c-0.2,0.1-0.3,0.2-0.5,0.2l0,0c-0.2,0.2-0.5,0.2-0.6,0v0c-0.1-0.1-0.1-0.1-0.1-0.2v0c0-0.2,0-0.4,0-0.5L326.6,339.7"/>
	<path class="st0" d="M412.1,344.6l0.6-3.6l0,0c0.5-2.2,0.4-4.4-0.2-6.6l0,0c-0.5-1.7-1.3-3.2-2.4-4.5l0,0l-2.1-2.5l0,0
		c-0.4-0.5-0.7-1-1-1.6l0,0c0.9-0.6,1.8-1.2,2.7-1.9c1.9-1.6,3.5-3.5,4.7-5.6v0c1.4-2.4,2.4-5,2.9-7.8l0,0c0.1-0.8,0.2-1.6,0.2-2.4
		c0-2.4-0.5-4.8-1.6-6.9l0,0c-0.2-0.4-0.5-0.9-0.7-1.3c-1.1-1.8-2.5-3.4-4.1-4.7l0,0c-1.7-1.4-3.7-2.6-5.9-3.3l0.1,0
		c-0.4-0.1-0.7-0.3-1.1-0.4c-5.5-1.8-11.4-2.2-17-1.1h0c-4.5,0.7-8.8,1.9-12.9,3.8l0,0c-1.9,0.9-3.7,1.9-5.4,3.1
		c-2.8,2-5.4,4.3-7.6,7l-0.1,0.1c-2.1,2.6-3.9,5.4-5.3,8.4c-0.1,0.2-0.1,0.3-0.2,0.5c-1,2.5-1.5,5.2-1.2,7.8v0
		c0.1,0.7,0.2,1.3,0.4,2c0.3,1.2,0.8,2.3,1.5,3.3l0,0c0.8,1.3,1.9,2.4,3.1,3.3l0,0c0.2,0.1,0.4,0.2,0.6,0.3c1.6,0.7,3.3,0.9,5,0.5
		l0,0c0.6-0.1,1.2-0.3,1.8-0.6c0.9-0.5,1.7-1.2,2.4-2l0,0c0.5-0.7,0.8-1.4,0.9-2.3l0,0c0.1-0.5,0.1-0.9,0-1.4c-0.1-1-0.5-2-1.1-2.8
		l0,0c-0.1-0.2-0.3-0.3-0.4-0.5l0,0c-1-1.1-2.2-2-3.6-2.7l0,0c-0.8-0.4-1.6-0.7-2.5-1l0,0c-0.2-0.6-0.3-1.3-0.1-1.9l0,0
		c0.3-1.3,0.8-2.6,1.5-3.7l0.1-0.1c0.4-0.6,0.8-1.3,1.2-1.9l0,0.1c0.4-0.5,0.7-1,1.1-1.5c1.7-2,3.6-3.8,5.8-5.3
		c2.4-1.6,5-2.8,7.8-3.5c3.9-1.2,8-1.4,12-0.6c0.4,0.1,0.8,0.2,1.2,0.3c1.7,0.6,3.3,1.5,4.7,2.7c0.5,0.4,0.9,0.9,1.3,1.4
		c1.2,1.5,2.2,3.1,2.8,4.9c1.1,3.1,1.1,6.5,0.1,9.7v0c-0.1,0.3-0.3,0.7-0.4,1l0,0c-0.7,1.4-1.6,2.7-2.8,3.7l0,0
		c-1,0.9-2,1.7-3.2,2.3l0,0c-1,0.5-2.1,0.7-3.2,0.6h0c-0.1,0-0.2,0-0.3-0.1h0c-0.2,0-0.3-0.1-0.5-0.1l0,0c-0.1,0-0.2-0.1-0.3-0.2h0
		c-0.1-0.1-0.1-0.2-0.1-0.3c0-0.1,0-0.2,0-0.2v0l0.1-0.4l5.5-15.5l0,0c0.2-0.5,0.3-1,0.2-1.6l0,0c0-0.4-0.2-0.8-0.6-1.1
		c-0.2-0.1-0.3-0.2-0.5-0.3l0,0H380l-19.9,47.5l0,0c-0.2,0.5-0.2,1.1,0,1.6v0c0.2,0.6,0.5,1.1,0.8,1.6l0,0c0.9,1.2,2.1,2.3,3.4,3.1
		l0,0c0.6,0.4,1.2,0.7,1.8,1.1l0,0c0.2,0.1,0.4,0.2,0.7,0.3c3.3,1.6,6.8,2.7,10.4,3.3l-0.1,0c1.5,0.3,3.1,0.6,4.6,0.7
		c4.7,0.4,9.4-0.3,13.8-1.9l0,0l0.5-0.2l-0.2,0.1c3.7-1.4,7.3-3.3,10.6-5.5l0,0c3.3-2.2,6.4-4.8,9.2-7.6l0.1-0.1
		c2-2.2,3.8-4.5,5.5-7l0-0.1l3.8-5.9l0.3,2.5l-4.6,18.4c-0.1,0.4-0.1,0.8-0.1,1.3c0.1,0.7,0.4,1.4,0.9,1.9l0,0c0,0,0.1,0.1,0.1,0.1
		l0,0c0.8,0.7,1.7,1.2,2.7,1.4l0,0c1.4,0.4,2.9,0.3,4.3-0.2l0,0c0.1,0,0.1-0.1,0.2-0.1l-0.1,0c1.2-0.6,2.3-1.4,3.3-2.1l0.1,0
		c2.4-1.8,4.4-3.8,6.2-6.2l0,0l0.5-0.7l0,0c0.2,1.4,0.6,2.8,1.3,4.1v0c0.7,1.2,1.7,2.3,2.9,3.2l0,0c0.4,0.3,0.8,0.5,1.2,0.7l0,0
		c2.6,1.1,5.3,1.6,8.1,1.5c2.8-0.1,5.5-0.7,8-1.9l0,0c1.5-0.7,3-1.5,4.3-2.4l0,0c0.3-0.2,0.7-0.5,1-0.8l0,0c2.3-1.8,4.4-4,6.1-6.4
		l0.1-0.1l6-7.9c-1.6,3.8-2.7,7.8-3.3,11.9l0,0c-0.1,0.5-0.1,1-0.1,1.5v0c0,1.6,0.2,3.3,0.9,4.8l0,0c0.2,0.5,0.5,1,0.8,1.4
		c0.6,0.7,1.3,1.3,2.2,1.6c0.7,0.3,1.4,0.4,2.1,0.4h0c1.1,0,2.2-0.3,3.2-0.9c1.5-0.9,2.9-2,4.1-3.3l0,0l8.9-9.7l0.7-0.7l4.5-4.8
		l-7.1,16.8c0,0.1-0.1,0.3,0,0.4c0,0.1,0.1,0.2,0.2,0.3h0c0.1,0.1,0.3,0.2,0.5,0.3l0,0c0.3,0.1,0.5,0.2,0.8,0.3l0,0
		c3.8,0.7,7.6,0.7,11.5,0l0.1,0c0.4-0.1,0.8-0.2,1.1-0.4l0,0c0.4-0.2,0.7-0.4,0.9-0.7l0,0l9.7-21.6l0,0c0.5-1.1,1.1-2,1.8-2.9l0,0
		c0.4-0.5,0.8-0.8,1.4-1.1c0.5-0.3,1.2-0.3,1.7-0.1c0.2,0.1,0.3,0.3,0.4,0.5c0,0.2,0.1,0.4,0.1,0.6c0,0.5,0,0.9-0.2,1.3l0,0
		c-0.1,0.3-0.2,0.6-0.3,0.8h0c-0.4,1.2-0.9,2.3-1.5,3.3l0,0c-0.6,0.9-1.1,1.9-1.5,2.8c-1,2.3-1.9,4.6-2.7,7
		c-0.3,1.1-0.6,2.2-0.7,3.3c-0.2,1-0.1,2,0.2,3c0.3,1,0.8,1.9,1.5,2.6v0c0.5,0.5,1.1,0.8,1.7,1h0c1.4,0.4,2.9,0.3,4.2-0.1l0,0
		c0.7-0.2,1.4-0.4,2.1-0.6l0,0c1.3-0.5,2.5-1.1,3.7-1.9l0,0c2.7-1.7,5.3-3.6,7.9-5.6l0.1-0.1c0.2,0.7,0.4,1.4,0.8,2
		c0.7,1.4,1.6,2.7,2.8,3.7c1.1,1,2.5,1.8,4,2.4l0,0c2.2,0.9,4.6,1.2,7,1l0,0c1.3-0.2,2.5-0.5,3.7-0.9c2-0.7,3.9-1.8,5.5-3.2
		l-0.1,0.1c1.3-1.2,2.6-2.5,3.7-3.9l0.2-0.2c0.7-0.9,1.5-1.7,2.3-2.5l-0.2,0.2c1-1.1,1.9-2.3,2.7-3.6l0.1-0.1l7-11.4l0.4-0.6
		l1.3-2.1h0.4l-0.3,2.1c-2.9,5.4-5.3,11.1-7.1,17l-0.4,1.5c-0.4,1.3-0.6,2.6-0.5,4v0c0,0.9,0.3,1.7,0.7,2.4l0,0
		c0.2,0.3,0.5,0.6,0.8,0.8l0,0c0.2,0.2,0.5,0.3,0.8,0.5c1.2,0.6,2.5,0.8,3.8,0.6l0,0c1.7-0.3,3.3-0.8,4.8-1.7l-0.2,0.1
		c1.9-1,3.7-2.2,5.5-3.4l-0.3,0.2c3.6-2.3,7.1-4.7,10.4-7.3l0.4-0.3c0.5-0.4,1-0.9,1.5-1.4l0,0h0.7c0.9,2.1,0.9,4.4,0,6.5v0
		c-0.3,0.6-0.6,1.1-1.1,1.5v0c-0.6,0.5-1.4,0.8-2.2,0.8h0c-0.3,0-0.7,0-1-0.2l0,0l-1-0.4l0,0c-0.3-0.1-0.7-0.2-1.1-0.2
		c-0.2,0.3-0.2,0.7,0,1v0c0.1,0.3,0.3,0.5,0.5,0.7l0,0c0.2,0.2,0.4,0.4,0.6,0.6h0c0.8,0.6,1.6,1.1,2.4,1.6c1.9,1,4,1.4,6.1,1.4
		c2.1,0,4.2-0.6,6-1.6l0,0c0.1,0,0.2-0.1,0.2-0.1c1.1-0.7,2.1-1.6,2.9-2.7l0,0c0.2-0.4,0.4-0.7,0.6-1.1c0.8-1.7,1.2-3.5,1.1-5.3
		l0,0.1c-0.1-2.5-0.5-5-1.2-7.4l0-0.1l-0.7-2.7l0-0.1c-0.4-1.5-0.7-3.1-0.9-4.6l0,0.1c-0.1-1.2-0.1-2.4,0.3-3.6v0
		c0.2-0.6,0.4-1.2,0.7-1.8l0,0c0.2-0.4,0.5-0.7,0.9-1c0.1-0.1,0.2-0.1,0.3-0.2c0.3-0.1,0.6-0.1,0.8,0c0.3,0.1,0.6,0.4,0.8,0.7
		c0.3,0.7,0.4,1.4,0.3,2.1l0,0c-0.1,0.7-0.2,1.4-0.3,2.1l0,0c-0.1,0.6-0.2,1.3-0.1,1.9l0,0c0,0.5,0.2,0.9,0.4,1.3h0
		c0.4,0.7,1,1.3,1.6,1.7c0.9,0.5,1.9,0.7,2.9,0.6l0,0c0.7-0.1,1.3-0.4,1.9-0.8c0.8-0.5,1.4-1.2,1.8-2l0,0c0.1-0.1,0.1-0.3,0.2-0.4
		c1-2.1,1.1-4.6,0.2-6.7l0,0c-0.4-0.8-1-1.5-1.7-2.1l0,0c-0.7-0.6-1.6-0.9-2.5-1.1l0,0c-0.3-0.1-0.6-0.1-0.9-0.2l0,0
		c-1-0.2-2-0.3-3.1-0.3h0c-2.3,0-4.5,0.6-6.5,1.6c-0.6,0.3-1.2,0.8-1.8,1.2c-0.2,0.2-0.5,0.4-0.7,0.7c-1.5,1.6-2.8,3.4-3.7,5.4
		l-3.1,6.4l0,0c-0.1,0.2-0.2,0.3-0.3,0.5h0c-0.6,1-1.5,1.9-2.5,2.6l0,0l-2.1,1.5l-0.2,0.1c-1.7,1.2-3.5,2.4-5.3,3.4l0.2-0.1
		c-0.2,0.1-0.4,0.2-0.6,0.3l0,0c-0.2,0.1-0.3,0.1-0.5,0.1c-0.1,0-0.2-0.1-0.3-0.1c-0.1-0.1-0.1-0.2-0.2-0.3l0,0c0-0.2-0.1-0.4,0-0.5
		l0,0c0-0.5,0.2-1.1,0.3-1.6l0,0l0.5-1.4l0.1-0.3c1.7-5.6,3.8-11.1,6.1-16.5l-0.1,0.3c0,0,0-0.1,0-0.1c0.2-0.7,0-1.3-0.4-1.9
		c-0.2-0.3-0.5-0.6-0.8-0.8l0,0c-0.2-0.1-0.4-0.2-0.7-0.4c-1.6-0.8-3.3-1.1-5-1h0c-1.7,0.1-3.4,0.4-5,0.8l0,0
		c-0.2,0-0.4-0.1-0.5-0.2c-0.1-0.2-0.2-0.4-0.2-0.6l0,0c0-0.6,0.2-1.2,0.4-1.8l0,0.1c0.2-0.6,0.4-1.3,0.6-1.9l0,0
		c0-0.1,0-0.2,0.1-0.3l0,0c0.1-0.8,0.2-1.6,0.1-2.5v0c-0.1-0.6-0.3-1.2-0.6-1.7l0,0c-0.3-0.4-0.7-0.7-1.1-0.9h0
		c-0.5-0.2-1-0.1-1.5,0c-0.6,0.2-1.2,0.6-1.7,1.1c-0.5,0.5-1,1-1.3,1.6c-0.9,1.3-1.5,2.7-1.7,4.3c-0.1,0.4-0.1,0.8,0,1.2v0
		c0.1,0.5,0.2,1.1,0.4,1.6l0,0c0.2,0.5,0.3,1,0.4,1.6c0,0.3,0,0.7,0,1l0,0c-0.2,1.3-0.7,2.5-1.3,3.7l0,0l-1.4,2.6l0,0
		c-0.7,1.2-1.4,2.4-2.1,3.5l-0.1,0.1c-2.1,3.2-4.3,6.2-6.6,9.2l0.1-0.1c-0.7,0.7-1.4,1.4-2.2,2c-1.7,1.3-3.5,2.3-5.5,3l0,0
		c-0.4,0.2-0.9,0.3-1.4,0.3h0c-1,0.1-2.1-0.2-3-0.8l0,0c-0.6-0.3-1.1-0.8-1.5-1.3c-0.7-0.8-1.3-1.9-1.5-3l0,0
		c-0.1-0.6-0.1-1.2,0-1.8c0.2-0.7,0.5-1.4,1.1-2l-0.1,0c0.1,0,0.3-0.1,0.4-0.1l0,0c2.3-0.5,4.4-1.5,6.3-2.8l0,0
		c1.8-1.2,3.4-2.8,4.7-4.6l0,0c0.2-0.2,0.3-0.4,0.5-0.6v0c1.1-1.6,1.9-3.3,2.3-5.2l0,0c0.3-1.5,0.2-3.1-0.5-4.5v0
		c-0.4-0.7-0.8-1.3-1.4-1.9h0c-0.7-0.7-1.6-1.2-2.6-1.5l0,0c-1.2-0.4-2.5-0.5-3.8-0.4c-1.1,0.1-2.2,0.3-3.3,0.7
		c-1.8,0.6-3.5,1.5-5,2.7c-1.3,1-2.5,2.1-3.5,3.3c-0.1,0.1-0.2,0.2-0.3,0.3c-1.3,1.6-2.3,3.5-2.9,5.5l-2.1,6.8l0,0
		c-0.6,1.7-1.3,3.3-2.3,4.8l0,0c-0.7,1-1.4,1.9-2.4,2.7l0,0c-0.4,0.3-0.8,0.5-1.2,0.7l0,0c-0.3,0.1-0.7,0.1-1,0
		c-0.1,0-0.3-0.1-0.4-0.2c-0.1,0-0.2-0.1-0.2-0.2c-0.1-0.1-0.1-0.2-0.1-0.3l0,0c-0.1-0.6-0.1-1.3,0.2-1.9l0,0
		c0.2-0.6,0.6-1.1,0.9-1.6l0,0.1c0.4-0.5,0.7-1,1-1.6l0,0c0.1-0.1,0.1-0.2,0.1-0.3l0,0c1.4-2.8,2.5-5.8,3.3-8.8l0,0
		c0.1-0.5,0.2-1,0.3-1.5l0,0c0.4-1.9,0.3-3.9-0.4-5.8l0,0c0-0.1-0.1-0.2-0.2-0.4c-0.4-0.8-1-1.6-1.8-2.1l0,0c0,0-0.1-0.1-0.2-0.1h0
		c-0.8-0.5-1.7-0.7-2.7-0.6c-1.1,0.1-2.1,0.5-3.1,0.9c-0.7,0.3-1.4,0.7-2.2,1.1c-2.4,1.3-4.8,2.7-7,4.3h-0.5l0,0c0-0.2,0-0.4,0-0.6
		l0,0c0.1-0.2,0.2-0.5,0.3-0.7l0,0l0.2-0.4l0,0c0.5-1,1.2-1.9,2.1-2.6c0.9-0.7,1.9-1.4,2.9-2.1l0,0c0.5-0.4,1-0.7,1.5-1.2l-0.1,0.1
		c0.2-0.2,0.3-0.3,0.5-0.5c2.5-2.3,4.7-5,6.6-7.9l0,0c1-1.4,1.9-2.8,2.8-4.3l0.1-0.1c0.5-1,0.9-2,1.1-3.1l0,0c0.2-1,0-2-0.5-2.9
		c-0.2-0.4-0.5-0.7-0.8-1c-0.6-0.5-1.2-0.8-2-1l0,0c-1.1-0.2-2.3-0.2-3.4,0.1c-1.8,0.4-3.6,1-5.3,1.8c-0.4,0.2-0.8,0.4-1.2,0.7
		c-2.9,1.6-5.6,3.5-7.9,5.8c-2.4,2.3-4.5,5-6.2,7.9c-1.6,2.8-2.9,5.7-3.9,8.7l0,0.1c-0.6,1.6-1.2,3.2-1.8,4.8l0-0.1
		c-5.5,4.7-10.7,9.8-15.5,15.2l-2.8,3l0,0c-0.2,0.2-0.4,0.2-0.6,0.3c-0.2,0-0.5-0.1-0.7-0.2l0,0c-0.3-0.2-0.5-0.5-0.7-0.8l0,0
		c-0.6-0.9-0.8-1.9-0.9-3l0,0c0-1.4,0.3-2.8,0.6-4.1l0-0.1c0.4-1.5,0.9-2.9,1.5-4.3l0,0c1.6-4.3,3.8-8.4,6.3-12.1l-0.1,0.1l0.4-0.7
		l0,0c1,0.1,2,0.2,3.1,0.3l0,0c1.1,0,2.1-0.3,3-0.9l0,0c1.3-0.9,2.4-2,3.4-3.3l-0.1,0.1c0.9-1.1,1.7-2.3,2.5-3.5l0.1-0.1
		c0.5-0.8,0.9-1.7,1.4-2.5l0,0c0.1-0.1,0.1-0.2,0.1-0.3l0,0l0.4-0.9l0,0c0.1-0.1,0.1-0.3,0.1-0.5c0-0.4-0.1-0.7-0.4-1h0
		c-0.2-0.2-0.5-0.4-0.8-0.5l0,0c-0.2-0.1-0.4-0.1-0.6-0.1l0,0l-2.8-0.2l3.8-5.1l0,0c0.5-0.6,0.8-1.2,1.1-1.9l0,0
		c0.1-0.3,0.2-0.6,0.2-1v0c0-0.2,0-0.4-0.1-0.6c-0.1-0.4-0.4-0.8-0.8-1l0,0c-0.5-0.3-1-0.5-1.6-0.6l0,0c-0.4-0.1-0.8-0.1-1.2-0.1
		l0,0c-0.7,0-1.4,0-2.1,0.2h0c-0.9,0.2-1.7,0.7-2.4,1.3c-1.2,1.1-2.3,2.4-3.3,3.7l-1.3,1.8l-1.9,2.7l-3.8-0.1l0,0
		c-1.4-0.1-2.7,0.1-4,0.6h0c-1.3,0.5-2.4,1.3-3.4,2.2l0,0c-1.2,1.2-2.2,2.4-3.1,3.8l0,0c-0.7,1-1.3,2.1-1.8,3.3l0,0
		c-0.2,0.4-0.2,0.8-0.3,1.3v0c0,0.3,0,0.6,0.1,0.8v0c0.1,0.3,0.3,0.6,0.6,0.7l0,0c0.4,0.2,0.7,0.3,1.1,0.4h0
		c0.4,0.1,0.7,0.1,1.1,0.1h0l4.8,0.2l-0.1,0.1c-3.3,4.9-7,9.5-11.1,13.7l0.1-0.1l-10,11.2l0,0.1c1.3-1.6,2.3-3.4,3-5.3l0,0
		c1.1-2.7,1.8-5.5,1.8-8.4l0,0c0-0.5,0-1-0.1-1.5v0c-0.1-0.7-0.2-1.3-0.5-1.9l0,0c-0.5-1.4-1.2-2.6-2.2-3.7l0,0
		c-0.6-0.6-1.3-1.1-2.1-1.5l0,0c-0.7-0.3-1.4-0.5-2.1-0.7l0,0c-0.5-0.1-0.9-0.1-1.4-0.1h0c-0.6,0-1.2,0.2-1.7,0.5
		c-0.4,0.2-0.7,0.5-0.9,0.9c-0.1,0.1-0.1,0.3-0.1,0.4c0,0.1,0,0.2-0.1,0.3l0,0c-0.1,0.7,0.1,1.4,0.5,1.9l0,0c0.4,0.5,0.9,1,1.4,1.3
		l0,0l2.4,1.6l0.3,0.2c0.2,0.1,0.4,0.3,0.5,0.5c0.5,0.5,0.7,1.2,0.8,1.8c0.1,0.8,0,1.7-0.2,2.5l0,0c-0.4,1.3-0.8,2.6-1.2,3.9l0,0
		l-0.1,0.3l0,0.1c-0.6,1.9-1.5,3.7-2.6,5.2l0,0c-0.2,0.3-0.5,0.6-0.8,0.9v0c-0.8,0.8-1.8,1.4-2.9,1.7l0,0c-0.1,0-0.3,0-0.4,0.1
		c-1,0.1-1.9-0.1-2.7-0.7l0,0c-0.8-0.5-1.4-1.1-1.8-1.9l0,0c-0.8-1.5-1.1-3.3-0.9-5l0-0.1c0.2-2,0.7-3.9,1.4-5.8l0,0.1l0.3-0.8
		l0-0.1c0.5-1.4,1-2.8,1.7-4.2l0,0c0.5-1,1.1-2,1.7-2.9l0,0.1c0.6-0.9,1.2-1.8,1.6-2.8l0,0c0.1-0.2,0.1-0.3,0.2-0.5l0,0
		c0.2-0.6,0.2-1.3,0-1.9v0c-0.1-0.3-0.2-0.6-0.4-0.8l0,0c-0.3-0.3-0.6-0.4-1-0.4h0c-0.6,0-1.2,0.2-1.7,0.5l0,0
		c-0.5,0.3-1.1,0.7-1.6,1.1l-0.1,0c-0.2,0.2-0.4,0.3-0.6,0.4l0.1-0.1c-0.6,0.5-1.2,0.9-1.7,1.5h0c-1.7,1.6-3,3.4-4.1,5.4l0.2-0.3
		c-1.5,2.9-3,5.9-4.3,8.9l-0.2,0.4c-0.8,1.6-1.7,3.2-2.7,4.7l0,0c-0.4,0.7-0.8,1.3-1.3,1.9l0,0c-0.3,0.4-0.7,0.7-1.1,0.9l0,0
		c-0.2,0.1-0.4,0.1-0.6,0.1c-0.4,0-0.9-0.2-1.2-0.5h0c-0.2-0.2-0.3-0.4-0.3-0.6l0,0c-0.3-1.7-0.2-3.4,0.4-5l0,0
		c0.7-1.7,1.5-3.3,2.4-4.9l-0.1,0.1c1-1.6,1.8-3.2,2.5-4.9l0,0l0.1-0.3l0,0c0.3-0.7,0.5-1.3,0.6-2l0,0c0.2-0.7,0.1-1.4-0.1-2.1v0
		c-0.1-0.3-0.2-0.5-0.4-0.7c-0.4-0.5-0.9-0.8-1.4-1l0,0c-0.7-0.2-1.4-0.3-2.1-0.3h0l-3.3,0h0c-0.9,0-1.8-0.2-2.7-0.6l0,0
		c-0.1,0-0.1-0.1-0.2-0.1l0,0c-0.1,0-0.1-0.1-0.2-0.1c-0.3-0.3-0.6-0.7-0.6-1.1h0c0-0.3,0.1-0.7,0.2-1l0,0l0.3-0.7l0,0
		c0.1-0.1,0.1-0.2,0.1-0.3h0c0.6-1.3,0.9-2.7,0.8-4.1l0,0c0-0.1,0-0.2-0.1-0.3c-0.2-0.7-0.6-1.4-1.1-1.9l0,0
		c-0.3-0.3-0.7-0.5-1.1-0.6c-0.1,0-0.2,0-0.3-0.1h0c-0.8-0.1-1.7,0.1-2.3,0.6c-0.1,0-0.1,0.1-0.2,0.1c-0.9,0.7-1.6,1.5-2.1,2.5l0,0
		c-0.3,0.6-0.6,1.2-0.8,1.8c-0.2,0.9-0.3,1.8-0.3,2.7l0,0c0.1,1,0.1,2.1,0,3.1l0-0.1c0,0.1,0,0.3,0,0.4l0,0
		c-0.2,1.6-0.6,3.1-1.3,4.6l0,0l-0.8,1.6l0,0c-0.5,1.2-1.2,2.3-1.8,3.4l0,0c-0.9,1.3-2,2.5-3.3,3.4l0,0
		C414.4,343.1,413.3,343.9,412.1,344.6L412.1,344.6 M367.6,357.2L367.6,357.2c-0.6-0.2-1.1-0.5-1.5-0.9l0,0
		c-0.6-0.5-1.1-1.1-1.5-1.8l0,0l13.9-1.5l0,0c0.6-0.5,1-1,1.4-1.7l0,0c0.3-0.7,0.7-1.4,1-2.2l0,0c0.1-0.2,0.1-0.3,0.2-0.5l-0.1,0.2
		c2.6-5.4,4.8-10.9,6.8-16.5l0.1-0.2c0-0.5,0.2-1,0.6-1.4c0.1-0.1,0.3-0.2,0.4-0.3l0,0c0.5-0.3,1-0.4,1.5-0.4h0c1,0,2,0.3,2.8,0.9
		l0,0c0.4,0.3,0.7,0.6,1,0.9l0,0c0.8,1,1.3,2.2,1.5,3.4c0,0.1,0,0.2,0,0.3l0,0c0.3,2.7,0.1,5.4-0.7,7.9l0,0c-0.5,1.5-1.1,3-2,4.4
		l0,0c-1.3,2-2.9,3.8-4.8,5.4l0,0c-1.9,1.6-4.1,2.8-6.4,3.6l0,0c-4.5,1.6-9.3,1.7-13.9,0.3l0.1,0L367.6,357.2 M532.8,307.6
		L532.8,307.6c0.3-0.1,0.7-0.1,1,0.1c0.2,0.1,0.5,0.3,0.6,0.6l0,0c0.3,0.5,0.5,1.1,0.4,1.7v0c-0.1,0.6-0.2,1.2-0.5,1.8l0,0l-0.2,0.6
		l0,0.1c-1.1,2.5-2.6,4.9-4.4,7l0,0c-1.4,1.6-3,3.1-4.7,4.3l0.1-0.1l-0.5-0.4c1.1-3.6,2.5-7.1,4.2-10.4l0,0
		C529.8,310.9,531.2,309.1,532.8,307.6 M552.3,340.5L552.3,340.5l1-3.2c0.5-1.4,1.1-2.8,1.7-4.1c0.6-1.2,1.3-2.3,2.1-3.3
		c0.2-0.3,0.5-0.6,0.8-0.8c0.1-0.1,0.3-0.2,0.4-0.2c0.1,0,0.3,0,0.4,0h0c0.1,0.1,0.2,0.2,0.3,0.3l0,0c0.1,0.2,0.2,0.4,0.3,0.6l0,0
		c0.1,0.4,0.2,0.8,0.2,1.3v0c0.1,1.8-0.3,3.6-1.1,5.3c-0.6,1.3-1.5,2.5-2.7,3.5l0,0c-0.9,0.7-1.8,1.4-2.9,1.8l0,0
		c-0.2,0.2-0.5,0.2-0.7,0c-0.1-0.1-0.1-0.1-0.1-0.2c0-0.2,0-0.4,0-0.5L552.3,340.5"/>
</g>
</svg>
