<?xml version="1.0" encoding="utf-8"?>
<!-- Generator: Adobe Illustrator 19.2.1, SVG Export Plug-In . SVG Version: 6.00 Build 0)  -->
<svg version="1.1" id="layer" xmlns="http://www.w3.org/2000/svg" xmlns:xlink="http://www.w3.org/1999/xlink" x="0px" y="0px"
	 viewBox="0 0 652 652" style="enable-background:new 0 0 652 652;" xml:space="preserve">
<style type="text/css">
	.st0{fill:#003B4C;}
</style>
<g>
	<g>
		<path class="st0" d="M173.2,342c-1.9,0-3.7-0.1-5.6-0.8v-31.6h4.3c7.9,0,15.2,5.2,15.2,15.2C187.1,335.2,180.5,342,173.2,342
			 M172.4,307.5h-15v1.5l3.5,0.4c1.6,0.2,1.6,0.4,1.8,5c0.2,3.6,0.3,8.7,0.3,12.9c0,9.4-0.4,12.9-0.5,13.6c-0.3,0.8-0.7,1.1-1.8,1.3
			l-3.3,0.4v1.5H173c11.9,0,19.4-9.2,19.4-19.3C192.4,312.6,182.9,307.5,172.4,307.5"/>
		<path class="st0" d="M239.6,338.6c-0.6,2-2.6,3-4.3,3l-9.5,0.6v-15.7l6.2,0.2c2.8,0.1,2.8,1,3.2,3.1l0.4,2.4h2.3v-13.4h-2.3
			l-0.5,2.6c-0.3,2.1-0.3,3.1-3.1,3.1l-6.2,0.2l0.1-15.4l6.5,0.4c2,0.1,3.9,0.5,4.4,3l0.7,3.8h2.2v-9h-24v1.5l3.4,0.4
			c1.6,0.1,1.7,0.4,1.9,5c0.2,3.3,0.3,8.4,0.3,11.5c0,3.6-0.1,13.3-0.5,14.9c-0.2,0.8-0.6,1.1-1.7,1.3l-3.3,0.4v1.5h25.6l1.5-8.6
			l-1.9-0.3L239.6,338.6z"/>
		<path class="st0" d="M623.1,334.9l-1.3,3.5c-0.6,2-2.6,3-4.3,3L608,342v-15.7l6.2,0.2c2.8,0.1,2.8,1,3.2,3.1l0.4,2.4h2.3v-13.4
			h-2.3l-0.5,2.6c-0.3,2.1-0.3,3.1-3.1,3.1l-6.2,0.2l0.1-15.4l6.5,0.4c2,0.1,3.9,0.5,4.4,3l0.7,3.8h2.2v-9h-24v1.5l3.4,0.4
			c1.6,0.1,1.7,0.4,1.9,5c0.2,3.3,0.3,8.4,0.3,11.5c0,3.6-0.1,13.3-0.5,14.9c-0.2,0.8-0.6,1.1-1.7,1.3l-3.3,0.4v1.5h25.6l1.4-8.6
			L623.1,334.9z"/>
		<path class="st0" d="M294.7,340.5l-11.4-14.9c4.8-0.9,9.2-4.7,9.2-10c0-5.6-5.5-8.1-11.7-8.1h-15v1.5l3.5,0.4
			c1.3,0.1,1.5,0.6,1.7,2.4c0.2,3.6,0.4,7.6,0.4,14.2c0,10.2-0.3,14-0.5,14.8c-0.2,0.8-0.9,1.1-1.8,1.3l-3.3,0.4v1.5h15.4v-1.5
			l-3.1-0.4c-2-0.2-2.1-1-2.1-7.6v-25.1h2.8c4.7,0,8.9,2.4,8.9,6.5c0,4.8-2.1,8.7-10.6,9c4.3,4.7,10.2,12.5,14,19.1h8v-1.5l-2.4-0.3
			C295.7,342,295.5,341.6,294.7,340.5"/>
		<path class="st0" d="M358.9,334.4v-17.5c0-6.7,0.1-7.4,2.1-7.7l3.3-0.4v-1.5h-10.2l-11.7,30.9l-11.5-30.9h-10v1.5l3.2,0.5
			c1.2,0.2,1.3,0.6,1.3,1.9c-0.1,3.1-0.3,11.2-0.3,14.7c0,4.1-0.2,7.6-0.3,11.1c-0.2,4.3-0.2,4.8-1.8,5l-3.4,0.4v1.5h13.7v-1.4
			l-3.3-0.3c-2-0.2-2.2-0.6-2.2-7.7l-0.1-22.2c8,20.6,10.9,28.6,11.9,32h2.9l11.7-29.9c0.2,3.6,0.3,8.7,0.3,12.6
			c0,9.4-0.4,13.1-0.5,13.8c-0.2,0.8-0.7,1.1-1.8,1.3l-3.3,0.4v1.5h15.7v-1.5l-3.8-0.4C359.1,341.7,358.9,340.8,358.9,334.4"/>
		<path class="st0" d="M401.3,323.3c-4.2-1.8-8.6-3.4-8.6-7.8c0-3.5,2.5-6.7,6.2-6.7c3.4,0,6.1,1,6.5,3.7l0.6,3.5h1.6l0.1-8.2
			c-1.4-0.4-5-1.1-8.2-1.1c-5.7,0-11.4,3.4-11.4,9.9c0,6,4.5,8.1,8.4,9.7c5.5,2.4,9.4,4.4,9.4,8.5c0,4-2.7,7.8-7.8,7.8
			c-5.2,0-8-1.3-8.6-5.3l-0.5-3.6h-1.7v9.2c1.5,0.8,5.2,1.7,10.5,1.7c7.6,0,12.9-5.3,12.9-11.4C410.5,327.9,405.6,325.2,401.3,323.3
			"/>
		<path class="st0" d="M431.9,307.3l-0.5,8.4l2.1,0.1l0.5-3c0.4-2.1,0.5-3,2.3-3.1l5.6-0.2l2.3-0.1l0,0h0.3v5.6
			c0.1,4.4,0.2,9.3,0.2,12.1c0,4.1-0.1,6.9-0.2,8.8c0,5.1-0.6,5.2-2.1,5.4l-4.8,0.5v2.1h18.5v-2.1l-4.8-0.5
			c-1.6-0.2-2.1-0.3-2.1-5.4c-0.1-1.9-0.2-4.8-0.2-8.8c0-2.8,0-7.6,0.2-12.1l0.3-5.6l2.3,0.1l5.6,0.2c1.7,0.1,2,0.9,2.2,2.6
			c0,0.2,0.1,0.3,0.1,0.5l0.5,3l2.1-0.1l-0.5-8.4C461.9,307.3,431.9,307.3,431.9,307.3z"/>
		<path class="st0" d="M502.2,342.5c-7.7,0-12.8-6.8-12.8-17c0-10.1,5.2-16.9,12.8-16.9c7.7,0,12.8,6.8,12.8,16.9
			C515,335.7,509.8,342.5,502.2,342.5 M502.2,306.6c-11.3,0-18.1,7.1-18.1,18.9c0,11.9,6.8,19,18.1,19c11.3,0,18.1-7.1,18.1-19
			C520.2,313.7,513.4,306.6,502.2,306.6"/>
		<path class="st0" d="M572.5,340.3l-11.4-14.9c4.8-0.9,9.2-4.7,9.2-10c0-5.6-5.5-8.1-11.7-8.1h-15v1.5l3.5,0.4
			c1.3,0.1,1.5,0.6,1.7,2.4c0.2,3.6,0.4,7.6,0.4,14.2c0,10.2-0.3,14-0.6,14.8c-0.2,0.8-0.9,1.1-1.8,1.3l-3.3,0.4v1.5h15.4v-1.5
			l-3.1-0.4c-2-0.2-2.1-1-2.1-7.6v-25.1h2.8c4.7,0,8.9,2.4,8.9,6.5c0,4.8-2.1,8.7-10.6,9c4.3,4.7,10.2,12.5,14,19.1h8.1v-1.5
			l-2.4-0.3C573.4,341.8,573.3,341.4,572.5,340.3"/>
	</g>
	<path class="st0" d="M106,309.5c-8.4,0-15.5,5.8-17.4,13.6H72.8h-13c-6.3,0-11.4-4.9-12.2-11h8.2h16.6c2.2,0,4.2-0.4,6.2-1.1
		c6.8-2.5,11.7-9.1,11.7-16.8c0-9.9-8-17.9-17.9-17.9c-9.6,0-17.5,7.6-17.9,17.2c-6,1.9-10.7,6.8-12.1,13
		c-9.6,0.3-17.4,8.4-17.4,18.1c0,9.9,8,17.9,17.9,17.9c8.5,0,15.6-5.9,17.4-13.8h16h13c6.3,0,11.5,4.8,12.2,10.9H93H76.5H76l0,0
		c-9.7,0.3-17.4,8.4-17.4,18.1c0,9.9,8,17.9,17.9,17.9c9.7,0,17.6-7.8,17.9-17.4c6.1-1.8,10.9-6.7,12.4-12.9
		c1.9-0.1,3.7-0.4,5.4-1.1c6.8-2.5,11.7-9.1,11.7-16.8C123.9,317.5,115.9,309.5,106,309.5z M72.4,282c6.8,0,12.3,5.5,12.3,12.3
		c0,5.2-3.2,9.6-7.7,11.4c-2.1-7.3-8.8-12.7-16.8-12.9C61,286.7,66.2,282,72.4,282z M59.8,298.4c5.3,0,9.9,3.4,11.6,8.2h-12H48.3
		C50,301.8,54.5,298.4,59.8,298.4z M42.9,336.9c-6.8,0-12.3-5.5-12.3-12.3c0-6.5,5-12,11.4-12.5c0.6,7.4,5.8,13.7,12.7,15.8
		C53.3,333.1,48.5,336.9,42.9,336.9z M76.5,370c-6.8,0-12.3-5.5-12.3-12.3c0-5.3,3.3-9.9,8-11.7c2.1,7.2,8.7,12.5,16.5,12.8
		C88.1,365.1,82.9,370,76.5,370z M89.4,353.3c-5.3,0-9.8-3.3-11.5-8h11.5h11.5C99.2,349.9,94.7,353.3,89.4,353.3z M107.2,339.6
		c-0.5-7.1-5.3-13-11.7-15.4c-0.4-0.2-0.8-0.3-1.3-0.4c1.5-5,6.2-8.7,11.8-8.7c6.8,0,12.3,5.5,12.3,12.3
		C118.3,333.8,113.5,339,107.2,339.6z"/>
</g>
</svg>
