<?xml version="1.0" encoding="utf-8"?>
<!-- Generator: Adobe Illustrator 19.2.1, SVG Export Plug-In . SVG Version: 6.00 Build 0)  -->
<svg version="1.1" id="layer" xmlns="http://www.w3.org/2000/svg" xmlns:xlink="http://www.w3.org/1999/xlink" x="0px" y="0px"
	 viewBox="0 0 652 652" style="enable-background:new 0 0 652 652;" xml:space="preserve">
<style type="text/css">
	.st0{fill:#3E606F;}
</style>
<g>
	<path class="st0" d="M176.8,247.7l0.4-1.9c1-3.5,2.3-5.7,4-6.8c1.7-1.1,5-1.6,10-1.6c1.6,0,2.7,0,3.5,0.1c0.7,0,1.4,0.1,1.9,0.2
		l1.5,0.2c6.3,0.7,10.9,1.7,13.5,3c2.7,1.3,4,3.1,4,5.5c0,0.1-0.1,0.5-0.2,1.2c-0.1,0.7-0.3,1.5-0.5,2.4l-0.4,1.7
		c-3,12.8-7.5,30.3-13.6,52.6c-6.1,22.3-9.2,36.5-9.2,42.5c0,2.6,0.8,4.7,2.5,6.4c1.7,1.7,3.8,2.5,6.4,2.5c7.3,0,15.9-18.7,25.9-56
		c5.5-20.7,10.2-37.6,14.1-50.6l0.4-1.5c1.2-3.8,2.7-6.5,4.5-8.2c1.9-1.6,4.5-2.4,7.9-2.4c0.9,0,2.1,0.1,3.6,0.2
		c1.4,0.1,2.9,0.4,4.3,0.6l1.2,0.2c6.4,1.2,10.7,2.4,12.8,3.7c2.1,1.3,3.1,3.3,3.1,5.8c0,0.8-0.1,1.6-0.2,2.5
		c-0.1,0.9-0.4,1.8-0.6,2.8l-0.6,2.1c-2.4,8.6-5.6,20.8-9.7,36.7c-7.4,28.1-13,47.4-16.9,58.1c-5.5,15-12.2,26-20,32.9
		c-7.9,6.9-17.5,10.4-29,10.4c-13,0-24-4.1-33.1-12.3c-9.1-8.2-13.6-18.2-13.6-30.1c0-8.2,2-21.6,6-40.2
		C164.4,291.4,169.9,270.7,176.8,247.7"/>
	<path class="st0" d="M512.1,259.6l0.4-1.2c1.8-6.3,4.1-13.8,7-22.4c2.8-8.7,4.5-14,4.8-16.1l0.2-1.4c0.5-2.8,2-4.8,4.5-6.1
		c2.5-1.2,6.5-1.8,12.2-1.8h1.3c5.6,0,9.6,0.5,12,1.6c2.5,1,3.7,2.7,3.7,5c0,0.6-0.1,1.3-0.2,2c-0.1,0.7-0.4,1.4-0.6,2l-0.4,1.1
		c0,0.1,0,0.2-0.1,0.3c-4.8,10.2-11.3,22.6-19.6,37.4l-0.6,1.1c-1.7,2.9-3.4,4.8-5.2,5.8c-1.8,1-4.7,1.5-8.5,1.5h-1.6
		c-3.2,0-5.6-0.5-7.2-1.4c-1.7-0.9-2.5-2.3-2.5-4.1v-0.4C511.6,261.7,511.8,260.7,512.1,259.6"/>
	<path class="st0" d="M329.3,339h-5.7c-1.9,0-3.4-0.3-4.7-1c-1.3-0.6-1.9-1.4-1.9-2.4c0-1,0.1-2.2,0.3-3.6c0.2-1.4,0.8-3.8,1.6-7.2
		l0.4-1.5c1.7-7.1,3.4-11.8,5-14.1c1.6-2.2,4.4-3.5,8.3-3.7h2.3h0.3c2.8-0.1,6.1-0.2,9.8-0.2c9.2,0,17.9,0.1,26,0.3
		c1,0.1,1.6,0.1,1.7,0.1l2.3,0.2c2.8,0.2,4.9,0.9,6.2,2c1.3,1.1,1.9,2.8,1.9,5c0,0.9-0.1,2.2-0.4,3.7c-0.3,1.5-0.6,3.2-1.1,5.2
		l-0.2,1c-0.3,0.9-0.6,2.3-1.1,4c-2.1,8.1-5.3,12.1-9.6,12.1c-0.2,0-0.6,0-1-0.1c-0.5-0.1-0.8-0.1-1.1-0.1
		c-4.8,17.4-11.9,30.8-21.5,40.3c-9.6,9.5-20.8,14.2-33.6,14.2c-13.4,0-24.2-4.9-32.2-14.8c-8.1-9.8-12.1-23.1-12.1-39.8
		c0-11.3,1.8-23.3,5.4-36c3.6-12.7,8.3-23.6,14.1-32.9c6.7-10.7,14.7-18.8,24.1-24.5c9.3-5.7,19.4-8.5,30.2-8.5
		c13,0,23.1,3.4,30.3,10.2c7.2,6.8,10.9,16.3,10.9,28.5c0,5.1-0.9,8.7-2.8,10.7c-1.8,2-7,3.9-15.4,5.5l-0.6,0.2
		c-1.5,0.3-3.2,0.5-5.1,0.6c-1.9,0.1-4.1,0.2-6.5,0.2c-3.2,0-5.7-0.4-7.2-1.3c-1.6-0.9-2.4-2.2-2.4-4c0-0.7,0.2-1.8,0.6-3.2
		c0.4-1.4,0.6-2.5,0.6-3.3c0-2.5-0.7-4.5-2.1-5.9c-1.4-1.4-3.3-2.2-5.7-2.2c-2.5,0-5,1-7.7,3.1c-2.7,2.1-5.2,5.1-7.6,9
		c-4.3,6.6-8,15.5-11.1,26.5c-3.1,11-4.7,20.8-4.7,29.4c0,4.8,0.7,8.5,2.2,11.1c1.5,2.6,3.6,3.8,6.4,3.8c3,0,5.9-1.6,8.7-4.8
		C326.4,348,328.3,344,329.3,339"/>
	<path class="st0" d="M465.9,256.5l16.3-12.9c1.7-1.4,3.1-2.3,4-2.7c0.9-0.4,1.8-0.6,2.7-0.6c4.6,0,8.6,4.4,11.8,13.1
		c3.3,8.7,4.9,19.9,4.9,33.4c0,12.9-1.4,25.2-4.1,36.9c-2.7,11.7-6.7,22.4-12,32c-6.7,12.3-14.6,21.8-23.7,28.5
		c-9.1,6.7-18.6,10.1-28.5,10.1c-13.2,0-23.8-5.3-31.9-16c-8-10.6-12.1-24.8-12.1-42.4c0-11.8,1.9-23.5,5.7-35.3
		c3.8-11.8,9.1-22.4,15.8-31.8c6.6-9.4,14.1-16.8,22.3-22.3c8.3-5.5,15.9-8.3,22.9-8.3c2.5,0,4.4,0.6,5.8,1.7
		c1.4,1.1,2.1,2.7,2.1,4.7c0,0.4,0,0.7-0.1,0.9c0,0.3-0.1,0.5-0.2,0.7L465.9,256.5z M464,266.9l-1.7,6.6c-0.6,2.5-2.3,4.7-5.1,6.6
		c-0.4,0.3-0.8,0.5-1.1,0.8c-8.2,6.1-14.5,14.2-19.1,24.3c-4.6,10.2-6.9,21.3-6.9,33.3c0,5.9,0.9,10.6,2.6,14.1s4.1,5.2,7.1,5.2
		c6.6,0,12.8-6.8,18.8-20.4c5.9-13.6,8.9-29.9,8.9-48.7c0-4.4-0.3-8.4-0.9-12C466.1,273.1,465.2,269.9,464,266.9"/>
	<path class="st0" d="M548.3,355.7c5.3-0.1,9.1-1.1,11.6-2.8c2.5-1.7,3.7-4.4,3.7-8.1c0-2.6-0.8-5.7-2.3-9.3
		c-1.6-3.6-4.1-8.3-7.7-14c-0.7-1.2-1.8-2.8-3.1-5c-9.1-14.3-13.6-25.1-13.6-32.2c0-13.1,6.6-24.2,19.8-33.5
		c13.2-9.3,29.8-13.9,49.8-13.9c7.4,0,12.4,1,15.1,3c2.7,2,4.1,5.6,4.1,11c0,1.7-0.1,3.7-0.4,6.1c-0.3,2.4-0.4,3.8-0.4,4.3l-0.2,1.3
		c-0.5,7.1-1.9,12.1-4.3,15.1c-2.4,3-6.5,4.7-12.3,5.1L606,283c-1.7,0.1-3.3,0.1-4.7,0.2c-1.4,0-2.7,0.1-3.7,0.1
		c-1.9,0-3.3-0.3-4.3-0.9c-1-0.6-1.5-1.4-1.5-2.5v-0.6l1.1-6c-5.3,0.2-9.6,1.3-13.1,3.2s-5.2,4.1-5.2,6.5c0,1.1,0.3,2.3,0.8,3.6
		c0.5,1.3,1.5,2.9,2.8,4.9c0.9,1.4,2.3,3.5,4,6.3c13.1,20,19.7,35.7,19.7,47.3c0,14.9-5.6,26.5-16.7,35
		c-11.1,8.5-26.6,12.7-46.2,12.7c-9.1,0-15.7-1.3-20-3.8c-4.2-2.6-6.3-6.6-6.3-12.2c0-1.1,0.1-2.5,0.2-4.2c0.1-1.7,0.4-3.6,0.6-5.7
		l0.2-1.6l0.1-1c1.7-13.1,7.6-20.4,17.6-22.2l1.2-0.4c0.7-0.1,1.9-0.3,3.6-0.4c1.7-0.1,3.5-0.2,5.6-0.2c2.5,0,4.5,0.5,5.9,1.4
		c1.4,0.9,2.1,2.2,2.1,3.8v1.1L548.3,355.7z"/>
	<path class="st0" d="M37.9,335.5h-5.4c-1.2,0-2.1-0.6-2.8-1.7c-0.6-1.1-0.9-2.8-0.9-4.9c0-1.2,0.4-3.7,1.2-7.7
		c0.4-1.6,0.6-2.8,0.8-3.7L31,316c1.4-6.1,2.8-10.2,4.4-12.5c1.5-2.3,3.7-3.6,6.5-3.9l4.8-0.2c1.7-5.6,3.7-13.4,6.3-23.3
		c4.2-15.9,7.4-26.6,9.5-31.9l1.3-3c0.5-1.3,1.5-2.3,3-3.1c1.5-0.8,3.4-1.1,5.6-1.1c1.4,0,2.8,0.1,4.4,0.3c1.6,0.2,3.4,0.5,5.3,1
		l1.8,0.4c6.1,1.6,10,3.1,11.7,4.5c1.7,1.4,2.5,3.6,2.5,6.7c0,0.4,0,0.8-0.1,1.2c-0.1,0.4-0.1,0.7-0.2,1l-0.9,3.2
		c-0.6,2.7-2.3,9-5.1,19c-2.9,10-5.2,18.4-7,25.3h26.3c3-12,5.7-22.6,7.9-32c2.2-9.4,4-17.2,5.4-23.6l0.4-2.2c0.4-1.6,1-2.7,2.1-3.4
		c1-0.7,2.6-1,4.7-1c1.2,0,2.7,0.1,4.4,0.2c1.7,0.1,3.6,0.4,5.6,0.6l1.7,0.2c6.3,1,10.9,2.4,13.6,4.1c2.7,1.7,4.1,4.1,4.1,7
		c0,0.4,0,0.8-0.1,1c0,0.3-0.1,0.5-0.2,0.7l-0.4,1.5c-0.8,4.5-2,10.3-3.5,17.4c-1.6,7.1-3.5,15.5-5.8,25c-5,21.1-9.7,40.1-14.1,57
		c-4.3,16.9-7,26.9-8.1,30.2l-0.9,2.9c-0.8,2.5-2.2,4.3-4.2,5.6c-2,1.3-4.5,1.9-7.5,1.9c-1.4,0-2.7,0-4.1-0.1
		c-1.3-0.1-2.7-0.2-4.2-0.3l-1.8-0.2c-5.6-0.6-9.5-1.6-11.9-3.1c-2.4-1.5-3.6-3.7-3.6-6.5c0-0.3,0-0.7,0.1-1.2
		c0.1-0.5,0.2-1.2,0.3-2.1l0.6-3.2c0.4-1.8,2.5-10.4,6.5-25.9c3.5-13.8,6.5-25.4,8.9-34.7l-10.5,16.1c-1.1,1.7-2.1,2.7-3,3.2
		c-0.9,0.5-2.1,0.8-3.6,0.8h-14c-2.1,7.4-4.6,18-7.5,31.7c-1.2,5.8-2.1,10.1-2.7,12.9l-0.8,3.4c-0.7,3.2-2,5.5-3.8,6.9
		c-1.8,1.4-4.4,2.2-7.7,2.2c-1.5,0-3,0-4.3-0.1c-1.4-0.1-2.8-0.2-4.3-0.3l-1.7-0.3c-5.6-0.5-9.7-1.5-12.1-2.9
		c-2.5-1.4-3.7-3.6-3.7-6.4c0-0.6,0.1-1.2,0.2-1.9c0.1-0.7,0.3-1.4,0.5-2.2l0.4-2.4c0.3-0.9,1.5-6.1,3.5-15.4
		C34.3,351.5,36.2,343.1,37.9,335.5"/>
	<path class="st0" d="M58.7,415.3c-0.3,0.5-0.6,2-1.1,4.5c-0.5,2.6-0.7,4.7-0.7,6.4c1-0.2,1.9-0.3,3-0.4l4.4-0.5
		c0.7-0.1,1.7-0.3,2.9-0.6c1.3-0.3,2.1-0.5,2.6-0.5c1.6,0,2.5,0.7,2.5,2c0,0.3-0.2,0.6-0.7,1c-0.5,0.4-1.1,0.7-1.9,0.9
		c-0.8,0.2-2.6,0.4-5.6,0.7c-3.6,0.4-5.7,0.7-6.4,0.9c-0.7,0.2-1.1,0.4-1.2,0.6c-0.1,0.2-0.3,1.2-0.4,3c-0.1,1.8-0.2,3.3-0.2,4.4
		l0.1,2.6c0,1.4-0.5,2.1-1.5,2.1c-0.6,0-1.2-0.2-1.8-0.7c-0.5-0.5-0.8-1.1-0.8-2c0-3.2,0.8-10,2.4-20.3c0.4-2.4,0.6-3.7,0.6-3.9
		c0-0.3-0.1-0.7-0.2-1.2c-0.2-0.7-0.3-1.2-0.3-1.4c0-0.4,0.2-0.8,0.6-1.2c0.4-0.4,0.8-0.7,1.2-0.7l2.7,0.3c0.8,0,2.4-0.1,4.7-0.4
		c3.9-0.5,6.6-0.7,8.1-0.7c1.3,0,2.2,0.2,2.7,0.6c0.6,0.4,0.8,0.8,0.8,1.1c0,0.7-0.2,1.2-0.7,1.7c-0.5,0.5-0.9,0.7-1.4,0.7
		c-0.2,0-0.5,0-0.8-0.1c-1.5-0.3-2.7-0.4-3.5-0.4c-1.5,0-3.4,0.1-5.8,0.4C60.5,414.7,59.1,415,58.7,415.3"/>
	<path class="st0" d="M92.6,410.9c0.1,0.1,0.2,0.4,0.2,1c0,0.6-0.1,1-0.2,1.4l0.3,0.9c0.5,1.6,0.9,3,1.4,4c0.6,1.4,1.1,2.9,1.6,4.6
		c1.2,3.7,2.5,6.9,3.9,9.6c1.3,2.7,2.6,4.5,3.7,5.6c0.7,0.7,1.1,1.1,1.3,1.4c0.2,0.3,0.3,0.6,0.3,0.9c0,0.6-0.2,1.1-0.6,1.6
		c-0.4,0.4-0.9,0.6-1.5,0.6c-1.8,0-3.9-2.8-6.4-8.4c-1-2.2-1.6-3.3-1.8-3.3c-0.7,0-2.1,0.2-4.3,0.6c-2.2,0.4-4.2,0.9-6,1.4
		c-1,0.3-1.7,0.5-2,0.5c-0.3,0-0.7-0.2-1.1-0.5c-0.1-0.1-0.2-0.1-0.2-0.1c-0.3,0-1,0.9-2,2.7c-1.7,3-2.7,4.8-3.2,5.3
		c-0.4,0.6-0.9,0.9-1.4,0.9c-0.4,0-0.8-0.2-1.4-0.7c-0.5-0.4-0.8-0.9-0.8-1.3c0-0.4,0.2-1,0.7-1.8c0.5-0.8,1.5-2.3,3.1-4.6
		c2.7-4.1,5.1-7.9,6.9-11.4c3-5.7,4.9-9,5.7-10c0.8-1,1.4-1.5,1.9-1.5C91.5,410.1,92.2,410.4,92.6,410.9 M93.9,427.4
		c-0.5-1.1-1.2-3.1-2.1-6.1c-1-3.1-1.7-5.1-2-5.7c-0.8,1.6-1.9,3.9-3.5,6.8l-3.8,7.1c0.3-0.2,1.1-0.4,2.3-0.5c1-0.1,1.8-0.2,2.5-0.4
		C91.1,427.9,93.3,427.5,93.9,427.4"/>
	<path class="st0" d="M138.8,416.1c-1.4,1.5-3.5,4.3-6.4,8.2c-2.9,3.9-4.9,6.4-6.1,7.6c-1.2,1.1-2.1,1.7-2.9,1.7
		c-0.6,0-1.1-0.4-1.7-1.3c-0.5-0.9-1.2-2.6-2.1-5.2c-1.8-5.3-2.9-8.3-3.3-9.1c-0.2,0.5-0.4,1.2-0.6,2.3c-0.4,2.2-1,5-1.8,8.2
		c-1.4,6.2-2.2,10.3-2.4,12.3c0,0.3-0.3,0.5-0.7,0.8c-0.4,0.3-0.8,0.4-1,0.4c-0.5,0-1-0.2-1.4-0.7s-0.6-1-0.6-1.5
		c0-1.2,0.4-3.4,1.2-6.4l1.8-6.8c1.1-4.3,1.8-7.5,2.1-9.5s0.4-3.6,0.4-4.8c0-1.2,1-1.8,2.9-1.8c0.4,0,0.8,0.4,1.3,1.1
		c0.4,0.7,0.7,1.3,0.9,1.8c0.2,0.5,0.4,1.1,0.6,1.8l2.8,7.8c1.1,3.2,1.8,5,2,5.4c0.3,0.4,0.5,0.6,0.6,0.6c0.7-0.2,3.2-3.2,7.5-9.1
		c4.8-6.6,7.5-9.9,8.2-9.9c0.6,0,1.2,0.2,1.8,0.7c0.7,0.4,1,0.8,1,1.1c0,0.1-0.4,3.2-1.2,9.1c-0.3,2.2-0.6,4.9-0.8,7.9
		c-0.2,3.1-0.4,4.8-0.4,5.2c0,0.7,0.1,1.5,0.4,2.4c0.2,0.8,0.3,1.4,0.3,1.9c0,0.4-0.1,0.9-0.2,1.6c-0.1,0.7-0.4,1.1-0.9,1.3
		c-0.5,0.1-0.8,0.2-1.1,0.2c-1.5,0-2.2-1.2-2.2-3.6c0-2.2,0.5-7.6,1.4-16.3c0.1-0.7,0.1-1.1,0.1-1.3c0-0.1,0.1-0.6,0.3-1.4
		c0.1-0.7,0.2-1.3,0.2-1.7C138.9,416.6,138.9,416.3,138.8,416.1"/>
	<path class="st0" d="M157.1,413.1c-0.1,0.5-0.5,2.5-1.4,5.8c-0.4,1.6-0.7,2.9-0.8,4c-0.1,0.7-0.2,1.5-0.3,2.4
		c-0.6,3.6-0.8,6-0.8,7.3c0,2,0.1,3.9,0.4,5.8c0.1,1.1-0.1,1.9-0.6,2.4c-0.5,0.5-1.1,0.7-1.6,0.7c-0.7,0-1.3-0.4-1.6-1.3
		c-0.3-0.8-0.4-2.2-0.4-4.1c0-2,0.3-4.7,0.8-8.1c0.2-1.3,0.3-2.1,0.3-2.4c0-0.5,0.1-1,0.2-1.5c0.1-0.5,0.1-1,0.2-1.5
		c0.1-1.3,0.3-3,0.7-5.1c0.3-1.6,0.5-2.9,0.7-4.1c0.1-0.8,0.2-1.4,0.3-1.7c0.1-0.3,0.4-0.6,1-1c0.5-0.3,0.9-0.5,1.2-0.5
		c0.6,0,1,0.3,1.3,0.8C157,411.7,157.1,412.3,157.1,413.1"/>
	<path class="st0" d="M163.4,434.8c0-0.3,0.2-2,0.6-5.1c0.4-3.1,0.8-6.7,1.2-10.9c0.4-4.1,0.6-6.4,0.7-6.9c0.1-0.5,0.3-0.9,0.7-1.2
		c0.3-0.3,0.9-0.5,1.6-0.5c0.5,0,0.9,0.2,1.2,0.6c0.4,0.4,0.5,0.8,0.5,1.3c0,0.6-0.1,1.6-0.4,2.9c-0.4,1.8-0.9,5.6-1.6,11.2
		c-0.7,5.6-1,8.8-1,9.6c0,0.5,0.1,0.8,0.2,1c0.1,0.2,0.4,0.3,0.8,0.3c0.7,0,2.2-0.2,4.6-0.6c1.5-0.2,4.3-0.5,8.5-0.7
		c0.7,0,1.7-0.2,2.8-0.5c0.2-0.1,0.4-0.1,0.5-0.1c0.5,0,0.9,0.2,1.2,0.5c0.3,0.3,0.5,0.8,0.5,1.2c0,0.8-0.3,1.4-0.9,1.9
		c-0.6,0.5-1.3,0.7-2,0.7c-0.3,0-0.9,0-1.7-0.1c-0.9-0.1-1.5-0.1-2-0.1c-4.5,0-8.9,0.7-13.1,2.1c-0.7,0.2-1.3,0.4-1.9,0.4
		c-0.6,0-1.1-0.3-1.4-0.8c-0.3-0.5-0.5-1.1-0.5-1.6c0-0.3,0.1-1,0.4-2C163.1,436.3,163.3,435.4,163.4,434.8"/>
	<path class="st0" d="M198,426.2c-1.1-1.2-2.6-3-4.5-5.6c-1.3-1.8-2.3-3-2.9-3.6c-0.6-0.6-1.3-1.3-2.3-2.1c-1.3-1-2.1-1.7-2.4-2.1
		c-0.3-0.4-0.4-0.9-0.4-1.4c0-0.2,0.2-0.5,0.6-0.9c0.4-0.4,0.8-0.5,1.2-0.5c0.8,0,2,0.6,3.4,1.9c1.4,1.3,2.6,2.6,3.8,4
		c3.4,4.3,5.5,6.8,6.4,7.3c0.8-0.9,1.7-1.8,2.6-2.8c4.6-4.7,7.4-7.8,8.4-9.2c1.1-1.5,2.2-2.3,3.3-2.3c0.4,0,0.7,0.2,1,0.6
		c0.2,0.4,0.4,0.8,0.4,1.2c0,0.4-0.5,1.2-1.6,2.4c-1,1.2-3.8,4.2-8.3,8.9c-2.2,2.2-3.4,3.7-3.8,4.3c-0.4,0.7-0.7,2.5-1.1,5.7
		c-0.3,3.1-0.6,5.6-0.7,7.4c-0.1,1.1-0.2,1.7-0.3,1.8c-0.1,0.1-0.4,0.3-0.9,0.4c-0.4,0.1-0.8,0.2-1.1,0.2c-1,0-1.6-0.9-1.6-2.6
		c0-1.1,0.2-3,0.7-5.8c0.4-2.6,0.6-4.4,0.6-5.3C198.4,427.4,198.3,426.7,198,426.2"/>
	<path class="st0" d="M263.8,416.1c-1.4,1.5-3.5,4.3-6.4,8.2c-2.9,3.9-4.9,6.4-6.1,7.6c-1.2,1.1-2.1,1.7-2.9,1.7
		c-0.6,0-1.1-0.4-1.7-1.3c-0.5-0.9-1.2-2.6-2.1-5.2c-1.8-5.3-2.9-8.3-3.4-9.1c-0.2,0.5-0.4,1.2-0.6,2.3c-0.4,2.2-1,5-1.8,8.2
		c-1.4,6.2-2.2,10.3-2.4,12.3c0,0.3-0.3,0.5-0.7,0.8c-0.4,0.3-0.8,0.4-1,0.4c-0.5,0-1-0.2-1.4-0.7s-0.6-1-0.6-1.5
		c0-1.2,0.4-3.4,1.2-6.4l1.8-6.8c1.1-4.3,1.8-7.5,2.1-9.5s0.4-3.6,0.4-4.8c0-1.2,1-1.8,2.9-1.8c0.4,0,0.8,0.4,1.3,1.1
		c0.4,0.7,0.7,1.3,0.9,1.8c0.2,0.5,0.4,1.1,0.6,1.8l2.8,7.8c1.1,3.2,1.8,5,2,5.4c0.3,0.4,0.5,0.6,0.6,0.6c0.7-0.2,3.2-3.2,7.5-9.1
		c4.8-6.6,7.5-9.9,8.2-9.9c0.6,0,1.2,0.2,1.8,0.7c0.7,0.4,1,0.8,1,1.1c0,0.1-0.4,3.2-1.2,9.1c-0.3,2.2-0.6,4.9-0.8,7.9
		c-0.2,3.1-0.4,4.8-0.4,5.2c0,0.7,0.1,1.5,0.4,2.4c0.2,0.8,0.3,1.4,0.3,1.9c0,0.4-0.1,0.9-0.2,1.6c-0.1,0.7-0.4,1.1-0.9,1.3
		c-0.5,0.1-0.8,0.2-1.1,0.2c-1.5,0-2.2-1.2-2.2-3.6c0-2.2,0.5-7.6,1.4-16.3c0.1-0.7,0.1-1.1,0.1-1.3c0-0.1,0.1-0.6,0.2-1.4
		c0.1-0.7,0.2-1.3,0.2-1.7C263.9,416.6,263.9,416.3,263.8,416.1"/>
	<path class="st0" d="M291.1,410.9c0.1,0.1,0.2,0.4,0.2,1c0,0.6-0.1,1-0.2,1.4l0.3,0.9c0.5,1.6,0.9,3,1.4,4c0.6,1.4,1.1,2.9,1.6,4.6
		c1.2,3.7,2.5,6.9,3.9,9.6c1.3,2.7,2.6,4.5,3.7,5.6c0.7,0.7,1.1,1.1,1.3,1.4c0.2,0.3,0.3,0.6,0.3,0.9c0,0.6-0.2,1.1-0.6,1.6
		c-0.4,0.4-0.9,0.6-1.5,0.6c-1.8,0-3.9-2.8-6.4-8.4c-1-2.2-1.6-3.3-1.8-3.3c-0.7,0-2.1,0.2-4.3,0.6c-2.2,0.4-4.2,0.9-6,1.4
		c-1,0.3-1.7,0.5-2,0.5c-0.3,0-0.7-0.2-1.1-0.5c-0.1-0.1-0.2-0.1-0.2-0.1c-0.3,0-1,0.9-2,2.7c-1.7,3-2.7,4.8-3.2,5.3
		c-0.4,0.6-0.9,0.9-1.4,0.9c-0.4,0-0.8-0.2-1.4-0.7c-0.5-0.4-0.8-0.9-0.8-1.3c0-0.4,0.3-1,0.7-1.8c0.5-0.8,1.5-2.3,3.1-4.6
		c2.7-4.1,5.1-7.9,6.9-11.4c3-5.7,4.9-9,5.7-10c0.8-1,1.4-1.5,1.9-1.5C289.9,410.1,290.6,410.4,291.1,410.9 M292.4,427.4
		c-0.5-1.1-1.2-3.1-2.1-6.1c-1-3.1-1.7-5.1-2-5.7c-0.8,1.6-1.9,3.9-3.5,6.8l-3.8,7.1c0.3-0.2,1.1-0.4,2.3-0.5c1-0.1,1.8-0.2,2.5-0.4
		C289.5,427.9,291.7,427.5,292.4,427.4"/>
	<path class="st0" d="M313.2,411.3c4.1-0.7,7.1-1,8.9-1c2.9,0,5.3,0.7,7,2.1c1.7,1.4,2.6,3.1,2.6,5.2c0,2.1-0.9,4.1-2.8,5.9
		c-1.9,1.9-4.2,3.3-7,4.4c-0.3,0.1-0.5,0.3-0.5,0.4c0,0.2,1.4,1.5,4.3,3.7c2.9,2.2,5.5,4.1,7.9,5.5c0.7,0.4,1,1,1,1.6
		c0,0.4-0.2,0.9-0.7,1.3c-0.5,0.4-0.9,0.7-1.3,0.7c-0.8,0-2.1-0.7-3.9-2c-1.8-1.4-3.7-2.9-5.6-4.5c-4.2-3.5-6.5-5.3-7-5.3
		c-0.9,0-1.6-0.2-2-0.4c-0.4-0.2-0.6-0.7-0.6-1.3c0-0.5,0.3-1,0.7-1.4c0.5-0.4,1.1-0.6,1.8-0.6c0.2,0,0.6,0,1.1,0.1
		c0.5,0.1,0.9,0.1,1.1,0.1c1.1,0,3-0.8,5.7-2.5c2.7-1.7,4-3.6,4-5.8c0-1.2-0.6-2.2-1.8-3c-1.2-0.8-2.7-1.3-4.6-1.3
		c-1.4,0-2.8,0.1-4.2,0.3c-1.4,0.2-2.3,0.4-2.7,0.5c-0.4,0.1-0.7,0.5-0.9,1.1c-0.2,0.6-0.6,2.4-1.2,5.5c-0.6,3.1-1,6-1.3,8.8
		c-0.3,2.7-0.5,4.8-0.5,6.1c0,1,0.1,1.9,0.2,2.6c0.1,0.7,0.2,1.3,0.2,1.8c0,0.4-0.2,0.8-0.7,1.3c-0.4,0.4-0.9,0.7-1.4,0.7
		c-1.5,0-2.2-1.2-2.2-3.5c0-5.6,1-13,2.9-22.2c0.1-0.5,0.1-0.8,0.1-0.9c0-0.1,0-0.2-0.1-0.4c-0.6-0.9-0.8-1.5-0.8-1.7
		c0-0.5,0.3-1,0.8-1.4c0.5-0.4,1-0.6,1.4-0.6L313.2,411.3z"/>
	<path class="st0" d="M348.1,427.3c0.8,0.5,2.4,1.8,5,3.8c2.7,2.1,4.8,3.7,6.2,4.6c1.4,1,2.4,1.5,3,1.7c0.6,0.2,1.7,0.3,3.3,0.4
		c0.1,0.2,0.1,0.4,0.1,0.6c0,0.9-0.2,1.6-0.7,2.1c-0.5,0.5-1.1,0.7-1.9,0.7c-0.8,0-1.8-0.3-2.9-0.9c-1.1-0.6-3.2-2-6.1-4.2l-4.7-3.6
		c-1.6-1.3-3.1-2.2-4.6-2.9c-0.3-0.1-0.8,0.1-1.3,0.5c-0.4,0.9-0.7,2-0.9,3.3c-0.2,1.3-0.3,2.4-0.3,3.1c-0.2,3.8-1,5.7-2.4,5.7
		c-0.5,0-1-0.2-1.3-0.5c-0.3-0.4-0.5-0.8-0.5-1.3c0-0.4,0.1-1,0.3-1.7c0.4-1.7,1-6.7,1.7-15c0.2-2.5,0.6-5.1,0.9-7.7
		c0.4-2.6,0.7-4.1,0.9-4.6c0.2-0.5,0.4-0.8,0.8-1c0.3-0.2,0.6-0.3,0.9-0.3c1.3,0,1.9,0.8,1.9,2.4c-1,3.9-1.6,7.6-1.8,11
		c-0.1,1.1-0.2,2.1-0.3,3.2c0,0.1,0,0.1,0,0.2c0,0.1,0.1,0,0.2,0c0.1-0.1,0.6-0.4,1.3-0.9c0.7-0.6,1.5-1.2,2.4-1.9
		c0.9-0.7,1.6-1.4,2.1-1.9c0.3-0.4,0.7-0.8,1.3-1.3c1.7-1.5,3-2.8,3.8-3.7c0.8-0.9,1.6-2,2.3-3.2c1-1.8,1.7-2.7,2.2-2.7
		c0.5,0,1,0.3,1.5,0.8c0.5,0.5,0.8,1,0.8,1.6c0,1.3-2.1,3.8-6.3,7.5c-0.9,0.8-1.5,1.3-1.8,1.6C352.8,423.2,351,424.7,348.1,427.3"/>
	<path class="st0" d="M393.7,413.8c0,0-0.4,0-1.1,0c-0.7,0-1.4,0-2.2,0.2c-0.7,0.2-1.4,0.3-2,0.3c-0.4,0-0.8,0.1-1.3,0.2
		c-0.6,0.1-1.8,0.2-3.5,0.2c-2.6,0-4.3,0.2-5,0.5c-0.7,0.3-1.1,1-1.2,2c-0.1,0.8-0.2,1.6-0.4,2.5c-0.7,2.7-1,4.5-1,5.4l0.3,0
		c0.7,0,2,0,4-0.3c2-0.2,3.5-0.4,4.5-0.7c2-0.5,3.6-0.7,4.6-0.7c1.7,0,2.6,0.5,2.6,1.4c0,1.1-0.6,1.8-1.7,2.1
		c-1.2,0.3-3.6,0.6-7.2,1c-4.5,0.5-6.9,0.9-7.2,1.3c-0.3,0.4-0.6,1.7-0.9,3.8c-0.3,2.2-0.5,3.5-0.5,4.1v0.2c0.1,0.7,0.5,1.1,1.3,1.2
		l0.4,0c0.8,0,1.7,0,2.7-0.2l4-0.6c1.5-0.2,3-0.5,4.5-0.7c1.9-0.4,3.1-0.6,3.6-0.6c0.4,0,0.8,0.2,1.3,0.5c0.5,0.3,0.7,0.8,0.7,1.6
		c0,0.5-0.1,0.9-0.4,1.1c-1.4,0.6-3.2,1-5.5,1c-1.9,0.1-4.9,0.4-9,1c-2.1,0.3-3.4,0.5-4.1,0.5c-1.6,0-2.6-0.1-3-0.4
		c-0.4-0.3-0.7-0.9-0.7-1.9l-0.1-0.7v-0.1c0-0.2,0.1-0.7,0.4-1.4c0.3-1,0.8-2.9,1.2-5.6c0.5-2.8,0.8-4.9,0.9-6.6
		c0.1-0.6,0.2-1.2,0.3-2c0.6-3.3,0.9-5.9,0.9-7.9c0-0.1-0.1-0.4-0.4-0.8c-0.1-0.1-0.1-0.2-0.1-0.2c-0.1-0.3-0.2-0.6-0.3-0.8
		c-0.1-0.2-0.1-0.4-0.1-0.7v-0.2c0-0.3,0.2-0.6,0.6-0.8c0.4-0.2,0.7-0.4,1.1-0.4h0.1c0.6,0,1.2,0,2,0.1h0.1c0.3,0,1.9-0.1,4.6-0.4
		c2.8-0.3,6.1-0.7,9.9-1.4c0.4-0.1,0.6-0.1,0.7-0.1l0.3,0c1.1-0.1,1.8,0,2.2,0.3c0.4,0.3,0.7,0.8,0.8,1.7c0,0.4-0.2,0.8-0.5,1.1
		C394.2,413.6,393.9,413.8,393.7,413.8"/>
	<path class="st0" d="M396.8,415.4c-0.2-0.3-0.2-0.6-0.2-1c0-0.6,0.2-1,0.7-1.3c0.4-0.2,1.8-0.3,4-0.4c2.8,0,5.2-0.1,7.4-0.3
		c2.2-0.2,5.6-0.6,10.2-1.2c1.7-0.2,3.4-0.4,5-0.4c0.8,0,1.5,0,2.3,0.1c0.7,0.1,1.2,0.2,1.5,0.3c0.3,0.1,0.5,0.3,0.7,0.8
		c0.2,0.4,0.3,0.7,0.3,0.9c0,1-0.3,1.5-1,1.5c-0.5,0-1.1,0-1.9-0.1c-0.8-0.1-1.9-0.1-3.3-0.1c-1.4,0-3.1,0.1-5.1,0.3
		c-2,0.2-3.1,0.5-3.4,1c-0.2,0.5-0.6,3.2-1.1,8.1c-0.5,5-0.8,8.6-0.8,11.1c0,1.1,0.2,2.4,0.5,3.9c0.1,0.3,0.1,0.4,0.1,0.5
		c0,0.6-0.2,1.2-0.5,1.7c-0.3,0.5-0.7,0.7-1.2,0.7c-0.7,0-1.3-0.3-1.8-1c-0.5-0.7-0.7-2.6-0.7-5.8c0-3,0.6-8.9,1.7-17.7
		c0.1-0.5,0.1-0.7,0.1-0.7c0-0.5-0.3-0.7-0.8-0.7c-0.8,0-2.4,0.1-4.8,0.3c-2.3,0.2-4,0.3-5,0.3C398.2,416.1,397.3,415.8,396.8,415.4
		"/>
	<path class="st0" d="M430.7,416c-0.8-0.3-1.2-1-1.2-2.1c0-0.9,1.8-1.8,5.5-2.6c3.7-0.9,6.9-1.3,9.6-1.3c3,0,5.4,0.6,7.2,1.9
		c1.8,1.2,2.7,2.9,2.7,5c0,3.1-1.7,5.8-5.1,8.2c-3.4,2.4-7.9,4.2-13.7,5.3c-1.5,0.3-2.4,0.6-2.5,0.8c-0.2,0.2-0.3,1.4-0.4,3.7
		c-0.1,2.3-0.2,3.8-0.2,4.7c0,0.6-0.2,1.2-0.6,1.7c-0.4,0.5-0.9,0.7-1.4,0.7c-1.2,0-1.8-0.8-1.8-2.5c0-0.9,0.3-3.4,0.7-7.5l1.5-12.3
		c0-0.2,0.1-0.8,0-1.8C431.1,416.8,430.9,416.2,430.7,416 M435.1,414.8c-0.1,0.4-0.2,1.1-0.3,2.2c-0.2,1.9-0.4,4.1-0.7,6.4
		c-0.2,1.2-0.3,2.5-0.4,4c4.6-0.6,8.6-1.9,12.2-3.8c3.5-1.9,5.3-4,5.3-6.3c0-2.8-2.2-4.2-6.6-4.2
		C441.6,412.9,438.5,413.6,435.1,414.8"/>
	<path class="st0" d="M458.7,434.8c0-0.3,0.2-2,0.6-5.1c0.4-3.1,0.8-6.7,1.2-10.9c0.4-4.1,0.6-6.4,0.7-6.9c0.1-0.5,0.3-0.9,0.7-1.2
		c0.3-0.3,0.9-0.5,1.6-0.5c0.5,0,0.9,0.2,1.2,0.6c0.4,0.4,0.5,0.8,0.5,1.3c0,0.6-0.1,1.6-0.4,2.9c-0.4,1.8-0.9,5.6-1.6,11.2
		c-0.7,5.6-1,8.8-1,9.6c0,0.5,0.1,0.8,0.2,1c0.1,0.2,0.4,0.3,0.8,0.3c0.7,0,2.2-0.2,4.6-0.6c1.5-0.2,4.3-0.5,8.5-0.7
		c0.7,0,1.7-0.2,2.8-0.5c0.2-0.1,0.4-0.1,0.5-0.1c0.5,0,0.9,0.2,1.2,0.5c0.3,0.3,0.5,0.8,0.5,1.2c0,0.8-0.3,1.4-0.9,1.9
		c-0.6,0.5-1.3,0.7-2,0.7c-0.3,0-0.9,0-1.7-0.1c-0.9-0.1-1.5-0.1-2-0.1c-4.5,0-8.9,0.7-13.1,2.1c-0.7,0.2-1.3,0.4-1.9,0.4
		c-0.6,0-1.1-0.3-1.4-0.8c-0.3-0.5-0.5-1.1-0.5-1.6c0-0.3,0.1-1,0.4-2C458.4,436.3,458.6,435.4,458.7,434.8"/>
	<path class="st0" d="M503.3,410.9c0.1,0.1,0.2,0.4,0.2,1c0,0.6-0.1,1-0.2,1.4l0.3,0.9c0.5,1.6,0.9,3,1.4,4c0.6,1.4,1.1,2.9,1.6,4.6
		c1.2,3.7,2.5,6.9,3.9,9.6c1.3,2.7,2.6,4.5,3.7,5.6c0.7,0.7,1.1,1.1,1.3,1.4c0.2,0.3,0.3,0.6,0.3,0.9c0,0.6-0.2,1.1-0.6,1.6
		c-0.4,0.4-0.9,0.6-1.5,0.6c-1.8,0-3.9-2.8-6.4-8.4c-1-2.2-1.6-3.3-1.8-3.3c-0.7,0-2.1,0.2-4.3,0.6c-2.2,0.4-4.2,0.9-6,1.4
		c-1,0.3-1.7,0.5-2,0.5c-0.3,0-0.7-0.2-1.1-0.5c-0.1-0.1-0.2-0.1-0.2-0.1c-0.3,0-1,0.9-2,2.7c-1.7,3-2.7,4.8-3.2,5.3
		c-0.4,0.6-0.9,0.9-1.4,0.9c-0.4,0-0.8-0.2-1.3-0.7c-0.5-0.4-0.8-0.9-0.8-1.3c0-0.4,0.2-1,0.7-1.8c0.5-0.8,1.5-2.3,3.1-4.6
		c2.7-4.1,5.1-7.9,6.9-11.4c3-5.7,4.9-9,5.7-10c0.8-1,1.4-1.5,1.8-1.5C502.2,410.1,502.9,410.4,503.3,410.9 M504.6,427.4
		c-0.5-1.1-1.2-3.1-2.1-6.1c-1-3.1-1.7-5.1-2-5.7c-0.8,1.6-1.9,3.9-3.5,6.8l-3.8,7.1c0.3-0.2,1.1-0.4,2.3-0.5c1-0.1,1.8-0.2,2.5-0.4
		C501.8,427.9,504,427.5,504.6,427.4"/>
	<path class="st0" d="M540.4,434.4c0.5,0,0.8,0.3,0.8,1c0,0.7-0.8,1.7-2.3,3c-1.5,1.3-3.3,2.3-5.3,3.1c-2,0.8-3.9,1.1-5.5,1.1
		c-2.5,0-4.7-0.8-6.7-2.4c-2-1.6-3-4-3-7.1c0-5.6,2.4-11.1,7.3-16.4c4.8-5.3,9.5-8,14-8c1.7,0,3,0.5,4,1.6c1,1,1.5,2.2,1.5,3.6
		c0,1.3-0.1,2.3-0.2,3c-0.1,0.7-0.6,1.4-1.3,1.9c-0.7,0.5-1.3,0.8-1.8,0.8c-0.3,0-0.6-0.1-0.8-0.4c-0.2-0.3-0.4-0.7-0.4-1.1
		c0-0.3,0.1-1,0.4-2c0.2-1,0.4-1.7,0.4-2.2c0-1.4-0.6-2.1-1.9-2.1c-1.9,0-4.3,1.1-7.1,3.3c-2.8,2.2-5.2,5-7.2,8.4
		c-2,3.4-3,6.5-3,9.3c0,1.9,0.6,3.5,1.7,4.7c1.1,1.3,2.7,1.9,4.8,1.9c1.2,0,2.7-0.3,4.4-0.9c1.7-0.6,3.3-1.4,4.8-2.4
		C539.3,434.9,540.1,434.4,540.4,434.4"/>
	<path class="st0" d="M572.6,413.8c0,0-0.4,0-1.1,0c-0.7,0-1.4,0-2.2,0.2c-0.7,0.2-1.4,0.3-2,0.3c-0.4,0-0.8,0.1-1.3,0.2
		c-0.6,0.1-1.8,0.2-3.5,0.2c-2.6,0-4.3,0.2-5,0.5c-0.7,0.3-1.1,1-1.2,2c-0.1,0.8-0.2,1.6-0.4,2.5c-0.7,2.7-1,4.5-1,5.4l0.3,0
		c0.7,0,2,0,4-0.3c2-0.2,3.5-0.4,4.5-0.7c2-0.5,3.6-0.7,4.6-0.7c1.7,0,2.6,0.5,2.6,1.4c0,1.1-0.6,1.8-1.7,2.1
		c-1.2,0.3-3.6,0.6-7.3,1c-4.5,0.5-6.9,0.9-7.2,1.3c-0.3,0.4-0.6,1.7-0.9,3.8c-0.3,2.2-0.5,3.5-0.5,4.1v0.2c0.1,0.7,0.5,1.1,1.3,1.2
		l0.4,0c0.8,0,1.7,0,2.7-0.2l4-0.6c1.5-0.2,3-0.5,4.5-0.7c1.9-0.4,3.1-0.6,3.6-0.6c0.4,0,0.8,0.2,1.3,0.5c0.5,0.3,0.7,0.8,0.7,1.6
		c0,0.5-0.1,0.9-0.4,1.1c-1.4,0.6-3.2,1-5.5,1c-1.9,0.1-4.9,0.4-9,1c-2.1,0.3-3.4,0.5-4.1,0.5c-1.6,0-2.6-0.1-3-0.4
		c-0.4-0.3-0.7-0.9-0.7-1.9l-0.1-0.7v-0.1c0-0.2,0.1-0.7,0.4-1.4c0.3-1,0.8-2.9,1.2-5.6c0.5-2.8,0.8-4.9,0.9-6.6
		c0.1-0.6,0.2-1.2,0.3-2c0.6-3.3,0.9-5.9,0.9-7.9c0-0.1-0.1-0.4-0.4-0.8c-0.1-0.1-0.1-0.2-0.1-0.2c-0.1-0.3-0.2-0.6-0.3-0.8
		c-0.1-0.2-0.1-0.4-0.1-0.7v-0.2c0-0.3,0.2-0.6,0.6-0.8c0.4-0.2,0.7-0.4,1.1-0.4h0.1c0.6,0,1.2,0,2,0.1h0.1c0.3,0,1.9-0.1,4.6-0.4
		c2.8-0.3,6.1-0.7,9.9-1.4c0.4-0.1,0.6-0.1,0.7-0.1l0.3,0c1.1-0.1,1.8,0,2.2,0.3c0.4,0.3,0.7,0.8,0.8,1.7c0,0.4-0.2,0.8-0.5,1.1
		C573.1,413.6,572.8,413.8,572.6,413.8"/>
	<path class="st0" d="M35.2,426.2c0,2.7-2.2,4.9-4.9,4.9c-2.7,0-4.9-2.2-4.9-4.9c0-2.7,2.2-4.9,4.9-4.9
		C33.1,421.4,35.2,423.6,35.2,426.2"/>
	<path class="st0" d="M597.4,426.2c0,2.7-2.2,4.9-4.9,4.9c-2.7,0-4.9-2.2-4.9-4.9c0-2.7,2.2-4.9,4.9-4.9
		C595.2,421.4,597.4,423.6,597.4,426.2"/>
</g>
</svg>
