<?xml version="1.0" encoding="utf-8"?>
<!-- Generator: Adobe Illustrator 19.2.1, SVG Export Plug-In . SVG Version: 6.00 Build 0)  -->
<svg version="1.1" id="layer" xmlns="http://www.w3.org/2000/svg" xmlns:xlink="http://www.w3.org/1999/xlink" x="0px" y="0px"
	 viewBox="0 0 652 652" style="enable-background:new 0 0 652 652;" xml:space="preserve">
<style type="text/css">
	.st0{fill:#EC008C;}
	.st1{fill:#009B67;}
</style>
<rect x="208.5" y="390.3" class="st0" width="32.2" height="2.7"/>
<rect x="387.2" y="390.3" class="st0" width="32.2" height="2.7"/>
<polygon points="20,338.9 35.3,338.9 35.3,342 23.7,342 23.7,351.4 34.4,351.4 34.4,354.4 23.7,354.4 23.7,367.2 20,367.2 "/>
<g>
	<path d="M60.5,358.3l-2.9,8.9h-3.8l9.6-28.3h4.4l9.7,28.3h-3.9l-3-8.9H60.5z M69.8,355.4l-2.8-8.2c-0.6-1.8-1-3.5-1.4-5.2h-0.1
		c-0.4,1.6-0.8,3.4-1.4,5.1l-2.8,8.2H69.8z"/>
	<path d="M96.9,362.8c1.6,1.1,4,1.8,6.5,1.8c3.7,0,5.9-1.9,5.9-4.8c0-2.6-1.5-4.2-5.3-5.6c-4.6-1.7-7.5-4.1-7.5-8.1
		c0-4.4,3.7-7.7,9.1-7.7c2.9,0,5,0.7,6.2,1.4l-1,3c-0.9-0.5-2.8-1.3-5.3-1.3c-3.9,0-5.3,2.3-5.3,4.2c0,2.6,1.7,3.9,5.6,5.5
		c4.8,1.9,7.2,4.2,7.2,8.3c0,4.4-3.2,8.2-9.9,8.2c-2.7,0-5.7-0.8-7.2-1.8L96.9,362.8z"/>
	<polygon points="138.9,338.9 138.9,350.7 152.6,350.7 152.6,338.9 156.3,338.9 156.3,367.2 152.6,367.2 152.6,353.9 138.9,353.9 
		138.9,367.2 135.2,367.2 135.2,338.9 	"/>
	<rect x="179.8" y="338.9" width="3.7" height="28.3"/>
	<path d="M218.2,367.7c-7.5,0-12.7-5.8-12.7-14.4c0-9,5.5-14.9,13.1-14.9c7.8,0,12.8,5.9,12.8,14.3
		C231.3,362.5,225.4,367.7,218.2,367.7L218.2,367.7z M218.4,364.7c5.8,0,9.1-5.3,9.1-11.8c0-5.6-2.9-11.5-9-11.5
		c-6.1,0-9.1,5.7-9.1,11.8C209.3,359.2,212.5,364.7,218.4,364.7L218.4,364.7z"/>
	<path d="M253.3,367.2v-28.3h4l9,14.3c2.1,3.3,3.7,6.3,5,9.2l0.1,0c-0.3-3.8-0.4-7.2-0.4-11.6v-11.9h3.4v28.3h-3.7l-9-14.4
		c-2-3.1-3.9-6.4-5.3-9.5l-0.1,0c0.2,3.6,0.3,7,0.3,11.7v12.1H253.3z"/>
	<path d="M357.7,367.7c-7.5,0-12.7-5.8-12.7-14.4c0-9,5.5-14.9,13.1-14.9c7.8,0,12.8,5.9,12.8,14.3
		C370.9,362.5,364.9,367.7,357.7,367.7L357.7,367.7z M357.9,364.7c5.8,0,9.1-5.3,9.1-11.8c0-5.6-2.9-11.5-9-11.5
		c-6.1,0-9.1,5.7-9.1,11.8C348.8,359.2,352.1,364.7,357.9,364.7L357.9,364.7z"/>
	<path d="M396.5,338.7v16.8c0,6.3,2.8,9,6.6,9c4.2,0,6.9-2.8,6.9-9v-16.8h3.7v16.5c0,8.7-4.6,12.2-10.7,12.2
		c-5.8,0-10.2-3.3-10.2-12.1v-16.7H396.5z"/>
	<polygon points="442.6,342 434,342 434,338.9 454.9,338.9 454.9,342 446.3,342 446.3,367.2 442.6,367.2 	"/>
	<polygon points="475.2,338.9 478.9,338.9 478.9,364.1 491,364.1 491,367.2 475.2,367.2 	"/>
	<polygon points="526.9,353.9 516,353.9 516,364.1 528.2,364.1 528.2,367.2 512.3,367.2 512.3,338.9 527.6,338.9 527.6,342 516,342 
		516,350.9 526.9,350.9 	"/>
	<polygon points="555.6,342 547,342 547,338.9 567.9,338.9 567.9,342 559.3,342 559.3,367.2 555.6,367.2 	"/>
	<path d="M587.6,362.8c1.6,1.1,4,1.8,6.5,1.8c3.7,0,5.9-1.9,5.9-4.8c0-2.6-1.5-4.2-5.3-5.6c-4.6-1.7-7.5-4.1-7.5-8.1
		c0-4.4,3.7-7.7,9.2-7.7c2.9,0,5,0.7,6.2,1.4l-1,3c-0.9-0.5-2.8-1.3-5.3-1.3c-3.9,0-5.3,2.3-5.3,4.2c0,2.6,1.7,3.9,5.6,5.5
		c4.8,1.9,7.2,4.2,7.2,8.3c0,4.4-3.2,8.2-9.9,8.2c-2.7,0-5.7-0.8-7.2-1.8L587.6,362.8z"/>
	<path d="M313.6,307.2C313.6,307.2,313.6,307.2,313.6,307.2c16.7,0,30.4,3.5,30.4,7.8c0,4.3-13.6,7.8-30.5,7.8
		c-16.8,0-30.5-3.5-30.5-7.8c0-4.1,12-7.4,27.3-7.8c-17.2,0.4-30.7,4.2-30.7,8.8c0,4.9,15.2,8.9,34,8.9c18.7,0,33.9-4,33.9-8.9
		C347.6,311.1,332.3,307.2,313.6,307.2"/>
	<path d="M314.5,306.8C314.4,306.8,314.4,306.8,314.5,306.8c14.6-8.3,28.1-11.9,30.3-8.2c2.1,3.8-8,13.5-22.6,21.8
		c-14.6,8.3-28.2,12-30.4,8.2c-2-3.5,6.8-12.3,19.9-20.3c-14.8,8.9-24.6,18.8-22.4,22.8c2.4,4.3,17.6,0.2,33.9-9
		c16.3-9.2,27.6-20.2,25.2-24.5C345.9,293.5,330.8,297.5,314.5,306.8"/>
	<path d="M317.8,246.7c0,3.5-1.9,6.3-4.3,6.3c-2.4,0-4.3-2.8-4.3-6.3c0-3.5,1.9-6.3,4.3-6.3C315.9,240.4,317.8,243.2,317.8,246.7"/>
	<polygon class="st0" points="288.1,257.8 274.3,261.5 290.9,266.8 	"/>
	<polygon class="st1" points="295.9,279.1 282.1,282.9 298.7,288.2 	"/>
	<polygon class="st1" points="339.2,257.8 353,261.5 336.4,266.8 	"/>
	<polygon class="st0" points="331.4,279.1 345.2,282.9 328.6,288.2 	"/>
	<polygon class="st1" points="287.4,256.3 313.5,256.3 313.5,350.3 	"/>
	<polygon class="st0" points="339.7,256.3 313.5,256.3 313.5,350.3 	"/>
	<path d="M291.7,328.6c2.1,3.8,15.7,0.1,30.4-8.2c14.6-8.3,24.8-18.1,22.6-21.8l3.6-0.9c2.4,4.3-8.8,15.2-25.2,24.5
		c-16.3,9.3-31.5,13.3-33.9,9"/>
	<path d="M283,315c0,4.3,13.6,7.8,30.4,7.8c16.8,0,30.5-3.5,30.5-7.8l3.6,1c0,4.9-15.2,8.9-33.9,8.9c-18.7,0-34-4-34-8.9"/>
	<path d="M254.6,398.9c1.9,0,2.1-1.3,2.3-2.7l1.4-10.4c0.1-0.5,0.2-1.3,0.1-1.8c-0.1-1.1-1.3-1.2-2.1-1.2l0.1-0.8h6.7l-0.1,0.8
		c-2,0-2.1,1.3-2.3,2.7l-1.4,10.9c0,0.4-0.1,1.1-0.1,1.4c0.1,0.8,1.2,0.9,1.9,0.9c3.4,0,5.1-1.1,6.7-3.9l0.9,0.4l-1.4,4.3h-12.8
		L254.6,398.9z"/>
	<path d="M279.7,388h2.1l-1.2,5.1c-0.2,0.8-0.9,4.1-0.8,4.8c0,0.2,0.1,0.4,0.4,0.4c0.4,0,1.2-0.8,2-2.7l0.7,0.4
		c-1.2,2.6-2.1,4.1-3.4,4.1c-0.8,0-1.5-0.6-1.6-1.4c-0.1-0.6,0-1.1,0.1-1.6l-0.1,0c-0.5,1.6-1.5,3.1-3.5,3.1c-1.9,0-3-1.6-3.2-3.3
		c-0.5-3.5,2-9,5.9-9c1.1,0,1.8,0.4,2.3,1.4L279.7,388z M279,390.1c-0.1-0.7-0.5-1.3-1.3-1.3c-1.7,0-2.7,1.8-3.2,3.2
		c-0.5,1.3-1,3.8-0.8,5.3c0.1,0.7,0.6,1.5,1.4,1.5C277.4,398.8,279.3,392.2,279,390.1"/>
	<path d="M286,397.6c-0.1-0.6,0.3-1.2,1-1.2c1.7,0,1.2,2.6,3.2,2.6c1.1,0,1.7-0.7,1.5-1.7c-0.3-2.4-4.5-3-4.9-6.1
		c-0.2-1.8,1.3-3.4,3.4-3.4c1.3,0,3.2,0.8,3.4,2.3c0.1,0.6-0.3,1.1-1,1.1c-1.2,0-1.5-2.3-2.9-2.3c-0.8,0-1.2,0.9-1.1,1.7
		c0.3,2.2,4.4,2.9,4.9,6.1c0.2,1.7-1.1,3.5-3.6,3.5C288.1,400,286.2,398.9,286,397.6"/>
	<path d="M308.9,385.5c-0.3-1.9-0.3-2.6-2.4-2.6l0.1-0.8h7l-0.1,0.8c-1.8,0-2.5,0-2.3,1.9l1.6,11.2l5.4-10.6
		c0.2-0.4,0.6-1.1,0.5-1.6c-0.1-0.9-1-0.9-1.7-0.9l0.1-0.8h5.5l-0.1,0.8c-1.7,0-2.3,1.2-3,2.5l-7.5,14.7h-0.9L308.9,385.5z"/>
	<path d="M330.9,396.4c-0.8,1.7-2.4,3.6-4.5,3.6c-2.1,0-3.5-1.8-3.8-3.8c-0.4-3.2,2-8.5,5.5-8.5c1.2,0,2.4,0.8,2.6,2.1
		c0.4,3-3.5,5.1-5.8,5.9c0,0.4,0,0.7,0.1,1c0.2,1.8,0.9,2.1,1.7,2.1c1.5,0,2.9-1.7,3.5-2.9L330.9,396.4z M329.1,389.8
		c-0.1-0.5-0.4-1-0.9-1c-1.2,0-3.1,2.3-3.3,6.1C326.8,394.2,329.4,392,329.1,389.8"/>
	<path d="M336.7,395.5c-0.8-0.6-1.2-1.4-1.4-2.3c-0.3-2.6,1.5-5.5,4.2-5.5c0.9,0,1.6,0.3,2.3,0.9c0.5-0.5,1.3-1.2,2-1.2
		c0.6,0,1.3,0.4,1.4,1.1c0.1,0.7-0.4,1.1-1,1.1c-0.5,0-0.7-0.3-1-0.3c-0.2,0-0.4,0.1-0.6,0.2c0.4,0.6,0.5,1.1,0.6,1.8
		c0.3,2.5-1.4,5.2-4,5.2c-0.5,0-1-0.1-1.5-0.3c-0.2,0.2-0.8,0.6-0.7,0.8c0.1,1,6.3,0.6,6.7,4.1c0.4,2.7-2.9,3.4-5.1,3.4
		c-3.4,0-5.2-1.4-5.4-2.5c-0.2-1.5,1.6-2.3,2.7-2.8c-0.6-0.2-1.6-0.4-1.7-1.1c-0.1-0.7,0.7-1.2,1.1-1.5L336.7,395.5z M335.4,401.9
		c0.2,1.3,2.5,1.5,3.4,1.5c1,0,3.3-0.3,3.1-1.7c-0.2-1.5-3-1.8-4.1-2.1C337,399.9,335.2,400.8,335.4,401.9 M341.3,390.9
		c-0.1-0.8-0.5-2.1-1.6-2.1c-1.9,0-2.5,3.1-2.3,4.6c0.1,0.9,0.6,2.1,1.7,2.1C340,395.5,341.7,394.3,341.3,390.9"/>
	<path d="M356.6,388h2.1l-1.2,5.1c-0.2,0.8-0.9,4.1-0.8,4.8c0,0.2,0.1,0.4,0.4,0.4c0.4,0,1.2-0.8,2-2.7l0.7,0.4
		c-1.2,2.6-2.1,4.1-3.4,4.1c-0.8,0-1.5-0.6-1.6-1.4c-0.1-0.6,0-1.1,0.1-1.6l-0.1,0c-0.5,1.6-1.5,3.1-3.5,3.1c-1.9,0-3-1.6-3.2-3.3
		c-0.5-3.5,2-9,5.9-9c1.1,0,1.8,0.4,2.3,1.4L356.6,388z M355.9,390.1c-0.1-0.7-0.5-1.3-1.3-1.3c-1.7,0-2.7,1.8-3.2,3.2
		c-0.5,1.3-1,3.8-0.8,5.3c0.1,0.7,0.6,1.5,1.4,1.5C354.3,398.8,356.2,392.2,355.9,390.1"/>
	<path d="M362.9,397.6c-0.1-0.6,0.3-1.2,1-1.2c1.7,0,1.2,2.6,3.2,2.6c1.1,0,1.7-0.7,1.6-1.7c-0.3-2.4-4.5-3-4.9-6.1
		c-0.2-1.8,1.3-3.4,3.4-3.4c1.3,0,3.2,0.8,3.4,2.3c0.1,0.6-0.3,1.1-1,1.1c-1.2,0-1.5-2.3-2.9-2.3c-0.8,0-1.2,0.9-1.1,1.7
		c0.3,2.2,4.4,2.9,4.9,6.1c0.2,1.7-1.1,3.5-3.6,3.5C365,400,363,398.9,362.9,397.6"/>
	<path d="M612.8,334.4c0.2-0.4,0.5-0.8,0.8-1.2c0.3-0.3,0.7-0.6,1.2-0.8c0.5-0.2,0.9-0.3,1.4-0.3c0.5,0,1,0.1,1.4,0.3
		c0.4,0.2,0.8,0.4,1.2,0.8c0.3,0.3,0.6,0.7,0.8,1.2c0.2,0.4,0.3,0.9,0.3,1.5c0,0.5-0.1,1-0.3,1.5c-0.2,0.4-0.5,0.8-0.8,1.2
		c-0.3,0.3-0.7,0.6-1.2,0.8c-0.5,0.2-0.9,0.3-1.4,0.3c-0.5,0-1-0.1-1.4-0.3c-0.5-0.2-0.8-0.4-1.2-0.8c-0.3-0.3-0.6-0.7-0.8-1.2
		c-0.2-0.5-0.3-0.9-0.3-1.5C612.6,335.3,612.7,334.8,612.8,334.4 M613.5,337.1c0.2,0.4,0.4,0.7,0.6,1c0.3,0.3,0.6,0.5,1,0.7
		c0.4,0.2,0.8,0.2,1.2,0.2c0.4,0,0.8-0.1,1.2-0.2c0.4-0.2,0.7-0.4,1-0.7c0.3-0.3,0.5-0.6,0.6-1c0.2-0.4,0.2-0.8,0.2-1.3
		c0-0.4-0.1-0.9-0.2-1.2c-0.2-0.4-0.4-0.7-0.6-1c-0.3-0.3-0.6-0.5-1-0.7c-0.4-0.2-0.8-0.2-1.2-0.2c-0.4,0-0.8,0.1-1.2,0.2
		c-0.4,0.2-0.7,0.4-1,0.7c-0.3,0.3-0.5,0.6-0.6,1c-0.2,0.4-0.2,0.8-0.2,1.2C613.2,336.3,613.3,336.7,613.5,337.1 M616.5,333.7
		c0.5,0,0.9,0.1,1.1,0.3c0.2,0.2,0.4,0.5,0.4,0.9c0,0.4-0.1,0.7-0.3,0.9c-0.2,0.2-0.5,0.3-0.8,0.3l1.2,1.9h-0.7l-1.2-1.9h-0.7v1.9
		h-0.7v-4.3H616.5z M616.2,335.6c0.2,0,0.3,0,0.4,0c0.1,0,0.3,0,0.4-0.1c0.1,0,0.2-0.1,0.3-0.2c0.1-0.1,0.1-0.2,0.1-0.4
		c0-0.1,0-0.3-0.1-0.3c-0.1-0.1-0.1-0.2-0.2-0.2c-0.1,0-0.2-0.1-0.3-0.1c-0.1,0-0.2,0-0.3,0h-0.9v1.4H616.2z"/>
</g>
</svg>
