<?xml version="1.0" encoding="utf-8"?>
<!-- Generator: Adobe Illustrator 19.2.1, SVG Export Plug-In . SVG Version: 6.00 Build 0)  -->
<svg version="1.1" id="layer" xmlns="http://www.w3.org/2000/svg" xmlns:xlink="http://www.w3.org/1999/xlink" x="0px" y="0px"
	 viewBox="0 0 652 652" style="enable-background:new 0 0 652 652;" xml:space="preserve">
<style type="text/css">
	.st0{fill:#006CB9;}
	.st1{fill:#FFFFFF;}
	.st2{fill:#231815;}
</style>
<g>
	<path class="st0" d="M576.6,301.7c0,138.1-111.9,250-250,250c-138.1,0-250-111.9-250-250s111.9-250,250-250
		C464.7,51.7,576.6,163.6,576.6,301.7"/>
	<path class="st1" d="M571.2,301.7c0,135.1-109.5,244.6-244.6,244.6C191.5,546.3,82,436.8,82,301.7S191.5,57.1,326.6,57.1
		C461.7,57.1,571.2,166.6,571.2,301.7"/>
</g>
<polygon class="st0" points="573.4,324.8 79.7,324.8 89.9,374 565,374 "/>
<g>
	<path class="st2" d="M194.5,237.1c-1.5-6.4-2.1-9-4.1-12.2c-2.2-4.1-5.3-5.2-16.4-5.2h-12.9c-4.4,0-4.8,0.4-4.8,4.5v35.6h16.1
		c13.4,0,14.1-1.2,16.1-11.1h4.7V278h-4.7c-2.1-10.7-2.7-12.1-16.1-12.1h-16.1V293c0,12.7,1.4,13.4,15.7,14.4v4.7h-40.6v-4.7
		c12.3-0.8,13.6-1.7,13.6-14.4v-59.9c0-12.7-1.3-13.3-13.1-14.3v-4.6h66c0.1,6,0.9,15.2,1.4,22.4L194.5,237.1z"/>
	<path class="st2" d="M367.4,217.8c-16.4,0-32.4,13.5-32.4,42.2c0,28.3,16.2,48.5,37.5,48.5c17,0,32.5-13.5,32.5-42.6
		c0-31.9-17.6-48.1-37.4-48.1H367.4z M371,211.8c24.8,0,48.2,19.6,48.2,50.1c0,32.8-22.7,52.6-50.3,52.6
		c-26.1,0-48.3-20.8-48.3-50.1C320.7,236.9,339.9,211.8,371,211.8L371,211.8z"/>
	<path class="st2" d="M452,291.9c0,11.4,5,14.3,16.5,14.3c29.3,0,42.2-21.3,42.2-44.9c0-15-6-28.8-18.6-36c-6.8-4-15.7-5.6-25.5-5.6
		c-7.2,0-11.1,0.7-12.6,1.9c-1.5,1.2-2.1,2.6-2.1,8.4V291.9z M468.8,214.2c19.4,0,33.2,3.7,42.5,12.7c7.4,7.2,12.7,18.3,12.7,32.4
		c0,17.9-6.9,31.6-18.4,40.3c-11.4,8.7-25.8,12.4-44.3,12.4h-35.5v-4.6c13.3-0.9,14.5-1.6,14.5-14.3v-60c0-12.7-1.2-13.2-13-14.2
		v-4.7H468.8z"/>
	<path class="st1" d="M180.7,333.5v18.6c0,8.7-5.5,12.7-14.8,12.7s-14.8-4-14.8-12.7v-18.6h11.8v18.4c0,2.2,0.5,3.8,3,3.8
		c2.5,0,3-1.7,3-3.8v-18.4H180.7z"/>
</g>
<polygon class="st1" points="233.2,333.5 233.2,364.2 222,364.2 212.4,348.4 212.4,364.2 201.5,364.2 201.5,333.5 213.3,333.5 
	222.4,349.2 222.4,333.5 "/>
<rect x="254.4" y="333.5" class="st1" width="11.8" height="30.7"/>
<polygon class="st1" points="284.4,333.5 296.5,333.5 301.7,353.9 306.9,333.5 319,333.5 309.7,364.2 293.6,364.2 "/>
<polygon class="st1" points="348.7,342.1 348.7,344.8 360.8,344.8 360.8,352.8 348.7,352.8 348.7,355.6 362.5,355.6 362.5,364.2 
	337.2,364.2 337.2,333.5 362.5,333.5 362.5,342.1 "/>
<g>
	<path class="st1" d="M400.7,344.3c0-2.5-3.1-3.1-5.1-3.1c-0.5,0-1,0-1.4,0.1v6.1c0.3,0,0.6,0,1,0
		C397.3,347.4,400.7,347,400.7,344.3 M412.9,364.2h-11.7c-1.9-9.6-3.3-9.6-6.9-9.6v9.6h-11.4v-30.4c2.6-0.5,7.7-0.9,11.8-0.9
		c8.8,0,17.5,2.1,17.5,10.7c0,4.8-3.1,6.9-5.6,8C409.1,352.1,411.6,354.9,412.9,364.2"/>
	<path class="st1" d="M457.5,353.9c0,7.5-5.3,10.9-13.3,10.9c-5.5,0-9.3-1-12.7-2.3l1.9-8.3c2.9,1.4,5.8,2.5,10.1,2.5
		c2,0,2.5-0.5,2.5-1.1c0-2.3-14.5-0.4-14.4-12c0-6.9,5.3-10.6,13.1-10.6c4.3,0,8.4,0.8,11.7,1.8l-1.9,8.3c-2-0.9-5.5-1.8-9.1-1.8
		c-1.5,0-2.5,0.2-2.5,1.1C442.8,344.5,457.5,343,457.5,353.9"/>
</g>
<polygon class="st1" points="488.7,342.1 488.7,344.8 500.7,344.8 500.7,352.8 488.7,352.8 488.7,355.6 502.5,355.6 502.5,364.2 
	477.1,364.2 477.1,333.5 502.5,333.5 502.5,342.1 "/>
<g>
	<path class="st0" d="M246,284.9c-0.8,0-1.6-0.4-0.7-5.5c0.9-5.1,4.2-16.8,5.9-19.9c1.6-3.1,7.4-15.4,9.4-18.2
		c2-2.7,3.1-7.7,10.2-14.1c7.1-6.5,15.8-11.5,22.9-10.7c0,0,3.5-1.3,5.9-0.4c3,1.1,4.3,0.2,5.5,1.5c1.2,1.3,1.9,1.2,3.3,1.6
		c1.4,0.4,1.8,1.5,2.4,2.9c0.6,1.4,0.1,1.4,1,2.1c0.9,0.7,0.1,2.1,1,3.4c0.9,1.3,0.8,5.5,0.1,8c-0.7,2.4-2,4.9-2,6.1
		c0,1.1-0.8,1.9-1.3,2.8c-0.5,0.9-1.6,3.5-2.1,4.6c-0.5,1.1-2.3,4.3-3.1,3.6c-0.8-0.7-0.5-1.7,0.8-3c1.3-1.3,0.4-2.8,2.1-4.8
		c1.7-2,1.3-3.1,1.9-5.6c0.6-2.4-0.7-0.5-1.4,1.3c-0.7,1.8-1.8,4.3-1.9,5c-0.1,0.7-0.8,2.2-1.4,2.9c-0.6,0.7-0.8,3.4-2.1,4.8
		c-1.3,1.3-2.8,4.8-4.2,6c-1.4,1.2-3.8,6.7-6.4,10.1c-2.5,3.4-5.9,8.8-7.4,10c-1.4,1.2-3.7,3.6-4.7,4.5c-1,0.9-6.3,5.6-5.4,6.7
		c0.8,1.1,2-1.4,4.5-3.9c2.5-2.5,2.5-3.9,4.4-3.5c1.9,0.4-0.1,2.4-1.3,3.4c-1.2,1-4.1,5.4-5.4,5.7c-1.2,0.2-2.9,1.7-3.7,2.6
		c-0.8,0.9-2.8,2.6-2.8,0.1c0-2.5-1.5,0.2-2.8,0.9c-1.3,0.7-4.4,2.7-5.7,4.1c0,0,1.8-0.2,2.2,0.5c0.4,0.7-0.2,1.5-1.2,1.6
		c-1,0.1-2.9,3.4-4.8,3.4c-1.9,0-4.1,2.1-6.6,2.1c-2.4,0-4.4,1.6-6.4,2.3c-1.9,0.7-4.1,1.9-6.4,1.9c-2.2,0-3.8,2.2-6.3,0.9
		c-2.5-1.3-7.8-0.7-13.2-5.1c-5.5-4.4-9.2-9.5-10.1-15.6c-0.9-6.1-0.7-11.1,2.3-18.6c3-7.5,10.6-22.1,16.4-28.7
		c5.8-6.6,17-15,22.3-17.9c0,0,2-1.4,2.8-0.5c0.8,0.9,0,1.8-2.2,2.7c-2.2,0.9-8,5.6-8.9,6.6c-0.9,0.9-3.7,3.5-4.9,4
		c-1.2,0.5-7.9,7.5-11.8,13.3c-3.9,5.9-6.3,15.7-7.5,18.7c-1.2,2.9-2.1,8.9-1.5,12.1c0.6,3.2,1.8,4.1,1.1,5.8
		c-0.7,1.7-0.6,1.8,0.2,3c0.8,1.2,1.3,2.6,0.6,3.5c-0.7,0.9-0.5,2.3-1.5,1.9c-1-0.4-0.8-2.9-1.7-3.6c-0.9-0.7-2.6-2.1-2-5.1
		c0.6-3-0.2-3.9-0.5-4.6c-0.3-0.7-1.3-1.2-1.3,1c0,2.2,0.7,7.4,1.4,9.8c0.7,2.4,1.6,2.5,3.4,3.5c1.8,1,7.8,4.6,13.8,4.6
		c1.8,0,2,0,2-0.7c0-0.7-0.9-0.9-2.1-0.9c-1.2,0-3.8-0.9-4.7-1.5c-0.9-0.6-2.2-0.6-3.4-1.5c-1.2-0.9-2.5-1.3-0.6-2.3
		c1.9-1,1.7-0.1,2.8,0.7c1.1,0.8,3.2,1.7,4.4,2.5c1.2,0.8,4.4,0.5,5.7,1.1c1.3,0.6,3.4,0.5,4.5-0.5c1.1-1,3.6-0.9,4.9-0.8
		c1.3,0.1,2.9-0.2,4.5-0.8c1.6-0.6,3.4-0.7,5-0.7c1.6,0,4.5-0.9,5.7-2c1.2-1.1,2.6-1.1,4.3-2.2c1.7-1.1,4.5-2.2,6.1-3.5
		c1.6-1.3,2.7-3,4.8-4c2.1-1,4.5-4.6,6.6-6.8c2-2.1,3.4-4.5,6.9-8c3.4-3.4,2.9-5.3,4.3-7.3c1.4-1.9,5.4-10.4,8.3-16.1
		c2.8-5.8,3.6-12.2,3.6-18c0-5.7-2.6-8.7-7.5-8.7c-4.8,0-7.4,1.8-10,2.9c-2.6,1.1-6,4.3-8,5c-1.9,0.7-4,2.4-5.1,3.3
		c-1,0.9-3.3,3.3-4.3,5c-1.5,2.5-2.1,7.7-5.9,7.1c0,0-3.7,6.2-4.6,7.8c-0.9,1.5-4.7,8.1-6,11.6c-1.2,3.5-3.4,10.4-4.1,14.5
		C247,283.3,247.3,284.9,246,284.9"/>
	<path class="st2" d="M217.1,412.5v-11.4c0-0.5,0-1.3,0-1.3H217c0,0-0.3,0.6-0.6,1.1l-3.2,5.4h-0.1l-3.1-5.3
		c-0.2-0.4-0.6-1.2-0.6-1.2h-0.1c0,0,0,0.8,0,1.3v11.4H206v-18.6h3.8l2.8,5c0.2,0.4,0.6,1.2,0.6,1.2h0.1c0,0,0.4-0.7,0.6-1.2l2.8-5
		h3.8v18.6H217.1z"/>
	<path class="st2" d="M238.9,400.5c-0.1-0.5-0.3-1.6-0.3-1.6h-0.1c0,0-0.2,1.1-0.3,1.6l-1.2,6.1h3.1L238.9,400.5z M241.3,412.5
		l-0.6-2.9h-4.3l-0.6,2.9h-3.6l4.4-18.6h3.9l4.4,18.6H241.3z"/>
	<path class="st2" d="M261.4,403.5c2,0,2.9-1.3,2.9-3.1c0-1.9-1-3.1-3-3.1h-1.3v6.3H261.4z M264.4,412.5l-2.3-5.7
		c-0.3,0-0.5,0-0.8,0h-1.2v5.7h-3.5v-18.6h5.1c4.2,0,6,3.1,6,6.4c0,2-0.8,4.1-2.5,5.3l2.8,6.9H264.4z"/>
	<path class="st2" d="M288.5,412.5l-3-7.7h-0.1c0,0-0.5,0.9-1.1,1.9v5.8h-3.4v-18.6h3.4v7h0.1c0,0,0.3-0.8,0.6-1.2l3.4-5.8h4
		l-4.7,7.5l4.6,11.1H288.5z"/>
</g>
<polygon class="st2" points="304.1,412.5 304.1,393.9 314,393.9 314,397.3 307.6,397.3 307.6,402 313,402 313,405.3 307.6,405.3 
	307.6,409.2 314,409.2 314,412.5 "/>
<polygon class="st2" points="329.3,412.5 329.3,397.3 326,397.3 326,393.9 336,393.9 336,397.3 332.7,397.3 332.7,412.5 "/>
<g>
	<path class="st2" d="M353,404c2,0,2.9-1.6,2.9-3.4c0-1.9-1-3.4-3-3.4h-1.3v6.8H353z M348.2,412.5v-18.6h5.1c4.2,0,6,3.4,6,6.6
		c0,3.2-2,6.8-6.5,6.8h-1.2v5.2H348.2z"/>
</g>
<polygon class="st2" points="371.5,412.5 371.5,393.9 374.9,393.9 374.9,409.2 380.3,409.2 380.3,412.5 "/>
<g>
	<path class="st2" d="M397.1,400.5c-0.1-0.5-0.3-1.6-0.3-1.6h-0.1c0,0-0.2,1.1-0.3,1.6l-1.2,6.1h3.1L397.1,400.5z M399.5,412.5
		l-0.6-2.9h-4.3l-0.6,2.9h-3.6l4.4-18.6h3.9l4.4,18.6H399.5z"/>
	<path class="st2" d="M425.4,409.1c-0.9,2.2-2.7,3.7-5.5,3.7c-5.1,0-6.5-4.7-6.5-9.6c0-4.8,1.4-9.5,6.5-9.5c3,0,4.8,1.7,5.7,4
		l-3,1.9c-0.4-1.5-1.3-2.5-2.7-2.5c-2.4,0-3.1,2.9-3.1,6.2c0,3.3,0.7,6.2,3.1,6.2c1.3,0,2.1-0.9,2.6-2.3L425.4,409.1z"/>
</g>
<polygon class="st2" points="437.5,412.5 437.5,393.9 447.4,393.9 447.4,397.3 441,397.3 441,402 446.4,402 446.4,405.3 441,405.3 
	441,409.2 447.4,409.2 447.4,412.5 "/>
</svg>
