<?xml version="1.0" encoding="utf-8"?>
<!-- Generator: Adobe Illustrator 19.2.1, SVG Export Plug-In . SVG Version: 6.00 Build 0)  -->
<svg version="1.1" id="layer" xmlns="http://www.w3.org/2000/svg" xmlns:xlink="http://www.w3.org/1999/xlink" x="0px" y="0px"
	 viewBox="0 0 652 652" style="enable-background:new 0 0 652 652;" xml:space="preserve">
<style type="text/css">
	.st0{fill:#5C2483;}
</style>
<g>
	<polygon class="st0" points="537.7,575 537.7,576.4 114.1,576.4 114.1,76.4 539.1,76.4 539.1,576.4 537.7,576.4 537.7,575 
		536.2,575 536.2,79.3 117,79.3 117,573.5 537.7,573.5 537.7,575 536.2,575 	"/>
	<g>
		<path class="st0" d="M238.3,389.9h-9.7v59.2h26.8v-9.2h-17.1V389.9z M291.4,389.9h-36.5v9.2h13.4v50.1h9.7V399h13.4V389.9z
			 M367.7,424.1c7.6-1.9,12.7-8.5,12.6-16.7c0-5.6-2.8-11.1-7.2-14c-3.8-2.5-8.1-3.5-15.6-3.5h-10.7v59.2h9.7v-23.9h0.9l16.6,23.9
			h11.8l-0.5-0.7L367.7,424.1z M358.8,416.6h-2.4V399h2.7c7.9,0.1,11.7,2.9,11.7,8.5C370.9,413.5,366.9,416.6,358.8,416.6
			 M390.4,449.1h33v-9.2h-23.3v-18.6h22.6v-9.2h-22.6V399h23.3v-9.2h-33V449.1z M459.6,389.9h-3.9l-0.1,0.2l-27.4,59h10.4l6.5-14.2
			h24.4l6.1,14.2h10.6L459.6,389.9z M449.2,425.8l8.3-18.3l8,18.3H449.2z M313.9,389.9l-0.1,0.2l-27.5,59h10.4l6.6-14.2h24.4
			l6.1,14.2h10.6l-26.5-59.2H313.9z M307.4,425.8l8.4-18.3l8,18.3H307.4z"/>
	</g>
	<path class="st0" d="M198.6,389.9h-3.9l-0.1,0.2l-27.4,59h10.4l6.6-14.2h24.4l6.1,14.2h10.6L198.6,389.9z M204.6,425.8h-16.4
		l8.3-18.3L204.6,425.8z"/>
	<g>
		<path class="st0" d="M409.7,355.8c1.2,2.2,3.3,2.7,4.6,2.8h41.5l-96.3-207c-9.6-21.6-34.9-22.2-37-22.2h-18.1L409.7,355.8z"/>
		<path class="st0" d="M307.1,219.6l-22.4-48.1l-87.1,187.1h41.5c1.3-0.1,3.4-0.6,4.6-2.8L307.1,219.6z"/>
		<path class="st0" d="M178.3,525.2c-17.3,0-30.7-13.5-30.8-30.9c0-16.6,14.1-30.6,30.8-30.6c6.2,0,10.4,1.2,15.9,4.4l0.2,0.1v10.7
			v0.9l-0.7-0.6c-5.5-4.5-9.8-6.2-15.6-6.3c-11.7,0-20.9,9.6-20.9,21.7c0,12.2,9.2,21.4,21.3,21.4c5.3,0,9.7-1.9,15.2-6.5l0.7-0.6
			v11.7l-0.2,0.1C188.9,523.8,183.8,525.2,178.3,525.2L178.3,525.2z"/>
		<path class="st0" d="M199.4,494.7c0-17.1,13.9-30.9,31-31c17,0,30.8,13.8,30.8,30.8c0,16.9-13.8,30.7-30.8,30.7
			C213.1,525.2,199.4,511.8,199.4,494.7 M230.4,516.1c11.7,0,21.2-9.6,21.2-21.4c0-12.4-9.2-21.7-21.2-21.7
			c-12,0-21.3,9.4-21.3,21.7h0C209.1,506.6,218.5,516.1,230.4,516.1"/>
		<path class="st0" d="M323.1,492.9h0.4v0.4v2.7c0,7.7-1.6,13-5.2,18c-5.2,7-13.6,11.2-22.5,11.2c-16.6,0-30.2-13.8-30.2-30.6
			c0-17.3,13.7-30.8,31.1-30.9c9.4,0,16.7,3.7,24,12.1l0.3,0.3l-6.9,6.6l-0.3-0.3c-5-6.7-10.2-9.4-17.3-9.5
			c-11.9,0-21.2,9.5-21.2,21.7c0,11.7,9.4,21.4,20.7,21.5c8.4,0,15.9-6.3,16.9-14h-14.5v-9.2H323.1z"/>
	</g>
	<polygon class="st0" points="329.9,524.1 329.9,464.9 362.9,464.9 362.9,474.1 339.6,474.1 339.6,487.2 362.2,487.2 362.2,496.3 
		339.5,496.3 339.5,514.9 362.9,514.9 362.9,524.1 	"/>
	<g>
		<path class="st0" d="M383.2,524.1h-12.5v-58.8v-0.4h12.7c10.1,0,16.1,1.6,21.9,5.8c7.5,5.4,11.4,13.9,11.4,24
			c0,9.9-4.2,18.2-11.9,23.8c-5.9,4.3-11.1,5.7-21.4,5.7H383.2z M383.9,514.9c7.1,0,11.3-1.2,15.3-4.1c4.9-3.7,7.8-9.6,7.8-16.4
			c0-6.7-2.9-12.8-7.8-16.4c-3.8-2.8-8.3-4-15.3-4h-3.5v40.9H383.9z"/>
	</g>
	<polygon class="st0" points="424,524.1 424,464.9 433.7,464.9 433.7,523.7 433.7,524.1 	"/>
	<polygon class="st0" points="474.8,524.1 472.1,524.1 456.9,489.9 450.8,524.1 440.9,524.1 452.4,464.9 452.8,464.9 455.8,464.9 
		473.7,505.2 492.1,464.9 492.4,464.9 495.5,464.9 505.9,524.1 496,524.1 490.6,489.9 475.1,524.1 	"/>
</g>
</svg>
