<?xml version="1.0" encoding="utf-8"?>
<!-- Generator: Adobe Illustrator 19.2.1, SVG Export Plug-In . SVG Version: 6.00 Build 0)  -->
<svg version="1.1" id="layer" xmlns="http://www.w3.org/2000/svg" xmlns:xlink="http://www.w3.org/1999/xlink" x="0px" y="0px"
	 viewBox="0 0 652 652" style="enable-background:new 0 0 652 652;" xml:space="preserve">
<style type="text/css">
	.st0{fill:#7BA2A9;}
</style>
<g>
	<path class="st0" d="M399.4,306.3c-1.4,3.1-2.1,7.9-0.7,11.6c3.4,3.4,6.2-2.7,9.6-3.8c1.7-2.1,3.4-3.4,5.1-5.5
		c-0.7-3.4-0.3-7.2,1.7-9.9c1.7-1.7,4.8-2.7,6.8-0.3c3.1,1.7,0.3,7.9,4.1,6.8c9.2-3.4,22.2-12,30.8-2.1c1.7,3.1-1.4,4.8-3.8,6.5
		c-3.4,1-6.5-1-9.6-1.7c-6.5,2.1-13,4.1-18.8,8.6c3.8,4.8,1,11.3-2.1,15.4c-3.4,1.4-5.8-1.4-7.2-4.1c-0.3-2.4-1.4-4.8-2.1-7.2
		c-5.8,5.1-10.6,10.3-19.2,8.9c-4.4-4.4-8.9-9.2-8.2-16.1c0.3-5.8,0.3-13,6.2-16.1c2.4-0.3,4.8,0.7,5.8,2.7
		C398,300.8,400,302.9,399.4,306.3z"/>
	<path class="st0" d="M394.2,276.2c-3.1,0-5.8,0-7.2-3.1c-1-2.1,0.3-3.8,1-5.5c3.4-1,6.5-1,9.2,1c-0.3,0,0.7,2.4,0.3,4.4
		C396.6,274.1,396.3,276.2,394.2,276.2z"/>
	<path class="st0" d="M380.5,329.9c-6.2,1.4-10.6-2.4-15.4-4.1c-6.8-6.5-7.2-16.1-13.7-23.3c-6.2,1-10.3,5.5-15.7,7.9
		c-12,7.9-24.3,20.5-39.7,13.3c-9.2-5.5-8.6-16.4-14.4-24.3c-10.9,1-19.8,8.6-29.4,13.3c-10.3,10.6-24,15.7-36.6,21.2
		c-5.5,1.4-9.6-1.7-12.3-5.8c0-10.3,4.1-19.2,7.9-27.7c7.5-15.1,14-30.8,20.9-46.2c2.4-4.8,2.1-12.3-0.7-16.8
		c-14.7-6.2-29.1,0.7-44.1,0.7c-15.1,5.5-30.8,9.6-45.2,16.8c-7.9,5.1-16.8,5.1-25,10.3c-9.9,6.2-19.5,14-30.5,17.8
		c-6.8,3.4-10.6,9.6-17.5,13.7c-12,6.2-22.9,14.4-35.6,18.5c-5.1-0.3-11.3,0-13-5.8c1.4-6.5,9.2-7.2,14.4-8.9c2.1-1,4.8,0.3,6.2-1
		c54.7-37.6,111.2-70.8,178.6-76.3c9.6,1,19.8,3.1,24.3,12.3c5.1,22.9-10.3,41.1-17.1,61.2c-5.1,7.5-9.2,15.7-10.3,24.3
		c2.1,1.7,4.1-1,6.2-1.7c21.2-11.3,38.7-32.2,64.3-31.5c11.3,2.7,8.2,15.7,11.3,24c2.7,2.4,6.5,4.4,10.3,2.4
		c13.7-6.5,25.7-18.1,40-23.3c5.5-1,11.3,0,13.3,5.5c4.8,8.6,6.2,24,19.5,23.6C385.3,322,385.3,329.2,380.5,329.9z"/>
	<path class="st0" d="M491.1,327.1c-3.4,2.1-7.9,2.1-11.6,1.4c-1-1.4-3.4-3.4-4.4-4.8c-4.1,5.5-10.3,8.6-16.4,6.8
		c-4.8-2.1-4.8-7.5-5.5-12c1.7-9.6,11.6-17.8,20.5-20.5c4.1,0,8.9,1,10.3,5.5c3.4,5.1-7.5,16.8,4.8,15.1c2.4-0.3,4.8-2.7,7.5-0.7
		C498.2,321.7,493.8,325.1,491.1,327.1z M474.3,307.6c-3.4,1-6.8,3.1-9.6,6.2c-1,1.7-1.4,4.4,0.7,5.5
		C469.8,316.9,474.3,312.8,474.3,307.6z"/>
	<path class="st0" d="M576.9,311.8c-1-3.4,2.7-5.5,4.1-8.2c3.1-0.7,5.1,1.4,7.2,3.1c-1,1.7,4.4,4.4-0.3,4.1
		C583.8,310.7,580.7,312.4,576.9,311.8z M620.4,321.7c-1.4-2.1-3.4-2.4-5.5-3.1c-10.9,2.1-21.9,6.2-33.5,2.7
		c7.5-2.1,15.1-4.1,21.9-7.5c0-0.7,0.7-0.7,0.3-1.7c0-4.8-5.5-6.5-8.9-8.6c-0.3-4.8-5.5-6.8-9.6-7.9c-5.1-2.1-9.2,1.4-13,3.8
		c-3.4,4.8-6.5,9.9-6.2,15.7c-10.3,4.1-21.6,5.5-32.5,8.2c-0.3-0.7-1-0.7-1-1.4c-4.8-7.2,2.7-13,1.4-20.5c-2.7-3.8-7.2,2.1-8.9-2.7
		c-3.4-2.4-7.9-1.7-11.6-0.3c-7.2,3.8-13.3,9.6-14,18.5c-0.3,3.8,2.7,7.5,6.2,10.3c6.5,3.1,12.3-2.4,16.8-4.8
		c-0.3,1.4,0.3,2.4,0.7,3.8c-3.8,2.1-7.5,3.4-12,4.1c-21.9,8.9-46.5,16.1-60.9,38.3c-5.5,10.9-1.7,24.3,3.4,34.6
		c4.8,11.3,16.8,16.1,28.1,17.5c18.8,0.3,37-5.8,46.2-22.9c13-17.8,7.2-44.5,6.2-65.4c12-2.7,24-5.1,35.6-8.2
		c7.9,8.9,21.2,8.6,32.2,6.2c5.1,0,9.6-3.8,15.1-1.7C619.7,327.5,621.1,324.8,620.4,321.7z M507.8,404.5c-11.3,5.1-27,9.6-38.7,2.4
		c-7.9-6.8-10.3-18.5-12.3-28.7c0.7-7.9,12.3-17.8,19.8-22.9c6.8-1,12.3-6.8,18.5-9.6c9.6-3.4,18.8-8.6,29.1-9.9
		c1.7,16.4,3.8,31.8,0,48.2c-1.4,3.8-4.1,7.5-5.8,11.6C515,398.7,512.3,402.1,507.8,404.5z M514.3,316.5c-1.7,0.7-7.9,0.7-4.4-3.1
		c2.1-3.8,5.1-6.5,8.9-7.5c0.7,0.3,2.1,0,2.4,1.4C518.8,310.4,518.8,315.2,514.3,316.5z"/>
	<polygon class="st0" points="158.1,367.2 155.4,367.2 155.4,390.8 164.6,390.8 164.6,388.4 158.1,388.4 	"/>
	<path class="st0" d="M218.4,384.3l2.7,6.8h3.1l-10.6-25l-11.3,24.6h2.7l2.7-6.8h10.6V384.3z M217.3,381.6h-8.2l4.1-9.6L217.3,381.6
		L217.3,381.6z"/>
	<path class="st0" d="M277.2,370.3c-1.4-2.4-3.4-3.8-6.2-3.8c-3.4,0-6.5,2.4-6.5,6.2c0,3.4,2.4,4.8,5.1,6.2l1.4,0.7
		c2.1,1,4.4,2.1,4.4,4.8c0,2.7-2.4,4.8-4.8,4.8s-4.4-2.1-4.8-4.4l-2.7,0.7c0.7,3.8,3.8,6.2,7.5,6.2c4.1,0,7.5-3.1,7.5-7.5
		c0-3.8-2.7-5.5-5.8-6.8l-1.7-0.3c-1.7-0.7-3.8-1.7-3.8-3.8c0-2.1,1.7-3.8,4.1-3.8c2.1,0,3.1,1,4.1,2.7L277.2,370.3L277.2,370.3z"/>
	<polygon class="st0" points="367.2,367.2 364.5,367.2 374,392.5 383.6,367.2 380.9,367.2 374,385.3 	"/>
	<polygon class="st0" points="423.7,390.8 436.3,390.8 436.3,388.4 426.4,388.4 426.4,379.2 436,379.2 436,376.8 426.4,376.8 
		426.4,369.6 436.3,369.6 436.3,367.2 423.7,367.2 	"/>
	<path class="st0" d="M490.4,378.8v2.4h7.2c0,4.4-4.4,7.5-8.6,7.5c-2.4,0-5.1-1.4-6.8-3.1c-1.7-1.7-2.7-4.1-2.7-6.8
		c0-5.5,4.4-9.9,9.6-9.9c3.4,0,6.2,1.7,8.2,4.4l2.1-1.7c-2.4-3.4-5.8-5.1-9.9-5.1c-6.8,0-12.3,5.5-12.3,12.3
		c0,6.8,5.5,12.3,12.3,12.3c3.4,0,6.5-1.4,8.9-4.1c2.1-2.4,2.4-5.1,2.4-8.6h-10.3V378.8z"/>
	<path class="st0" d="M555.4,384.3l2.7,6.8h3.1l-10.6-25l-10.9,25h2.7l2.7-6.8H555.4L555.4,384.3z M554.4,381.6h-8.2l4.1-9.6
		L554.4,381.6L554.4,381.6z"/>
	<path class="st0" d="M614.2,370.3c-1.4-2.4-3.4-3.8-6.2-3.8c-3.4,0-6.5,2.4-6.5,6.2c0,3.4,2.4,4.8,5.1,6.2l1.4,0.7
		c2.1,1,4.4,2.1,4.4,4.8c0,2.7-2.4,4.8-4.8,4.8s-4.4-2.1-4.8-4.4l-2.7,0.7c0.7,3.8,3.8,6.2,7.5,6.2c4.1,0,7.5-3.1,7.5-7.5
		c0-3.8-2.7-5.5-5.8-6.8l-1.7-0.7c-1.7-0.7-3.8-1.7-3.8-3.8c0-2.1,1.7-3.8,4.1-3.8c2.1,0,3.1,1,4.1,2.7L614.2,370.3L614.2,370.3z"/>
	<path class="st0" d="M545.5,345.6c0-4.1,3.1-7.2,6.8-7.2s6.8,3.1,6.8,7.2s-3.1,7.2-6.8,7.2S545.5,349.7,545.5,345.6z M552.3,354.2
		c4.4,0,8.6-3.4,8.6-8.6c0-4.8-4.1-8.6-8.6-8.6c-4.8,0-8.6,3.4-8.6,8.6C543.8,350.8,547.9,354.2,552.3,354.2z M550.6,346.3h1.7
		l2.7,4.1h1.7L554,346c1.4-0.3,2.4-1,2.4-2.7c0-2.1-1-2.7-3.4-2.7h-3.8v9.9h1.4L550.6,346.3L550.6,346.3z M550.6,345.3v-3.1h2.1
		c1,0,2.1,0.3,2.1,1.4c0,1.4-1,1.7-2.4,1.7H550.6z"/>
</g>
</svg>
