<?xml version="1.0" encoding="utf-8"?>
<!-- Generator: Adobe Illustrator 19.2.1, SVG Export Plug-In . SVG Version: 6.00 Build 0)  -->
<svg version="1.1" id="layer" xmlns="http://www.w3.org/2000/svg" xmlns:xlink="http://www.w3.org/1999/xlink" x="0px" y="0px"
	 viewBox="0 0 652 652" style="enable-background:new 0 0 652 652;" xml:space="preserve">
<style type="text/css">
	.st0{fill:#446146;}
	.st1{fill:#FFFFFF;}
	.st2{fill:#D0212E;}
</style>
<path class="st0" d="M717.1,474.8H-48.5c-10.9,0-21.8-0.1-32.7-0.1v97.5h340.3l-5.1-2.5c-2.1-1.2-2.7-3.4-1.7-5.2l4.2-2.5
	c4.1-0.3,8.4,0.5,12.4-0.3c3.8-0.7,7.7-2.3,10.9-4.5c3.1-2.1,2.7-5.9,2-8.9c-4.7,1.1-9.2,2.8-13.7,3.1c-3.8,0.3-7.8-0.5-11.5-1.8
	c-3.9-1.3-5.4-6.9-3.8-12.4c2.4-8.3,8.2-13.5,16.1-16.4c4.6-1.7,9.6-2.6,14.4-3.9l1.8-1.5c1.3-2.3,3.2-2.4,5.5-1.8
	c2.3,0.6,2,2.4,1.9,4.1c-0.5,11.1-0.8,22.2-1.5,33.3c-0.7,12.3-5.7,17.9-17.8,20.7l-2.1,0.6h451.4v-97.4H717.1z M-5.4,557.4
	l-5.4,1.7l-3.8-4.5c-0.8-6.7-0.9-13.4-1.3-20.1c-0.2-4-0.5-8.1-0.8-12.2l-1.1-2.4c-1.9,3.4-3.5,6-4.9,8.6
	c-2.9,5.5-5.8,10.9-8.5,16.5c-1.3,2.8-3.7,4.3-6.3,3.8l-3.9-4c-2.2-4.7-4-9.6-6-14.4l-1.4-2.5l-2.9-1.4l-1.7,2.7
	c-0.3,4.7-0.1,9.4-0.4,14.1c-0.2,3.6-0.6,7.2-1.2,10.8l-2,3.6c-2.8,3.2-6.9,2.5-7.7-1.7c-0.5-2.8,0.2-5.9,0.8-8.7
	c2.2-11,4.6-21.9,6.9-32.8c0.6-2.9,1-6,2.3-8.6l4.5-3.2c2.4-0.3,2,2.2,2.6,3.9c1.6,4.4,3.5,8.7,5.5,12.8c1.8,3.6,3.9,7.1,6.1,11
	c4-6.3,8-12.2,11.7-18.2c2.6-4.3,4.6-8.9,7.4-13l5.5-2.1l2.6,3.2c0.9,10,1.4,20,2.1,30c0.2,3.3,0.3,6.6,0.8,9.9c0.3,2.2,1,4.3,2,6.3
	C-1.9,550.5-2.2,554.8-5.4,557.4 M38.8,552.2c-7.1,6.1-15.5,9.2-24.9,7.1C6.4,557.7-0.2,552-1,541.2l-0.2-4.1
	c0.3-14.9,7.1-26,20.6-32.3c6.7-3.1,14.1-4.1,21.1-0.5c5.6,2.9,8.7,8.1,10,14.1C53.3,531.9,49.2,543.3,38.8,552.2 M108.4,557.2
	l-5.6,1.8l-3.7-4.7c-0.8-6.3-0.9-12.8-1.2-19.2c-0.2-3.8-0.4-7.7-0.6-11.5l-0.7-2.9l-1-0.3c-1.5,2.6-3.1,5.1-4.4,7.8
	c-2.9,5.6-5.8,11.1-8.6,16.8c-1.4,2.8-3.7,4.2-6.4,3.8l-3.8-4.1c-2.3-4.9-4.3-10-6.3-15l-0.9-1.7l-2.8-1.7l-2,2.9
	c-0.3,3.6-0.3,7.3-0.4,10.9c-0.1,3.7-0.1,7.5-0.4,11.2l-1.2,4.3c-1.4,2.9-4.2,4.6-6.3,3.8c-2.8-1.1-3.5-3.7-3.3-6.3l1.2-5.6
	c4.1-10.8,5.2-22.2,7.1-33.4c0.5-3,1.2-6.1,2.5-8.8l4.3-2.5c2.2-0.1,2,2,2.5,3.7c0.6,2.8,1.7,5.5,3,8c2.7,5.3,5.6,10.5,8.7,16.1
	c4.8-7.4,9.4-14.4,13.8-21.6c1.9-3,3.4-6.1,5-9.3c1.3-2.6,3.6-3,5.9-2.6c2.5,0.3,2.5,2.3,2.6,4.4c0.4,7.6,1,15.3,1.5,23
	c0.3,4.6,0.5,9.2,1.1,13.7c0.4,3,1.2,6,2.3,8.8C111.6,550.7,111.3,554.9,108.4,557.2 M113.6,512.2l0.2-1.9l1.4-3.2
	c1-2.3,0.6-4.3-1.3-6l-1-2.5c2.6-1.3,5.2-2.8,7.9-3.3c1.9-0.4,4,3.1,4,5.7c0,4.3-4.9,10.6-9.2,11.6L113.6,512.2z M143.7,556.4
	c-3.8,2.5-7.9,3.8-12.1,3.1c-2.1,0-3.8,0.1-5.5,0c-3.9-0.4-6.9-3.3-7.1-7l1.6-3.7l3.8,0.8c3.2,2.3,6.4,4.1,10.4,2.7l4.1-3.3
	l-2.8-4.3c-2.7-1.6-5.8-2.6-8.8-3.8c-4-1.6-6.6-4.3-7-8.7c-0.4-4.8,2-8.8,6-10.9c6-3.2,12.5-4.2,19-0.5c2.6,1.5,4,4.7,2.8,7
	c-1.3,2.5-3.7,2.9-5.7,0.9c-3.9-3.8-7.3-4.2-11.7-1.4c-2.8,1.8-3,5.1-0.2,6.7c4.1,2.2,8.4,3.9,12.7,5.9c3.1,1.5,5.6,3.7,5.6,7.4
	C148.8,551.2,147,554.2,143.7,556.4 M200.9,556.7c-5.8,2.9-11.6,3.6-17.7,2.6c-6.1-0.9-12.9-6.4-14.5-14.5c-0.5-2.6-0.7-5.3-0.9-6.8
	c0.1-13.2,4.8-23.1,14.6-29.9c7.8-5.4,16.6-8.3,26.2-4.2c5.1,2.1,8.1,6.2,9.8,11.1C224.4,531.1,216.3,549.2,200.9,556.7
	 M256.6,524.9l-3.3,2.4c-4.7,2.8-9.7,5.3-14.2,8.3c-4,2.7-5.5,7.2-6,11.9c-0.2,2-0.4,4-0.5,6.1c-0.3,3.5-2.7,5.5-6.2,5.2
	c-3.1-0.3-4.1-1.8-4-5.6c0.3-9,0.5-17.9,0.8-26.9l0.6-5.1l3.1-3.4l4.9,2c1.4,1.9,1.8,4.6,2.8,7.3c4.2-2.8,8.5-5.7,12.8-8.5l4.3-1.9
	l5.2,1.8C258.3,520.3,258.5,522.9,256.6,524.9 M334.1,549.9c0,2.3-1,4.8-2.2,6.8l-4.4,1.9l-3.4-4l-0.1-4.1c-3.8,2.4-7.3,4.8-11,6.7
	c-5,2.6-9.8,1-14.4-1.5c-2.7-1.5-3.7-5.5-2.9-9.2c1.9-8.6,13.5-18.8,24.3-16.4l2.5,0c-2.3-4.4-6.8-6.5-11.1-4.9
	c-3,1.1-5.7,2.9-8.7,4l-5,0.8l0.3-4.8c2.8-5.2,7.6-7.5,13.2-8.3l4.8-0.1c10-1,16.2,5.9,17.3,14.2
	C334.2,537.3,334.2,543.6,334.1,549.9 M372.5,559.5c-1.4,2.2-3.8,2.9-6.2,2c-2.4-0.9-3.2-2.9-3.2-5.4c0.2-6.7,0.5-13.5,0.5-20.2
	c0-2.2-0.2-5.6-1.5-6.3c-2.9-1.5-6,0.3-8.4,2.3c-4.6,3.8-6.4,9.2-7.1,14.9c-0.3,2.4-0.4,4.9-1.1,7.3l-3,3.3l-4.1-3.2
	c-0.6-3.6-0.9-7.5-0.2-11.1c1.7-8.2,3.9-16.4,6-24.5l1.9-3.2l4.7-0.7l1.4,3.7c0,2-0.6,3.9-1.1,6.6c3.8-2,7-3.9,10.2-5.6
	c4.8-2.6,8.4-1.5,9.7,3.7c1.4,5.6,1.8,11.5,2.4,17.4c0.5,4.7,0.6,9.4,0.6,14.1L372.5,559.5z M388.4,552.5c-0.2,4.8-2.1,7-6,7
	c-3.5,0-5.4-1.2-5.5-5.1c-0.1-5.6,0.3-11.3,1.1-16.9c0.8-4.9,2.4-9.7,3.7-14.5l1.7-2.7l4.6-1.9l1.6,4.4
	C389.3,532.7,388.8,542.6,388.4,552.5 M388.5,513.4c-2.8,0.4-4.6-1.1-5.3-3.6c-1-3.5-1.2-7.3,1.1-10.4l4.4-2.2l3.1,2.9l1.1,5.3
	l-0.1,3.1C392.5,511.3,391.3,513,388.5,513.4 M430.8,547c-5.1,4.6-11.4,7.1-17.7,9.2c-3.5,1.2-7.2,1.7-9.3,2.1
	c-7.9,0.1-11.9-4.1-11.1-10.5c1.7-12.5,7.5-22.9,17.9-30.1c3-2,7.1-2.8,10.8-3.3c4.4-0.6,7.4,2.2,7.5,6.7c0.1,3.7,0.3,7.7-3.1,10.3
	l-4.6,1.1l-1.2-4.1l-0.4-3.2l-3.1,0.9c-6.5,3.9-11.1,9.6-14.2,16.4c-2,4.3,0.5,7.5,5.3,6.4c3.3-0.8,6.4-2.8,9.6-4.2
	c2.9-1.2,5.8-2.6,8.8-3.4l4,0.8C432.7,543.2,432.9,545.1,430.8,547 M509.1,556.9l-5.8,2.1l-3.9-5.2c-0.8-5-0.7-10.2-0.9-15.3
	c-0.2-4.7-0.4-9.4-0.7-14.1l-0.7-3.6l-1.2-0.3c-1.5,2.7-3.1,5.4-4.6,8.2c-2.8,5.4-5.7,10.8-8.3,16.2c-1.3,2.7-3.7,4.3-6.4,3.9
	l-3.9-4c-2-4.1-3.5-8.5-5.3-12.7l-2.1-4.3l-2.9-1.4l-1.6,2.7c-0.3,4-0.4,8.1-0.5,12.2c-0.1,3.1,0,6.2-0.3,9.3l-1.9,5.7
	c-1.2,2.2-3.1,3.8-5.7,3c-2.6-0.8-3.5-3.2-3.3-5.7c0.1-2.1,0.7-4.2,1.1-6.2c2.3-11.3,4.7-22.5,7.1-33.7c0.6-3,1.3-6.1,2.6-8.8
	l4.4-2.2l2.1,3.6c0.8,2,1,4.2,2,6.1c3,6,6.3,11.8,9.7,18.2c4.1-6.3,8.1-12.2,11.8-18.3c2.6-4.1,4.8-8.5,7.1-12.8
	c1.3-2.4,3.6-3,5.7-2.3l2.7,3.6c0.8,8.8,1.2,17.7,1.8,26.5c0.3,3.7,0.3,7.5,0.9,11.2c0.5,3,1.3,6,2.5,8.8
	C512.1,550.8,511.9,554.6,509.1,556.9 M551.6,554.1c-1.1,3.5-3.3,5.4-5.8,4.8c-3.4-0.8-3.7-3.5-3.6-6.3v-2
	c-3.8,2.3-7.3,4.8-11.1,6.7c-5,2.5-9.9,0.9-14.3-1.7c-2.8-1.7-3.7-5.6-2.6-9.6c2.4-8.7,13.5-18,24-15.9l2.6,0.2
	c-2-4.4-6.7-6.6-11-5.1c-3,1.1-5.7,2.8-8.7,4l-5,0.9l0.3-5.1c2.8-5.2,7.7-7.4,13.3-8.2l4.8-0.1c9.7,0,15.4,4.2,17,13.8
	c1,6.4,0.8,13,1,19.4L551.6,554.1z M568.8,541.1c-1.4,3.9-1.7,8.3-2.2,12.5c-0.3,2.7-1.5,4.1-3.8,4.9c-4,1.3-6.8-0.8-6.7-4.9
	c0.3-9.1,0.5-18.1,0.8-27.3l0.3-3.5c0.5-2.4,0.6-5.1,4.1-5.2c2.8-0.1,5.4,2.2,6,5.3c0.2,1.3,0.3,2.7,0.4,4.7
	c4.9-3.2,9.2-6.1,13.5-8.9l4.3-2c2.2-0.7,4.3-0.4,5.4,2c1.2,2.4,1.6,5-0.8,6.7c-2.8,2.1-6,3.6-9,5.3
	C576.4,533.3,570.8,535.4,568.8,541.1 M633.5,558.7l-4.2,1.1c-3-1-5.8-2.6-8.5-4.2c-3.9-2.3-7.5-5.2-11.5-7.4
	c-2.5-1.4-5.5-2.1-8.4-3.1c0,3.7,0,6.9,0,10c0,3-1.7,5.3-4.5,5.9l-5.3-1.6c-1.2-1.6-1.5-4.1-1.5-6.3c0.6-16.4,3.2-32.5,7.5-48.4
	c1-3.6,1.9-7.2,2.8-10.9c0.6-2.7,2.3-3.7,4.9-3.4c2.8,0.3,3.5,2.4,3.1,4.7c-0.6,4.1-1.5,8.2-2.3,12.2c-1.2,5.7-2.4,11.3-3.5,16.9
	l0,3.6l0.8,0.4l3.4-2.9c3.7-4.4,7.1-9.1,11-13.3c2-2.1,4.8-3.6,7.5-4.6l4.8,1.3l-1.5,4.3c-4.7,5.9-9.6,11.7-14.4,17.5l-3,4.1
	c-1.5,2.5-0.6,4.3,2.1,5.1c7.1,2,13.1,5.9,18.9,10.4l2.3,3L633.5,558.7z M673.9,547.1c-4.1,3.1-8.2,6.4-12.9,8.6
	c-4.8,2.3-10,4.3-15.7,3.8c-5.3-0.4-9.9-3.5-11.6-8.5c-3.5-10.4,0.4-23.2,9.8-29.1c5.9-3.7,15.4-5.5,21.6,1.7
	c4.3,5,3.6,10.9-2.3,13.7c-5.1,2.4-10.5,4.1-15.7,6.2c-1.9,0.8-3.8,1.8-6.3,3.1c4.5,3.8,8.6,3.1,12.6,1.9c3.5-1.1,6.7-2.8,10.1-3.9
	c2.6-0.9,5.3-1.6,8-2l3.3,1.3L673.9,547.1z M693.8,548.6c2.2-1,4.8-1.7,7.2-2.1c2.7-0.4,3.9,1.3,3.8,3.9c-0.2,2.8-1.2,5.1-4,6.5
	c-5.4,2.7-11.1,3.2-16.8,2.1c-4.6-0.9-6.8-3.9-7.1-8.6c-0.4-7.1,1.8-13.5,4.9-19.7l2.1-4.4c-2.2,0.4-4,0.9-5.9,1
	c-3.2,0.3-5.5-1.6-5.6-4.4c-0.1-3.1,2.1-3.8,4.6-4.2c11-1.9,9.3-1,10.9-11c0.5-2.7,0.4-5.6,1-8.2l2.5-4.9l6.2,0.6
	c1,0.8,0.4,3.9,0.1,5.9c-0.8,4.7-1.7,9.3-2.7,14.5c2.5,0,4-0.1,5.5,0c3.6,0.2,4.9,1.6,4.8,4.9c-0.1,3.3-2.1,3.8-4.8,3.6l-0.3,0
	c-7.8,0-7.9,0-10,7.4c-1.2,4.2-2,8.5-2.5,12.9C687,550.1,688.7,551,693.8,548.6"/>
<path class="st1" d="M291.2,550.9c0.7-11.1,1-22.2,1.5-33.3c0.1-1.7,0.4-3.5-1.9-4.1c-2.3-0.6-4.2-0.5-5.5,1.8l-1.8,1.5
	c-4.8,1.3-9.8,2.2-14.4,3.9c-7.8,2.9-13.7,8.1-16.1,16.4c-1.6,5.5-0.1,11.1,3.8,12.4c3.6,1.2,7.7,2,11.5,1.8c4.5-0.3,9-2,13.7-3.1
	c0.6,3,1.1,6.8-2,8.9c-3.2,2.2-7.1,3.8-10.9,4.5c-4,0.8-8.3,0-12.4,0.3l-4.2,2.5c-1.1,1.9-0.4,4,1.6,5.2l5.1,2.5h12.2l2.1-0.6
	C285.5,568.8,290.4,563.2,291.2,550.9 M280.3,536.1c-3.4,4.1-7.5,7.3-13.1,7.5l-4.9-1.3l0.3-5.3c2.5-5.1,6.5-8.9,11.7-11.3
	c4.3-1.9,7.9,0.4,8.4,5.2L280.3,536.1z"/>
<path class="st2" d="M205.1,368.7c8.8,17.6,18.8,34.7,28.1,52.1c4.7,8.7,8.8,17.9,16.6,24.4c3.3,2.7,6.6,5.9,10.5,7.4
	c4.1,1.6,8.8,1.5,13.2,1.8c11.2,0.8,21.9-0.7,31.4-7.3c2.2-1.6,4.7-3.3,7.3-3.7c3.7-0.6,7.5,0,11.3-0.2c6.9-0.3,13,1.9,18.8,5.4
	c2.9,1.7,6.1,3.4,9.3,4.1c9.8,2,19.7,3.6,29.6,5c8.7,1.2,16.6-0.5,22.8-7.3c5.2-5.6,10.6-11.1,15.6-16.8
	c8.4-9.5,16.1-19.5,20.4-31.5c5.8-16.5,11.3-33.2,16.2-49.9c5.2-17.9,9.1-36,10.4-54.7c0.7-9.7-0.1-19.2-4-28.2
	c-7.6-17.5-20.5-30.5-35.4-41.6c-11.5-8.4-24.1-14.6-38.3-17.5c-12.4-2.5-24.9-3.9-37.6-3c-9.4,0.6-18.7,1.6-28.1,2.5l-2.5,1.2
	c-1.7,1.2-3.2,2.6-5.6,4.5c-3.3-7.7-14.5-12.1-14.5-12.1c-5-1.6-9.7-4-14.6-4.7c-16.2-2.3-31.7,1.1-46.6,7.2
	c-5.8,2.3-11.3,5.4-16.9,8.3c-10.5,5.4-19.7,12.4-26.8,22.1c-16.2,21.9-21.4,45.9-14.2,72.4C187.4,329.3,195.4,349.4,205.1,368.7"/>
<path class="st0" d="M315.4,215.2c0.3-2.8,0.5-4.7,0.8-6.5c1.4-8.6,5.7-15.6,13.3-19.6c7.6-4,15.8-6.8,23.9-9.7
	c4-1.4,8.3-2.1,12.5-0.3c2.5,1.1,5,2.2,7.5,3.2c10,3.6,20,7.3,30,10.8c4,1.4,8.2,2.4,12.3,3.5c3.4,0.9,6-0.3,7.9-3.3
	c1.7-2.7,3.4-5.3,5.6-8.7c0,2.6-0.4,6,0.1,6.1c3.7,1,7.5,1.4,11.3,2.1c1.8-5.1,6.4-7,10.5-9.6c5.2-3.2,10.3-6.8,14.8-10.9
	c7.7-7,14.5-14.8,18.2-24.8c2-5.4,3.9-10.8,5.9-16.3c2.1-5.6,5.9-8.6,12.1-8.3l5.8-1.2c2.8-1.6,5.1-1.2,7.5,0.5l4.8,3.4
	c3.4-3.9,4.7-10.4,2.6-14.1c-2.9-5.2-7.3-8.4-13.1-9.9c-3.9-1-7.8-2.2-11.4-3.8l-5-4.2c-1.7-4.4-5.1-4.7-8.7-4.8
	c-7.1-0.3-13.7-1.8-19.6-6l-3.9-0.6c-4.1,0.8-8.1,2.1-12.1,2.9c-3.4,0.7-6.9,0.9-9.9-1.3c-3-2.2-6.1-4.6-8.6-7.4
	c-4.1-4.5-8.7-5.4-13.4-1.4c-3.1,2.6-5.7,6-8.3,9.1c-2.7,3.2-5.7,5.6-10.1,4.5l-5.3-2.3l-3.8,4.2c-4.5,4.8-9.6,8.3-16.6,6.3
	c-2.2-0.6-3.1,0.2-4.1,1.8c-2.9,4.7-5.9,9.4-8.8,14.1c-1.8,2.9-3.4,6.1-7.8,4.9c-0.2,4.7-0.6,9.1-0.5,13.5c0,2.6-1,4.4-3.3,5.3
	l-2,3.5c-0.1,7.4-0.3,14.7-0.7,22.1l-1.9,3.9c-6.4,3.4-12.9,6.5-19.4,9.6c-2.4,1.2-4.9,2.2-7.9,3.5l0-4.8c1.3-6.2,3.1-12.4,4.3-18.7
	c2.5-14.4-2-18.5-12.7-24.4c-3.5-1.9-5.8-0.5-6.3,3.4l-0.2,4.2c-0.2,20.7-0.4,41.5-0.6,62.2l-0.1,2.5
	C300.8,203.1,312.1,207.5,315.4,215.2"/>
<path class="st2" d="M-59.6,455.7c2.5,0.8,5.3,0.4,7.1-1.9c3.1-4,6.3-8,9-12.3c5.2-8.6,6.7-18.2,7.1-28c0.4-8.9,0.1-17.9,0.5-26.9
	c0.6-13.1,1.4-26.3,2.4-39.4c0.5-6.2,1.2-12.4,2.6-18.4c1.3-5.7,5.5-7.5,11.1-5.8c6.4,2,10.3,7,14,12c7.8,10.7,12,22.9,16,35.4
	c4.7,14.9,10.5,29.5,16.1,44.2c1.5,4.1,3.9,5,8.2,4.4c3-0.5,5.9-1.5,8.8-1.4c4.8,0.1,7.9-2.4,10.2-6c4.4-6.7,8.5-13.5,12.8-20.3
	c13.6-22,27.2-44.1,41-66c3.5-5.6,7.4-10.9,11.5-16.1c3.6-4.6,7.6-4.1,10.2,1.1c0.9,1.9,1.8,4,2,6.1c1.4,14.2,3.5,28.5,3.8,42.7
	c0.4,18.4-0.8,36.7-1.2,55.1C133,430.2,138.1,444,150,455l2.5,1.2c3.4,0.1,6.8,0,10.2-0.1c6.5-0.2,11.2-3.4,14.2-8.9
	c2.7-4.9,5-10.2,7.2-15.3l0.3-4.7c-0.6-5.9-4.7-9.7-9-13.1c-3.4-2.7-5.3-6-5.1-10.5c0.1-3.1-0.1-6.2-0.2-9.3
	c-1.5-40.9-3.9-81.8-9.6-122.4c-1.4-10.1-2.8-20.3-0.6-30.6c1.6-7.3-4-13.6-11.5-14.3c-2.7-0.3-5.7-0.4-8.3,0.2
	c-8.8,2.2-15.5,6-16.4,15.7c-0.2,2.3-1.2,4.8-2.5,6.8c-3.5,5.7-7.2,11.3-11,16.9c-14.5,21.1-28.2,42.9-45.3,62.2
	c-6.8,7.7-13.7,15.4-20.9,23.4c-4-6-7.6-11.5-11.3-16.9c-6.4-9.4-12.9-18.8-19.5-28.1c-4.4-6.2-9.5-11.8-13.5-18.2
	c-5.7-9-7.3-19.3-6.7-29.8c0.2-3.7,0.4-7.4-3-9.5c-4.5-2.8-9.5-3.1-14.5-1.1c-5.9,2.3-9.8,7-13.2,12.1c-2.1,3.1-4,6.6-4.8,10.2
	c-0.9,3.9-0.4,8.1-0.6,12.1c-0.7,14.4-0.9,28.7-5.1,43c-6.4,21.8-10.4,44.3-15.7,66.4c-1,4.3-2.9,8.4-4.7,12.5
	c-2.9,6.5-6.5,12.8-8.9,19.4c-2.4,6.8-3,14,1.6,20.3C-72,450.4-66,453.5-59.6,455.7"/>
<path class="st2" d="M507.4,251.3c-3.9,2.7-7.5,5.9-10.8,9.3c-5.4,5.7-7.1,12.5-7.2,20.5c-0.2,16.1-0.5,32.1-5.3,48.1
	c-6.4,21.2-10.1,43.2-15.2,64.8c-1.1,4.7-3.2,9.2-5.1,13.7c-2.6,5.7-5.9,11.1-8.1,17c-2.9,7.7-4,15.8,1.5,22.9
	c4,5.3,9.8,8.5,16.2,10.2c3.5,0.9,6.5-0.5,8.5-3.2c3.2-4.4,6.4-8.8,8.8-13.7c5-10,5.7-20.9,5.9-31.9c0.2-8.2,0.1-16.5,0.5-24.7
	c0.5-11,1.2-22,2-32.9c0.5-6.5,1.1-13,2.4-19.4c1.5-7.1,6.6-9.3,13-6c2.5,1.3,5.1,2.9,7,4.9c9,9.7,14.8,21.2,18.9,33.7
	c5.8,17.3,11.9,34.5,18,51.7c1.5,4.3,3.6,5.2,8.2,4.7c2.5-0.2,4.9-0.5,7.3-0.6c5-0.4,9.3-2,12.1-6.6c4.7-7.7,9.6-15.3,14.4-23
	c12.9-20.8,25.6-41.8,38.8-62.5c4.2-6.6,9.3-12.7,14.1-18.8c1.8-2.3,4.4-1.9,5.8,0.1c1.9,2.9,3.9,6.1,4.3,9.4
	c1.6,14.4,3.5,28.9,3.8,43.4c0.3,17.8-1,35.7-1.3,53.5c-0.2,9.8,1.4,19.5,6.2,28.2c2.4,4.3,6.3,7.7,9.3,11.7
	c1.8,2.3,3.9,3.5,6.9,3.2l4.1-0.1c8.3-0.8,14.9-4.1,18.4-12.2c1.7-3.9,3.8-7.7,5.3-11.7c0.7-1.9,0.9-4.1,0.7-6.2
	c-0.6-4.9-3.7-8.4-7.5-11.5c-3.7-2.9-6.3-6.2-6.5-11.5c-0.4-16.3-1-32.7-2.2-49c-1.4-20.5-3.4-40.9-5.2-61.3
	c-1.6-17.9-5.9-35.6-3-53.9c0.9-5.6-3.6-11.3-9.2-12.1c-4.2-0.6-8.8-0.4-12.9,0.6c-8.5,2.1-13,6.3-14.1,14.4c-0.4,2.7-1.3,5.7-2.9,8
	c-12.4,18.4-24.6,36.9-37.5,54.9c-7.9,10.9-16.8,21.1-25.4,31.5c-4.3,5.1-8.9,9.9-13.9,15.4c-3.1-4.7-6.1-8.8-8.8-13.1
	c-8.9-13.9-18-27.7-28.6-40.4c-5.4-6.5-10.8-13.3-11.9-22.3c-0.8-6.3-1.3-12.7-1.6-19c-0.2-4.5-1.3-7.2-5.4-8.8
	C516.1,249,511.4,248.6,507.4,251.3"/>
<path class="st1" d="M-5.8,540.3c-0.5-3.3-0.5-6.6-0.8-9.9c-0.6-10-1.2-20-2.1-30l-2.6-3.3l-5.5,2.1c-2.8,4.1-4.8,8.7-7.4,13
	c-3.7,6-7.6,11.9-11.7,18.1c-2.2-4-4.4-7.4-6.1-11c-2-4.2-3.9-8.5-5.5-12.9c-0.6-1.7-0.2-4.2-2.6-3.9l-4.5,3.2
	c-1.2,2.6-1.6,5.7-2.3,8.6c-2.3,10.9-4.7,21.9-6.9,32.8c-0.6,2.8-1.3,6-0.8,8.7c0.8,4.2,4.9,4.9,7.7,1.7l2-3.6
	c0.6-3.6,1-7.2,1.2-10.8c0.3-4.7,0.1-9.4,0.4-14.1l1.7-2.8l2.9,1.4l1.4,2.5c2,4.8,3.8,9.8,6,14.5l3.9,4c2.7,0.5,5-1,6.3-3.8
	c2.7-5.6,5.6-11,8.5-16.5c1.4-2.7,3-5.2,4.9-8.6l1.1,2.4c0.3,4,0.6,8.1,0.8,12.1c0.4,6.7,0.5,13.5,1.3,20.2l3.8,4.5l5.4-1.7
	c3.2-2.6,3.5-7,1.6-10.8C-4.8,544.7-5.5,542.5-5.8,540.3"/>
<path class="st1" d="M107.7,538.2c-0.6-4.5-0.8-9.1-1.1-13.7c-0.5-7.6-1.1-15.3-1.5-23c-0.1-2.1-0.2-4.1-2.6-4.4
	c-2.3-0.3-4.6,0-5.9,2.6c-1.6,3.1-3.1,6.3-5,9.2c-4.4,7.1-9.1,14.1-13.9,21.6c-3.1-5.7-6-10.8-8.7-16.1c-1.3-2.5-2.3-5.3-3-8
	c-0.4-1.7-0.3-3.9-2.5-3.7l-4.3,2.5c-1.3,2.7-2,5.8-2.5,8.8c-1.9,11.3-3,22.7-7.1,33.4l-1.1,5.6c-0.2,2.7,0.5,5.2,3.3,6.3
	c2.2,0.9,4.9-0.8,6.3-3.8l1.2-4.3c0.3-3.7,0.3-7.5,0.4-11.2c0.1-3.6,0.1-7.3,0.4-10.9l2-2.9l2.8,1.7l0.9,1.7c2.1,5,4,10.1,6.3,15
	l3.8,4.1c2.7,0.5,5.1-1,6.4-3.7c2.8-5.7,5.7-11.3,8.6-16.8c1.4-2.6,3-5.2,4.4-7.8l1,0.3l0.6,2.9c0.3,3.9,0.4,7.7,0.6,11.5
	c0.4,6.4,0.5,12.8,1.2,19.2l3.6,4.7l5.6-1.8c3-2.4,3.2-6.6,1.7-10.2C109,544.2,108.2,541.2,107.7,538.2"/>
<path class="st1" d="M508.2,538.4c-0.6-3.7-0.6-7.5-0.9-11.2c-0.6-8.8-1-17.7-1.8-26.5l-2.7-3.6c-2.1-0.6-4.4,0-5.7,2.3
	c-2.3,4.3-4.6,8.6-7.2,12.8c-3.7,6-7.7,11.9-11.8,18.2c-3.4-6.4-6.7-12.2-9.7-18.2c-1-1.9-1.2-4.1-2-6.1l-2.1-3.6l-4.4,2.2
	c-1.3,2.7-2,5.8-2.6,8.8c-2.4,11.2-4.8,22.5-7.1,33.7c-0.4,2.1-1,4.1-1.1,6.3c-0.1,2.5,0.8,4.8,3.3,5.7c2.7,0.8,4.6-0.8,5.7-3
	l1.8-5.7c0.4-3.1,0.2-6.2,0.3-9.3c0.1-4,0.2-8.1,0.5-12.2l1.6-2.7l2.9,1.5l2.1,4.3c1.8,4.2,3.3,8.6,5.3,12.7l3.9,4
	c2.7,0.5,5-1.1,6.3-3.9c2.7-5.4,5.5-10.8,8.3-16.2c1.4-2.8,3-5.5,4.6-8.2l1.2,0.3l0.7,3.6c0.3,4.7,0.5,9.4,0.7,14.1
	c0.3,5.1,0.2,10.3,1,15.3l3.9,5.2l5.8-2.1c2.8-2.3,3-6.1,1.6-9.7C509.5,544.4,508.7,541.4,508.2,538.4"/>
<path class="st1" d="M208.8,503.9c-9.6-4.1-18.4-1.2-26.2,4.3c-9.8,6.8-14.5,16.7-14.6,29.9c0.2,1.5,0.3,4.1,0.9,6.7
	c1.6,8.1,8.5,13.5,14.5,14.5c6,0.9,11.8,0.3,17.7-2.6c15.4-7.6,23.5-25.6,17.7-41.7C216.8,510.2,213.8,506.1,208.8,503.9
	 M194.3,549.3l-4.1,0.5c-6.6-0.1-11.7-4.7-12.4-11.4c-1-9.8,2.1-18.1,10.6-23.3c9.2-5.6,19.4-3.6,21.5,8.8
	C212,536.2,204.6,545.3,194.3,549.3"/>
<path class="st1" d="M50.4,518.4c-1.3-6.1-4.3-11.2-10-14.1c-7-3.6-14.4-2.6-21.1,0.5c-13.5,6.3-20.2,17.4-20.6,32.3l0.2,4.1
	c0.9,10.7,7.5,16.5,14.9,18.1c9.4,2.1,17.8-1,24.9-7.1C49.2,543.3,53.3,531.9,50.4,518.4 M25.3,549.1c-8,2.7-15.2-2.2-16.5-10
	l-0.4-4c0.2-9.2,3.8-16,10.9-20.2c9.6-5.7,19.3-3,21.4,9C42.7,535.4,36,545.6,25.3,549.1"/>
<path class="st1" d="M631.8,550.3c-5.7-4.5-11.8-8.4-18.9-10.4c-2.7-0.8-3.6-2.6-2.1-5.1l3-4.1c4.8-5.8,9.7-11.6,14.4-17.5l1.5-4.3
	l-4.9-1.3c-2.7,1-5.5,2.5-7.5,4.6c-3.9,4.2-7.3,8.9-11,13.3l-3.4,3l-0.8-0.4l0-3.6c1.1-5.7,2.3-11.3,3.5-16.9
	c0.8-4.1,1.7-8.1,2.3-12.3c0.4-2.3-0.3-4.3-3.1-4.7c-2.6-0.3-4.3,0.7-4.9,3.4c-0.9,3.6-1.8,7.3-2.7,10.9c-4.2,15.9-6.9,32-7.5,48.4
	c-0.1,2.1,0.3,4.7,1.5,6.3l5.3,1.6c2.8-0.5,4.4-2.9,4.5-5.9c0-3.1,0-6.3,0-10c2.9,1,5.9,1.7,8.4,3.1c4,2.2,7.6,5.1,11.5,7.4
	c2.7,1.6,5.5,3.2,8.5,4.2l4.2-1.1l0.6-5.4L631.8,550.3z"/>
<path class="st1" d="M316.1,516.9l-4.8,0.1c-5.6,0.9-10.5,3.1-13.2,8.4l-0.3,4.8l5-0.7c3-1.1,5.7-2.9,8.7-4
	c4.4-1.6,8.9,0.5,11.1,4.9l-2.5,0c-10.8-2.3-22.3,7.9-24.3,16.4c-0.8,3.7,0.2,7.6,2.9,9.2c4.5,2.5,9.4,4,14.4,1.5
	c3.7-1.9,7.1-4.3,11-6.7l0.1,4.1l3.4,4l4.4-1.9c1.3-2,2.2-4.5,2.2-6.8c0.1-6.3,0.1-12.6-0.8-18.8
	C332.2,522.7,326.1,515.8,316.1,516.9 M321.6,541.9c-3.4,4.6-8.3,6.8-14.2,8.1l-3-1.9l0.6-3.8c3.1-4.2,7.2-7.3,12.4-8.4l4.7,1.4
	L321.6,541.9z"/>
<path class="st1" d="M534.5,516.9l-4.8,0.1c-5.6,0.8-10.5,3-13.3,8.2l-0.3,5.1l5-0.9c3-1.2,5.7-2.9,8.7-4c4.3-1.6,9,0.6,11,5.1
	l-2.6-0.2c-10.5-2.1-21.7,7.3-24,15.9c-1.1,4-0.2,7.9,2.6,9.6c4.5,2.6,9.3,4.2,14.3,1.7c3.8-1.9,7.3-4.4,11.1-6.7v2
	c0,2.8,0.3,5.5,3.6,6.2c2.6,0.6,4.7-1.3,5.8-4.8l0.9-4c-0.2-6.5,0-13.1-1-19.4C549.9,521.1,544.2,516.9,534.5,516.9 M539.9,541.8
	c-3.4,4.6-8.2,6.9-14.3,8.2l-3.1-2.2l0.8-3.7c3.2-4,7.1-7.2,12.2-8.2l4.8,1.4L539.9,541.8z"/>
<path class="st1" d="M671.7,542.6c-2.7,0.4-5.4,1.1-8,2c-3.4,1.2-6.7,2.8-10.1,3.9c-4,1.3-8.1,1.9-12.6-1.8c2.5-1.3,4.3-2.3,6.2-3.1
	c5.2-2.1,10.6-3.8,15.7-6.2c5.9-2.8,6.6-8.7,2.3-13.7c-6.2-7.3-15.8-5.4-21.6-1.7c-9.4,5.9-13.3,18.7-9.8,29.1
	c1.7,5.1,6.3,8.1,11.6,8.6c5.7,0.5,10.9-1.5,15.7-3.8c4.6-2.2,8.7-5.6,12.9-8.6l1.1-3.2L671.7,542.6z M643.5,533.3
	c2.5-4.3,6.5-6.8,11.2-7.6l4.6,2l-1.8,3.6c-3.8,2.2-7.8,4-11.7,6C643.1,536.6,642.3,535.3,643.5,533.3"/>
<path class="st1" d="M690,531.7c2.1-7.4,2.2-7.4,10-7.4l0.3,0c2.7,0.2,4.7-0.4,4.7-3.6c0-3.3-1.2-4.8-4.8-4.9c-1.5-0.1-3,0-5.5,0
	c1-5.2,2-9.8,2.7-14.5c0.3-2,0.9-5.1-0.1-5.9l-6.2-0.6l-2.5,4.9c-0.6,2.7-0.5,5.5-1,8.2c-1.7,10,0.1,9-10.9,11
	c-2.5,0.4-4.7,1.1-4.6,4.2c0.1,2.7,2.5,4.6,5.6,4.4c1.9-0.1,3.7-0.6,5.9-1l-2.1,4.4c-3.1,6.2-5.3,12.6-4.9,19.7
	c0.3,4.7,2.5,7.8,7.1,8.6c5.8,1.1,11.4,0.7,16.8-2.1c2.7-1.4,3.7-3.7,4-6.4c0.2-2.6-1-4.3-3.8-3.9c-2.5,0.4-5,1.1-7.2,2.1
	c-5.1,2.4-6.9,1.5-6.3-4.1C688,540.2,688.9,535.8,690,531.7"/>
<path class="st1" d="M370.9,523.1c-1.3-5.2-4.9-6.3-9.7-3.7c-3.3,1.7-6.5,3.5-10.2,5.6c0.5-2.6,1.1-4.6,1.1-6.6l-1.4-3.7l-4.7,0.7
	l-1.9,3.2c-2.1,8.1-4.4,16.3-6,24.5c-0.7,3.6-0.4,7.4,0.2,11.1l4.1,3.2l3-3.3c0.7-2.3,0.8-4.8,1.1-7.2c0.7-5.8,2.5-11.1,7.1-14.9
	c2.4-2,5.5-3.8,8.4-2.3c1.3,0.7,1.5,4.1,1.5,6.3c0,6.7-0.3,13.5-0.5,20.2c0,2.5,0.8,4.5,3.2,5.4c2.5,0.9,4.8,0.2,6.2-2l1.4-5
	c0-4.7-0.2-9.4-0.6-14.1C372.7,534.6,372.3,528.7,370.9,523.1"/>
<path class="st1" d="M430.1,542l-4-0.8c-3,0.9-5.9,2.2-8.8,3.4c-3.2,1.4-6.2,3.4-9.6,4.2c-4.7,1.1-7.3-2.1-5.3-6.4
	c3.1-6.8,7.7-12.4,14.2-16.4l3.1-0.9l0.4,3.2l1.2,4.1l4.6-1.1c3.4-2.6,3.2-6.6,3.1-10.3c-0.1-4.5-3.1-7.3-7.5-6.7
	c-3.7,0.5-7.9,1.3-10.9,3.3c-10.5,7.2-16.3,17.6-17.9,30.1c-0.9,6.4,3.2,10.6,11.1,10.5c2-0.5,5.8-1,9.3-2.1
	c6.3-2.1,12.6-4.6,17.7-9.2C432.9,545.1,432.7,543.2,430.1,542"/>
<path class="st1" d="M251.5,516.7l-4.3,1.9c-4.3,2.8-8.6,5.7-12.8,8.5c-1-2.7-1.4-5.4-2.8-7.3l-4.9-2l-3.1,3.4l-0.6,5.1
	c-0.3,9-0.5,17.9-0.8,26.9c-0.1,3.8,0.9,5.3,4,5.6c3.5,0.3,5.9-1.7,6.2-5.2c0.2-2,0.3-4,0.5-6.1c0.5-4.7,2-9.2,6-11.9
	c4.5-3.1,9.5-5.6,14.2-8.3l3.3-2.4c1.9-2,1.8-4.7,0.2-6.4L251.5,516.7z"/>
<path class="st1" d="M591,518.6c-1.2-2.3-3.2-2.6-5.4-2l-4.3,2c-4.4,2.8-8.7,5.7-13.5,8.9c-0.2-2-0.2-3.4-0.4-4.7
	c-0.6-3.1-3.1-5.3-6-5.3c-3.4,0.1-3.6,2.8-4,5.2l-0.4,3.5c-0.3,9.1-0.5,18.2-0.8,27.3c-0.1,4.2,2.7,6.3,6.7,4.9
	c2.3-0.8,3.5-2.3,3.8-4.9c0.4-4.2,0.8-8.6,2.2-12.5c2-5.6,7.6-7.8,12.4-10.5c3.1-1.7,6.2-3.2,9.1-5.3
	C592.5,523.6,592.2,521,591,518.6"/>
<path class="st1" d="M143.2,539.9c-4.2-2-8.5-3.7-12.6-5.9c-2.8-1.5-2.6-4.9,0.2-6.6c4.4-2.8,7.8-2.4,11.7,1.4
	c2,1.9,4.4,1.6,5.7-0.9c1.2-2.3-0.2-5.5-2.8-7c-6.4-3.7-12.9-2.7-19,0.5c-4,2.1-6.4,6.1-6,10.9c0.4,4.3,3,7.1,7,8.7
	c3,1.1,6.1,2.1,8.8,3.7l2.8,4.3l-4.2,3.3c-3.9,1.4-7.2-0.4-10.4-2.7l-3.8-0.7l-1.6,3.7c0.1,3.8,3.2,6.6,7.1,7c1.7,0.2,3.4,0,5.5,0
	c4.2,0.7,8.3-0.6,12.1-3.1c3.2-2.1,5.1-5.1,5.1-9C148.8,543.5,146.4,541.4,143.2,539.9"/>
<path class="st1" d="M383.4,520.4l-1.7,2.6c-1.3,4.8-3,9.6-3.7,14.5c-0.8,5.6-1.2,11.3-1.1,16.9c0,3.9,1.9,5.1,5.5,5.1
	c4,0,5.8-2.2,6-7c0.4-9.9,0.9-19.8,1.2-29.7l-1.6-4.4L383.4,520.4z"/>
<path class="st1" d="M124.8,500.9c0-2.6-2.1-6.1-4-5.7c-2.8,0.5-5.3,2.1-7.9,3.3l1,2.5c1.9,1.8,2.3,3.7,1.3,6l-1.4,3.2l-0.2,1.9
	l2,0.3C119.9,511.5,124.8,505.3,124.8,500.9"/>
<path class="st1" d="M393,505.5l-1.1-5.3l-3.1-2.9l-4.4,2.2c-2.3,3.1-2.2,6.8-1.2,10.4c0.7,2.4,2.5,3.9,5.3,3.6
	c2.7-0.4,4-2.1,4.3-4.7L393,505.5z"/>
<path class="st0" d="M274.2,525.8c-5.3,2.3-9.2,6.1-11.7,11.3l-0.3,5.3l4.9,1.3c5.6-0.3,9.7-3.5,13.1-7.5l2.4-5.1
	C282.1,526.2,278.5,523.9,274.2,525.8"/>
<path class="st0" d="M188.4,515c-8.5,5.2-11.7,13.5-10.6,23.3c0.7,6.7,5.8,11.3,12.4,11.4l4.1-0.5c10.4-4,17.7-13.1,15.6-25.5
	C207.8,511.4,197.6,509.4,188.4,515"/>
<path class="st0" d="M19.3,514.9c-7.1,4.2-10.8,11-10.9,20.2l0.4,4c1.3,7.8,8.5,12.6,16.5,10c10.7-3.6,17.4-13.7,15.4-25.1
	C38.7,511.9,29,509.3,19.3,514.9"/>
<path class="st0" d="M317.3,535.9c-5.2,1.1-9.3,4.2-12.4,8.4l-0.6,3.8l3,1.9c5.9-1.3,10.8-3.5,14.2-8.1l0.4-4.6L317.3,535.9z"/>
<path class="st0" d="M535.5,535.9c-5.1,1-9,4.2-12.2,8.2l-0.8,3.8l3.1,2.2c6.1-1.3,11-3.6,14.3-8.2l0.3-4.6L535.5,535.9z"/>
<path class="st0" d="M645.8,537.3c3.9-2,7.9-3.8,11.7-6l1.8-3.6l-4.6-2c-4.8,0.8-8.7,3.3-11.2,7.6
	C642.3,535.3,643.2,536.5,645.8,537.3"/>
</svg>
