<?xml version="1.0" encoding="utf-8"?>
<!-- Generator: Adobe Illustrator 19.2.1, SVG Export Plug-In . SVG Version: 6.00 Build 0)  -->
<svg version="1.1" id="layer" xmlns="http://www.w3.org/2000/svg" xmlns:xlink="http://www.w3.org/1999/xlink" x="0px" y="0px"
	 viewBox="0 0 652 652" style="enable-background:new 0 0 652 652;" xml:space="preserve">
<style type="text/css">
	.st0{fill:#A90533;}
	.st1{fill:#FFFFFF;}
	.st2{fill:#231F20;}
</style>
<path class="st0" d="M229.4,203c2.2,4.8,1.8,10.5,1.7,16c2.5,0.8,3.8,3.4,4.6,5.6c0.8,3.8-0.1,8.1-1.7,11.4c2.9,2.5,5.4,6,4.6,10
	c-0.3,5.1-4.8,8.2-9.1,9.7c-1.8,1.1-2.6,2.7-2.5,4.8c0.3,0.9-0.1,2,0.7,2.7c7.4-5.1,16.1-8.8,25.1-5.7c2.8,1.2,5.3,3.3,7.1,5.9
	c-1.3-0.2-2.9-1-4.5-0.6c4.9,1.8,8.3,6.8,9.5,11.7c5.2,6.2,15.6,2.6,21.7,7.2c2.9,1.9,6.4,5,6.7,8.6c-2.4,8.4,4.5,13.9,9.3,19.5
	c3.2,4.4,3.2,10.6,0.8,15.3c-2.1,3.5-5,6.7-5.2,11.2c0.8,7.4,2.8,17.2-3.8,22.9c-6.7,6.5-15.3,9.5-24.6,7.1c-2.4-0.7-5.5-1.9-8-0.7
	c-5.5,4.3-2.6,12.3-7.6,16.9c-1,0.8-1.6,2.3-3.1,2.5c-0.9-7.9-5.1-16.1-12.2-20.8c3.8,4.3,5.7,10,3.8,15.8
	c0.6,7.3,10.2,10.7,11.4,17.9c0.5,3.1,0.8,6.8-0.5,9.7c-0.9-2-2.7-4.4-4.7-5.4c3.1,6.9,5.9,14.7,3.2,23.2c-1.4,2.7-2.1,5.8-4.8,7.8
	c0.1,4.9-2.2,9.7-7.1,11.8l-4.2,0.8c-6.4,8.9-16.6,12.5-27.2,11.3c-13.3-1.3-21.6-12.1-33-17.2c-1.9-0.3-3.9-1.1-5.7-0.7
	c1.5,1.3,4,1.2,5.8,2.2c1.6,0.9,3.3,2,4.4,3.7c-9.2-2.6-20,1.5-27.5-5.3c-7.2-5.2-7.7-13.6-7.5-21.6c-3-5.6-9.5-10.7-7-18
	c0.4-0.3,0.3-1.1,0.4-1.6c-5.5,4.6-4.6,13.8-4.7,20.7c-0.2,3.6-2.8,6.1-6,7.5c-8,1.5-15.4-8.4-22.9-1.5c-2.8,2.9-5.8,6.6-10.1,6
	c-3.9-0.3-7.2-4.4-11.3-1.9c-5.8,3.6-14.4,5.3-20.7,1.2c-1.2-0.8-2.8-1.8-3.4-3.2c3.4-0.2,6.7-0.5,9.5-2.2
	c-11.4,0.7-27.2,1.5-32.8-10.8c-0.3-4.3-5.5-5.3-7.8-8.9c-6.2-7.3-10-15.9-7.7-25.9c1-3.2,2.6-6.1,5.3-8.5
	c-1.8-6.1-1.5-15.2,2.9-20.3c4.1-4.4,11.7-5.2,13.1-11.6c1.9-4.8,1.1-11.4,7.1-13.8c4.4-1.8,10.2,0.8,14.3-2c1-1.1,2.7-1.7,2.9-3.2
	c-9.8-1.7-21.5-5.4-23.5-16.5c-1.1-2.5-4.7-1.4-6.8-2.5c-3.6-1.4-6.9-4.7-7.4-8.6l0.5-4c-6.4-4.5-7-12.2-5.5-19.6
	c0.8-3.5,2.5-6.6,4.1-9.7c0.7,2.1,1.6,4.2,2.9,6.2l0.2-0.2c-2.9-9.3-3.5-22.5,3.6-30.3c3.7-4.3,8.9-6,14.2-6c2.5-4.6,7.6-8.6,12.8-9
	c5.5-0.8,9,3.1,14.5,2.4c4-1.3,9.3-4.3,13-0.2c2.8,3.6,1.6,10.6,7.8,11c5.9,0.4,12.2-3.8,17.5,0.6c4.4,6.6,1.5,15.8,8.8,21.3
	c1.1,0.7,2.5,1.9,3.7,1.5c-2.5-9.2,0.2-20.1,5.3-27.6l0.4,0c-0.3,2.5,0.4,4.6,0.8,6.7l0.6-0.7c0.3-9.7,4.9-19.1,14.4-22.2l5.7,0.5
	c6-11.5,15-25.8,29.9-25.9c3.2,0.4,6.1,1.7,8.2,4.5c4.8-2.3,9.7-4.6,15.4-4.1C216.9,188.8,225.4,194,229.4,203"/>
<path class="st1" d="M226.4,318.4c0.8,0.9,0.6,2.4,0.3,3.4c-1.1,1.5-2.8,2.3-4.6,2.3c-1.9,0.1-3.5-0.8-4-2.5c-0.5-2,1.2-3.5,2.6-4.1
	C222.4,316.9,225.2,316.7,226.4,318.4"/>
<path class="st1" d="M170.8,276.8c0.3,1.4-0.4,2.7-1.3,3.7c-1.6,0.8-3.5,1.7-5.4,0.8c-1.1-0.2-1.9-1.5-2.2-2.4
	c-0.1-1.8,1.2-3.4,2.8-4C166.6,274,169.7,274.5,170.8,276.8"/>
<path class="st1" d="M263.7,323.9c-0.4,5.5-0.3,6.1-2.1,9.5c-1.3,2.3-3.5,4.1-6.3,5.4c-1.9,0.8-4.3,1.8-6.4,0.6
	c2.5-7.9,4.9-19.1-1.7-25.7c-2.4-1.9-5.7-3.6-8.9-2.4c-4.1,1.4-6.8,5.3-7.7,9.2c-1,9.7,2.4,18.7,10.2,24.7c-0.4,2.4-2.6,4.2-4.7,5.3
	c-1.5,0.4-3.1-0.3-4.2-1.3c-3.4-6.6-4.1-14.2-6.3-21.3c-1.8-0.1-3.7,1.1-5.4,2.4c-0.7,2.3,0.2,4.5,0.4,6.7c-0.2,5.7,4.9,10.9,1,16.7
	c-1,1.6-2.9,3.9-5.2,3.3c-2.9-0.6-4.8-4.1-5.5-6.6c-1.3-4.4-2.1-9.2-2-13.8c2.4-1.3,4.8-3.1,6.8-5.1c1.5-2.7,0.5-5.9-0.2-8.6
	c-2.6,0.9-4.7,4.4-7.5,4.9c-1-4.6-0.6-9.7-1.2-14.4c-2.3,0-5.5,0.3-6.7,2.7l0.4,15.4c-3.4,2-7.1,2.6-10.8,3.3c-0.9-4.4,0-9.3,0-13.9
	l-0.6-1.2c-2.2,0.2-4.4,0.5-6.3,1.8c-1,4.8-1.5,10.3-1.3,15.1c-0.9,2.9-4.8,3-7,5.1c-1.5,2.3-1.2,5.8-0.5,8.4
	c2.6-0.3,4.5-2.8,7.1-3.2c1,5.5,1.3,11.2,2.4,16.8c-0.9,3.6-2.1,7.4-6,9c-2.3,0.7-3.9-1-5.2-2.6c-4.5-7.4-2.2-16.8-2-25.7l-0.3-0.6
	c-2.6,0.4-6,0.2-7.1,3c-4.7-0.4-8.6,1.7-12.1,5.1c-6.1,6.9-9.1,18.2-5,27c-2,1.9-4.3,4.9-7.3,4.5c-2.9,0.1-4.9-2.7-5.8-5
	c-2.2-10,0.6-21.3,4.9-29.9c4.1-2.1,7.9-5.8,9.8-9.8c1.3-3.4,3-7.7,0.5-11c-1.2-0.8-2.4-0.6-3.8-0.5c-8.3,4.2-11.6,13-15,20.8
	c-1.8,3.9-6.8,3.9-10.4,5.4l-0.3-0.4l2.5-11.1c4-3.6,7.1-8,6.1-13.5c-0.6-1.7-1.8-3.3-3.6-3.4c-8.1,0.3-8.1,9.3-11.1,14.5
	c-12.7,5.6-24.4-6.4-37.3-2c-3.4,1.7-6.5,4.4-7.7,7.9c-0.7,3.9-0.6,8,2.6,10.7c2.3,2,6,3.5,8.8,2.1c-1.1-2.1-1.9-4.2-1.5-6.8
	c3.8-12.9,18.1-3.4,27.2-4.7c2.5,0.3,4.7-0.6,7-0.3c-0.5,4.2-2,7.8-3.6,11.4c-13.5,6.1-33.2,8.8-38.1,26.2c-0.7,4-0.6,8.3,2.2,11.4
	c4.6,4.5,12.4,4.8,18,2.5c15.2-6.3,21.8-21.5,26-35.8c3.1-0.8,6.2-2.6,9.2-2.8c-2.3,11.2-3.8,24,3.2,33.2c1.9,1.5,4.2,2.5,6.9,2.1
	c5.8-0.4,10.7-6,13.4-10.7c2.3,1.2,4.5,3,7.4,2.4c4.7-0.9,8.2-5.6,10-9.6c2,2.5,4.3,5.2,7.5,5.8c6.6,0.3,10-6.5,12.6-11.3
	c2.4,3.3,5.7,6.1,10,5.6c6.2-2.2,8.6-8.4,10.7-13.7c2.9,2.2,5.8,5.3,10,4.3c5.2-2.1,7.2-7.3,9.2-11.8c2.4,2.1,4.6,5,8.2,4.5
	c5.8-1.4,9-7.1,11.5-11.8c3,0.8,6.2,0.5,9-0.2c7-3,10.7-10.2,10.7-14.8C265.4,330.9,265.2,326.7,263.7,323.9 M85.5,388
	c-1.6-0.1-3.2-0.1-4.2-1.5c-1.6-3,0-6.8,1.9-9.1c6.3-6,14.1-8.5,21.7-10.9C101.6,375.2,95.8,385.8,85.5,388 M156.2,375.3
	c-1.9,0.6-3.2-1.3-4-2.8c-1.4-5.7,0.3-12.1,4.1-16.2c1.3-1.4,2.9-2.7,4.9-2.8c0.7,0.1,1,0.9,1,1.6
	C161.9,362,163.3,371.7,156.2,375.3 M200.1,363.9c-1.3,1.2-3.1,1.4-4.6,0.8c-5.8-5.3-5.6-13.3-5.8-20.8c3.5-1.4,7.3-2.3,11.1-3.3
	C200.2,348.8,207.4,356.9,200.1,363.9 M243.9,337.3c-4.8-3.5-7-9.6-7-15.5c0.4-1.6,1.1-3.5,2.8-3.9c2-0.2,3.5,1.2,4.1,2.8
	C246,325.6,246.2,332.2,243.9,337.3"/>
<path class="st1" d="M222.5,282c-1.5-5.3-5.8-11.5-11.9-12.1c-3.7-0.4-7,2-9.2,4.9c-5.7,6.6,0.5,16-4.3,22.9c-1,1.7-2.9,2.6-4.9,2.2
	c-2-1-3-3-3.8-4.8c-2.4-11.9-0.7-26.1,0.6-38.3c0.2-1.2-0.3-2.4-1.9-2.1c-1.8,0.7-4.6,0.2-5.2,2.8c-1.6,11.4-3.4,22.1-2.9,33.5
	c-0.7,5.4,3.1,12.3-3,16c-1.2,0.8-2.5,1.4-4.2,1c-6.4-4.9-3.2-14.5-2.4-21.6l-0.5-0.9c-2.3,0-4.4,0.9-6.3,2c-2.4,6.3-3,13.7-3,20.5
	c-2.1,2.4-4.7,3.9-7.9,3.4c-1.9-1-3.5-2.9-4.1-5c-2-8.3,0-18.6,2.9-26.4c1.4-6.3,9.7-8.8,11.3-15.2c0.6-3.1,1.9-7.4-0.6-10
	c-1.1-0.7-2.2-0.7-3.5-0.5c-8.3,4.7-10.8,14.5-14.5,22.7l-1,1.1c-3.1,1.5-6.3,3.3-9.5,3.5l2.7-11.6c1.8-2.9,4.6-5.1,5.7-8.2
	c0.7-2.4,1.3-5.5-0.3-7.5c-1-1.6-2.8-2.1-4.5-1.8c-6.6,1.9-7.1,9.3-9.5,14.7c-10.6,5.2-21.2-2.3-32-2.2c-4.9,0.3-10.9,3.5-12.4,8.6
	c-1.6,3.8-0.3,7.7,2,10.6c2.3,2.6,6.2,3.6,9.4,3c-0.1-1.4-1.1-2.5-1.4-3.8c-0.7-2.9,0.4-5.8,2.2-7.8c4-4.1,10.6-2.3,15.5-1.3
	c5,1.2,10.6,0.4,15.3,0.2l-2.6,10.5l-0.9,1c-12.7,5.9-30.3,8.8-36.2,24c-1.5,5.1-1.1,10.6,2.3,14.5c3.2,3.4,9,3.7,13.3,2.9
	c13.4-2.9,21.2-16.2,25.9-27.7c1.1-3.2,1.9-6.6,3.3-9.8l8.8-3l0.4,0.4c-0.8,4.7-1.7,9.6-1.7,14.5c0.4,7.7,0.6,17.5,9.1,20.5
	c6.2,1.1,11.5-3.4,15-7.9c2.1,3.3,5.3,4.9,8.9,4.6c5.6-1.4,8.6-7,11.3-11.4c1.9,2.4,4.2,3.9,7,4.7c7.4,0.2,10.4-7.7,12.9-13
	c2.2,2.5,4.6,4.3,7.6,5.3c2.8,0.3,5.3-0.2,7.6-1.6C223.7,298.1,223.9,289,222.5,282 M101.3,316.6c-1.8,0-3.4-0.3-4.4-1.9
	c-1.7-4,0.9-7.5,3.1-10.5c5.9-5.3,13.1-8,20-10C117.2,303,111.8,313.9,101.3,316.6 M212.8,294.9c-1.6,0.6-2.7-0.6-3.7-1.4
	c-2.9-4-4-9.2-2.6-14.2c0.7-1.3,1.4-2.9,3-3.3c1.3-0.4,2.4,0.6,3.5,1.2c2.3,2.6,3,5.7,3.3,8.9C216.5,289.5,215.9,293.3,212.8,294.9"
	/>
<path class="st2" d="M281.7,391.7c2,2.1,3.1,4.5,3.1,7.4c0,2.9-1,5.4-3.1,7.5c-2,2-4.5,3.1-7.4,3.1s-5.4-1-7.4-3.1
	c-2-2.1-3-4.5-3-7.5c0-2.9,1-5.3,3-7.4c2.1-2,4.5-3.1,7.4-3.1C277.2,388.6,279.7,389.7,281.7,391.7 M282.9,390.5
	c-2.3-2.4-5.2-3.5-8.6-3.5c-3.3,0-6.2,1.2-8.6,3.5c-2.4,2.4-3.5,5.2-3.5,8.6c0,3.4,1.2,6.3,3.5,8.6c2.4,2.4,5.2,3.6,8.6,3.6
	c3.4,0,6.3-1.2,8.6-3.6c2.4-2.4,3.6-5.3,3.6-8.6C286.5,395.8,285.3,392.9,282.9,390.5 M276.2,398.6c-0.5,0.2-1.3,0.3-2.2,0.3h-2.1
	V394h2c1.3,0,2.2,0.2,2.8,0.5c0.6,0.3,0.9,1,0.9,1.9C277.5,397.5,277.1,398.2,276.2,398.6 M269.5,405.8h2.3v-5.3h1.8
	c1.3,0,2.1,0.1,2.6,0.4c0.8,0.5,1.3,1.5,1.3,3.1v1l0,0.4c0,0.1,0,0.1,0.1,0.2v0.1h2.2l-0.1-0.2c0-0.1-0.1-0.3-0.1-0.7
	c0-0.3,0-0.7,0-1v-1c0-0.7-0.2-1.4-0.7-2.1c-0.5-0.7-1.3-1.2-2.3-1.3c0.8-0.2,1.5-0.3,2-0.6c0.9-0.6,1.3-1.5,1.3-2.7
	c0-1.6-0.7-2.8-2.1-3.4c-0.8-0.3-2-0.4-3.6-0.4h-4.7V405.8z"/>
<path class="st2" d="M616.7,343.2c1.5,1.5,2.3,3.4,2.3,5.5c0,2.2-0.8,4-2.3,5.6c-1.5,1.5-3.3,2.3-5.5,2.3c-2.2,0-4-0.8-5.5-2.3
	c-1.5-1.5-2.3-3.4-2.3-5.6c0-2.2,0.8-4,2.3-5.5c1.5-1.5,3.4-2.3,5.5-2.3C613.4,340.9,615.2,341.7,616.7,343.2 M617.6,342.3
	c-1.7-1.8-3.9-2.6-6.4-2.6c-2.5,0-4.6,0.9-6.4,2.6c-1.8,1.8-2.7,3.9-2.7,6.4c0,2.5,0.9,4.7,2.6,6.4c1.8,1.8,3.9,2.7,6.4,2.7
	c2.5,0,4.7-0.9,6.4-2.7c1.8-1.8,2.7-3.9,2.7-6.4C620.3,346.2,619.4,344.1,617.6,342.3 M612.6,348.3c-0.4,0.2-0.9,0.2-1.7,0.2h-1.6
	v-3.6h1.5c1,0,1.7,0.1,2.1,0.4c0.5,0.2,0.7,0.7,0.7,1.5C613.6,347.5,613.3,348,612.6,348.3 M607.6,353.6h1.7v-3.9h1.4
	c0.9,0,1.6,0.1,2,0.3c0.6,0.3,0.9,1.1,0.9,2.3v0.8l0,0.3c0,0,0,0.1,0,0.1v0.1h1.6l-0.1-0.1c0-0.1-0.1-0.3-0.1-0.5c0-0.3,0-0.5,0-0.7
	v-0.7c0-0.5-0.2-1-0.5-1.5c-0.4-0.5-0.9-0.9-1.7-1c0.6-0.1,1.1-0.2,1.5-0.5c0.6-0.4,0.9-1.1,0.9-2c0-1.2-0.5-2.1-1.5-2.5
	c-0.6-0.2-1.5-0.3-2.7-0.3h-3.5V353.6z"/>
<path class="st2" d="M346.1,265.1c-0.2-0.7-0.5-2.5-0.6-3.9c-2.6-1.6-6.3-2.3-11.2-2.3c-0.2,3.5-0.2,10.4-0.2,15.1s0,11.6,0.2,15.1
	c0.8,0.1,3.5,0.3,4.6,0.6c0.2,0.1,0.4,0.2,0.4,0.4c0,0.3-0.2,0.5-0.5,0.5c-0.5,0-3.2-0.3-7.2-0.3c-4,0-6.8,0.3-7.2,0.3
	c-0.3,0-0.5-0.2-0.5-0.5c0-0.2,0.2-0.4,0.4-0.4c1.1-0.4,3.8-0.6,4.6-0.6c0.2-3.5,0.2-10.3,0.2-15.1s0-11.6-0.2-15.1
	c-4.8,0-8.8,0.7-11.2,2.3c-0.1,1.3-0.4,3.2-0.6,3.9c-0.1,0.2-0.1,0.4-0.4,0.4c-0.4,0-0.6-0.3-0.6-0.7c0-0.4,0.3-3,0.3-4.6
	c0-1.2-0.3-4.4-0.3-5c0-0.4,0.2-0.7,0.6-0.7c0.3,0,0.4,0.2,0.5,0.5c0.2,0.7,0.2,1.5,0.2,1.9c3.5,0.8,10.8,0.9,14.1,0.9
	c3,0,10.6-0.1,14.1-0.9c0.1-0.4,0.1-1.1,0.3-1.9c0.1-0.3,0.3-0.5,0.5-0.5c0.4,0,0.6,0.4,0.6,0.7c0,0.7-0.3,3.8-0.3,5
	c0,1.6,0.3,4.2,0.3,4.6c0,0.4-0.2,0.7-0.6,0.7C346.2,265.5,346.1,265.2,346.1,265.1"/>
<path class="st2" d="M368,278.4c0-2.9,0-7.6-0.2-10c-0.5,0-2.4-0.2-3.2-0.5c-0.1,0-0.3-0.1-0.3-0.3c0-0.2,0.2-0.4,0.4-0.4
	c0.2,0,2.2,0.2,5,0.2c2.8,0,4.7-0.2,5-0.2c0.2,0,0.4,0.2,0.4,0.4c0,0.1-0.1,0.3-0.2,0.3c-0.8,0.3-2.7,0.4-3.2,0.5
	c-0.1,2.4-0.1,7.2-0.1,10.5c0,3.3,0,8.1,0.1,10.6c0.5,0,2.4,0.2,3.2,0.4c0.1,0,0.2,0.1,0.2,0.3c0,0.2-0.1,0.3-0.4,0.3
	c-0.3,0-2.2-0.2-5-0.2c-2.8,0-4.8,0.2-5,0.2c-0.2,0-0.4-0.1-0.4-0.3c0-0.2,0.2-0.3,0.3-0.3c0.8-0.3,2.7-0.4,3.2-0.4
	c0.2-2.4,0.2-7.2,0.2-10.2h-11.8c0,2.9,0,7.8,0.1,10.2c0.5,0,2.4,0.2,3.2,0.4c0.1,0,0.3,0.1,0.3,0.3c0,0.2-0.1,0.3-0.4,0.3
	c-0.3,0-2.2-0.2-5-0.2c-2.8,0-4.8,0.2-5,0.2c-0.2,0-0.4-0.1-0.4-0.3c0-0.2,0.1-0.3,0.2-0.3c0.8-0.3,2.7-0.4,3.2-0.4
	c0.2-2.4,0.2-7.2,0.2-10.6c0-3.3,0-8.1-0.2-10.5c-0.5,0-2.4-0.2-3.2-0.5c-0.1,0-0.2-0.1-0.2-0.3c0-0.2,0.1-0.4,0.4-0.4
	c0.3,0,2.2,0.2,5,0.2c2.8,0,4.8-0.2,5-0.2c0.2,0,0.4,0.2,0.4,0.4c0,0.1-0.1,0.3-0.3,0.3c-0.8,0.3-2.7,0.4-3.2,0.5
	c-0.1,2.4-0.1,7.1-0.1,10H368z"/>
<path class="st2" d="M383.9,279.2c0,3.2,0,7.9,0.1,10.3c0.5,0.1,1,0.1,1.6,0.1c3.3-0.2,7.6-0.6,10-1.6c0.1-0.8,0.3-2,0.4-2.4
	c0-0.1,0.1-0.3,0.3-0.3c0.3,0,0.4,0.2,0.4,0.5c0,0.4-0.2,1.7-0.2,2.9c0,1.1,0.2,2.6,0.2,3.2c0,0.2-0.1,0.5-0.4,0.5
	c-0.2,0-0.3-0.2-0.4-0.4c-0.2-0.4-0.2-0.8-0.2-1.1c-2.4-0.4-4.6-0.5-10.1-0.5c-2.4,0-4.4,0-5.9,0.1c-1.5,0-2.4,0.1-2.7,0.1
	c-0.2,0-0.4-0.2-0.4-0.3c0-0.2,0.1-0.3,0.3-0.3c0.8-0.3,2.7-0.4,3.2-0.4c0.2-2.4,0.2-7.2,0.2-10.6c0-3.3,0-8.1-0.2-10.5
	c-0.5,0-2.4-0.2-3.2-0.5c-0.1,0-0.3-0.1-0.3-0.3c0-0.2,0.1-0.4,0.4-0.4c0.2,0,1.2,0,2.7,0.1c1.5,0,3.5,0.1,5.9,0.1
	c4.9,0,7.3-0.1,9.7-0.3c0.1-0.5,0.2-1.1,0.3-1.4c0.1-0.1,0.1-0.3,0.3-0.3c0.2,0,0.3,0.2,0.3,0.5c0,0.5-0.2,2-0.2,3
	c0,1,0.2,2.4,0.2,3.2c0,0.3-0.1,0.5-0.4,0.5c-0.2,0-0.3-0.2-0.4-0.4c-0.2-0.7-0.3-1.9-0.3-2.4c-2-1.1-6.4-1.5-9.6-1.6
	c-0.5,0-1.1,0-1.6,0.1c-0.1,2.3-0.1,6.8-0.1,10.2h1.7c2.1,0,7-0.5,8.7-1.3c0.1-0.6,0.2-1.3,0.4-2.1c0.1-0.2,0.2-0.2,0.3-0.2
	c0.2,0,0.3,0.2,0.3,0.4c0,0.5-0.2,1.6-0.2,3.3c0,1.9,0.2,3.1,0.2,3.8c0,0.2-0.1,0.4-0.3,0.4c-0.1,0-0.3-0.1-0.3-0.3
	c-0.3-0.6-0.4-2-0.5-2.6c-1.7-0.5-6.5-0.9-8.7-0.9H383.9z"/>
<path class="st2" d="M434.9,266.5c0,0.7,0,0.9-0.5,0.9c-0.7,0-0.7-3.3-0.7-3.8c-2.4-2.1-5.6-4.1-10.4-4.1c-3,0-8.4,0.8-8.4,5.5
	c0,6.7,10.2,4.8,15.7,6.7c3.8,1.4,5.9,4.3,5.9,8.8c0,6.8-5.2,10.7-12.2,10.7c-3.8,0-5.5-0.6-9.4-2c-0.2,1.2-0.3,4.4-1,4.4
	c-0.4,0-0.5-0.4-0.5-0.6c0-0.9,0.3-4.4,0.3-6.6c0-2.4-0.3-6.5-0.3-7.3c0-0.3,0.1-0.5,0.4-0.5c0.9,0,1,2.6,1.1,4.3
	c3.3,3.1,6.7,5.2,12,5.2c4.5,0,7.8-1.3,7.8-5c0-7.8-12.6-5.1-17.4-8.1c-2.6-1.6-4-5.1-4-8.2c0-6.6,5.5-10.1,11.7-10.1
	c3.8,0,5.7,0.5,8.9,1.6c0.3-2.3,0.5-3.9,1.1-3.9c0.3,0,0.4,0.4,0.4,0.6c0,0.4-0.4,4.5-0.4,6.5V266.5z"/>
<path class="st2" d="M460.9,272.7c-0.1-0.5-0.3-1.8-0.4-2.7c-1.8-1.1-4.4-1.6-7.8-1.6c-0.1,2.4-0.1,7.2-0.1,10.6
	c0,3.3,0,8.1,0.1,10.5c0.5,0,2.4,0.2,3.2,0.4c0.1,0,0.3,0.2,0.3,0.3c0,0.2-0.2,0.3-0.4,0.3c-0.3,0-2.2-0.2-5-0.2
	c-2.8,0-4.8,0.2-5,0.2c-0.2,0-0.4-0.2-0.4-0.3c0-0.2,0.1-0.3,0.3-0.3c0.8-0.2,2.7-0.4,3.2-0.4c0.1-2.4,0.1-7.2,0.1-10.5
	c0-3.3,0-8.1-0.1-10.6c-3.4,0-6.2,0.5-7.8,1.6c-0.1,0.9-0.3,2.2-0.4,2.7c0,0.1-0.1,0.3-0.3,0.3c-0.3,0-0.4-0.2-0.4-0.5
	c0-0.3,0.2-2.1,0.2-3.2c0-0.8-0.2-3-0.2-3.5c0-0.2,0.1-0.5,0.4-0.5c0.2,0,0.3,0.1,0.4,0.3c0.1,0.5,0.1,1,0.2,1.3
	c2.4,0.5,7.6,0.6,9.9,0.6c2.1,0,7.4-0.1,9.9-0.6c0-0.3,0-0.8,0.2-1.3c0.1-0.2,0.2-0.3,0.4-0.3c0.3,0,0.4,0.3,0.4,0.5
	c0,0.5-0.2,2.7-0.2,3.5c0,1.1,0.2,2.9,0.2,3.2c0,0.3-0.1,0.5-0.4,0.5C461,273,460.9,272.8,460.9,272.7"/>
<path class="st2" d="M488.4,279c0,6.3-5.1,12-12.2,12c-8.3,0-12.8-5.1-12.8-12c0-7.5,6-12.1,12.8-12.1
	C484,266.9,488.4,272.1,488.4,279 M484,279c0-4.4-1.6-11.4-7.8-11.4c-5.8,0-8.4,5-8.4,11.4c0,4.5,1.8,11.3,8.4,11.3
	C481.9,290.2,484,284.2,484,279"/>
<path class="st2" d="M499.4,280.2c-0.4-0.5-0.6-0.8-0.6-1c0-0.2,0.2-0.3,0.5-0.3c0.4,0,1.3,0.1,2.1,0.1c3.4,0,6.2-1,6.2-4.4
	c0-4.2-3.6-6.5-6.8-6.5c-1.2,0-2.1,0.3-2.6,0.4c-0.1,2.5-0.1,7.5-0.1,10.5c0,3,0,8,0.1,10.6c0.6,0,2.4,0.2,3.2,0.4
	c0.1,0,0.2,0.1,0.2,0.3c0,0.2-0.1,0.4-0.4,0.4c-0.3,0-2.4-0.2-5-0.2c-2.8,0-4.8,0.2-5,0.2c-0.2,0-0.4-0.2-0.4-0.4
	c0-0.2,0.2-0.3,0.3-0.3c0.8-0.3,2.7-0.4,3.2-0.4c0.1-2.4,0.1-7.2,0.1-10.6c0-3.3,0-8.1-0.1-10.5c-0.5-0.1-2.4-0.2-3.2-0.5
	c-0.1,0-0.3-0.1-0.3-0.3c0-0.2,0.2-0.4,0.4-0.4c0.7,0,3.8,0.2,5.1,0.2c1.5,0,4.1-0.2,6.2-0.2c4.1,0,8.7,1.2,8.7,5.6
	c0,4.9-4.8,6.3-7.8,6.7l4.9,7c1,1.4,1.9,2.8,3.2,2.8c0.8,0,1.2-0.3,1.4-0.3c0.2,0,0.3,0.1,0.3,0.3c0,0.5-1.9,1.9-4,1.9
	c-2,0-3.1-1.4-4.2-3.1L499.4,280.2z"/>
<path class="st2" d="M521.5,279.2c0,3.2,0,7.9,0.1,10.3c0.5,0.1,1,0.1,1.6,0.1c3.3-0.2,7.7-0.6,10-1.6c0.1-0.8,0.3-2,0.4-2.4
	c0-0.1,0.1-0.3,0.3-0.3c0.3,0,0.4,0.2,0.4,0.5c0,0.4-0.2,1.7-0.2,2.9c0,1.1,0.2,2.6,0.2,3.2c0,0.2-0.2,0.5-0.4,0.5
	c-0.2,0-0.3-0.2-0.4-0.4c-0.1-0.4-0.2-0.8-0.2-1.1c-2.4-0.4-4.6-0.5-10.1-0.5c-2.4,0-4.4,0-5.9,0.1c-1.5,0-2.4,0.1-2.7,0.1
	c-0.2,0-0.4-0.2-0.4-0.3c0-0.2,0.2-0.3,0.3-0.3c0.8-0.3,2.7-0.4,3.2-0.4c0.2-2.4,0.2-7.2,0.2-10.6c0-3.3,0-8.1-0.2-10.5
	c-0.5,0-2.4-0.2-3.2-0.5c-0.1,0-0.3-0.1-0.3-0.3c0-0.2,0.2-0.4,0.4-0.4c0.3,0,1.2,0,2.7,0.1c1.5,0,3.5,0.1,5.9,0.1
	c4.9,0,7.3-0.1,9.8-0.3c0.1-0.5,0.2-1.1,0.3-1.4c0.1-0.1,0.1-0.3,0.3-0.3c0.2,0,0.3,0.2,0.3,0.5c0,0.5-0.2,2-0.2,3
	c0,1,0.2,2.4,0.2,3.2c0,0.3-0.1,0.5-0.4,0.5c-0.2,0-0.3-0.2-0.4-0.4c-0.2-0.7-0.3-1.9-0.3-2.4c-2-1.1-6.3-1.5-9.6-1.6
	c-0.5,0-1.1,0-1.6,0.1c-0.1,2.3-0.1,6.8-0.1,10.2h1.7c2.1,0,7-0.5,8.8-1.3c0.1-0.6,0.2-1.3,0.4-2.1c0.1-0.2,0.2-0.2,0.3-0.2
	c0.2,0,0.3,0.2,0.3,0.4c0,0.5-0.2,1.6-0.2,3.3c0,1.9,0.2,3.1,0.2,3.8c0,0.2-0.1,0.4-0.3,0.4c-0.2,0-0.2-0.1-0.3-0.3
	c-0.3-0.6-0.4-2-0.5-2.6c-1.7-0.5-6.5-0.9-8.7-0.9H521.5z"/>
<path class="st2" d="M574.4,279c0,6.3-5.1,12-12.2,12c-8.3,0-12.8-5.1-12.8-12c0-7.5,6-12.1,12.8-12.1
	C570.1,266.9,574.4,272.1,574.4,279 M570.1,279c0-4.4-1.6-11.4-7.8-11.4c-5.8,0-8.4,5-8.4,11.4c0,4.5,1.8,11.3,8.4,11.3
	C567.9,290.2,570.1,284.2,570.1,279"/>
<path class="st2" d="M583.9,279.2c0,3.2,0,7.9,0.1,10.3c0.6,0,2.4,0.2,3.2,0.4c0.1,0,0.2,0.1,0.2,0.3c0,0.2-0.1,0.3-0.4,0.3
	c-0.3,0-2.2-0.2-5-0.2c-2.8,0-4.7,0.2-5,0.2c-0.2,0-0.4-0.2-0.4-0.3c0-0.2,0.1-0.3,0.2-0.3c0.8-0.3,2.7-0.4,3.2-0.4
	c0.1-2.4,0.1-7.2,0.1-10.6c0-3.3,0-8.1-0.1-10.5c-0.5,0-2.4-0.2-3.2-0.5c-0.1,0-0.2-0.1-0.2-0.3c0-0.2,0.1-0.4,0.4-0.4
	c0.2,0,1.2,0,2.7,0.1c1.5,0,3.5,0.1,5.9,0.1c4.9,0,7.3-0.1,9.7-0.3c0.1-0.5,0.2-1.1,0.4-1.4c0.1-0.1,0.1-0.3,0.3-0.3
	c0.2,0,0.3,0.2,0.3,0.5c0,0.4-0.2,1.9-0.2,3c0,1.4,0.2,2.8,0.2,3.2c0,0.3-0.1,0.5-0.4,0.5c-0.2,0-0.3-0.2-0.3-0.4
	c-0.3-0.7-0.3-1.9-0.3-2.4c-2-1.1-6.3-1.5-9.6-1.6c-0.5,0-1.1,0-1.6,0.1c-0.1,2.3-0.1,6.8-0.1,10.2h1.8c2.1,0,6.9-0.5,8.7-1.3
	c0.1-0.6,0.3-1.3,0.4-2.1c0.1-0.2,0.2-0.2,0.3-0.2c0.2,0,0.3,0.2,0.3,0.5c0,0.4-0.2,1.5-0.2,3.2c0,1.9,0.2,3.3,0.2,3.8
	c0,0.2-0.1,0.4-0.3,0.4c-0.2,0-0.3-0.1-0.3-0.3c-0.3-0.6-0.4-2-0.5-2.6c-1.7-0.5-6.5-0.9-8.6-0.9H583.9z"/>
<path class="st2" d="M357,324.6c0-6.1,0-15.7-0.3-20.7c-1.1-0.1-5-0.4-6.7-0.9c-0.2-0.1-0.5-0.3-0.5-0.6c0-0.4,0.3-0.7,0.7-0.7
	c0.5,0,4.6,0.4,10.4,0.4c5.8,0,9.8-0.4,10.4-0.4c0.4,0,0.8,0.3,0.8,0.7c0,0.3-0.3,0.5-0.5,0.6c-1.6,0.5-5.5,0.8-6.6,0.9
	c-0.3,5-0.3,14.9-0.3,21.8c0,6.9,0,16.8,0.3,21.8c1.1,0.1,5,0.4,6.6,0.9c0.2,0.1,0.5,0.3,0.5,0.6c0,0.4-0.3,0.8-0.8,0.8
	c-0.6,0-4.6-0.5-10.4-0.5c-5.8,0-9.9,0.5-10.4,0.5c-0.4,0-0.7-0.3-0.7-0.8c0-0.3,0.3-0.5,0.5-0.6c1.6-0.5,5.5-0.8,6.7-0.9
	c0.3-5,0.3-15,0.3-21h-24.4c0,6.1,0,16,0.3,21c1.1,0.1,5,0.4,6.6,0.9c0.2,0.1,0.5,0.3,0.5,0.6c0,0.4-0.3,0.8-0.7,0.8
	c-0.5,0-4.6-0.5-10.4-0.5c-5.8,0-9.8,0.5-10.4,0.5c-0.4,0-0.7-0.3-0.7-0.8c0-0.3,0.3-0.5,0.5-0.6c1.6-0.5,5.5-0.8,6.7-0.9
	c0.3-5,0.3-15,0.3-21.8c0-6.9,0-16.7-0.3-21.8c-1.1-0.1-5-0.4-6.7-0.9c-0.2-0.1-0.5-0.3-0.5-0.6c0-0.4,0.3-0.7,0.7-0.7
	c0.6,0,4.6,0.4,10.4,0.4c5.8,0,9.9-0.4,10.4-0.4c0.4,0,0.7,0.3,0.7,0.7c0,0.3-0.3,0.5-0.5,0.6c-1.6,0.5-5.5,0.8-6.6,0.9
	c-0.3,5-0.3,14.7-0.3,20.7H357z"/>
<path class="st2" d="M421.6,347.5c1,0.1,4.6,0.4,6.1,0.9c0.2,0.1,0.5,0.3,0.5,0.6c0,0.5-0.3,0.8-0.7,0.8c-0.5,0-4.6-0.5-10.6-0.5
	c-6.7,0-11.2,0.5-11.9,0.5c-0.5,0-0.7-0.3-0.7-0.8c0-0.3,0.3-0.5,0.5-0.6c2.1-0.4,6.6-0.7,8-0.8c-1-3.3-3.1-10-4.6-13.2H391
	c-1.5,4.2-3.4,10.5-3.7,13.1c1.4,0.1,6.1,0.4,8.1,0.9c0.2,0.1,0.5,0.3,0.5,0.6c0,0.5-0.3,0.8-0.7,0.8c-0.5,0-4.6-0.5-10.3-0.5
	c-5,0-8.6,0.5-8.9,0.5c-0.5,0-0.8-0.3-0.8-0.8c0-0.3,0.3-0.5,0.5-0.6c1.4-0.4,4.8-0.7,5.8-0.7c7.9-13.4,17.7-37.3,21-46.8
	c0.2-0.5,0.4-1,0.7-1c0.3,0,0.7,1.3,1.6,4.2c1.1,3.7,5.1,15,8.2,22.5L421.6,347.5z M407.6,332.9l-7.9-19.5
	c-1.7,3.8-6.8,15.9-8.1,19.5H407.6z"/>
<path class="st2" d="M455.3,318.6h0.2c0.5-3.1,2.7-11.4,3.2-14.7c-0.5-0.1-2.5-0.4-3.4-0.9c-0.2-0.1-0.5-0.3-0.5-0.6
	c0-0.4,0.3-0.7,0.7-0.7c0.7,0,6.4,0.4,14.1,0.4c9.6,0,16.5-0.4,17.3-0.4c0.4,0,0.8,0.3,0.8,0.7c0,0.3-0.3,0.5-0.5,0.6
	c-1.3,0.4-4.4,0.8-5.2,0.8c-5.3,9.7-15.7,34.9-19.4,44.2c-0.5,1.3-0.9,2.5-1.7,2.5c-0.7,0-1.3-1.5-2.1-3.4l-6.7-17
	c-2,5.2-6,15.1-7.2,18.6c-0.4,1-0.4,1.8-1.4,1.8c-0.7,0-0.9-0.7-1.4-1.7l-18-45c-0.9-0.1-4.3-0.4-5.6-0.9c-0.2-0.1-0.5-0.3-0.5-0.6
	c0-0.4,0.3-0.7,0.8-0.7c1.3,0,7.2,0.4,17.1,0.4c9.5,0,15.9-0.4,16.4-0.4c0.5,0,0.8,0.3,0.8,0.7c0,0.3-0.3,0.5-0.5,0.6
	c-0.8,0.2-2.4,0.4-2.9,0.4L455.3,318.6z M451.1,327.8l-9.3-23.9h-9.3l13.7,36.6L451.1,327.8z M463.6,340.5c2.5-5.9,5.3-13.8,8-21.6
	c2.6-7.5,4.1-12.7,4.6-15H464c-1.9,3.6-5.9,13.1-7.8,17.4L463.6,340.5z"/>
<path class="st2" d="M522.9,347.5c1,0.1,4.6,0.4,6.1,0.9c0.2,0.1,0.5,0.3,0.5,0.6c0,0.5-0.3,0.8-0.8,0.8c-0.5,0-4.6-0.5-10.6-0.5
	c-6.7,0-11.1,0.5-11.9,0.5c-0.5,0-0.8-0.3-0.8-0.8c0-0.3,0.3-0.5,0.5-0.6c2.1-0.4,6.6-0.7,8-0.8c-1-3.3-3.1-10-4.6-13.2h-17.2
	c-1.5,4.2-3.4,10.5-3.7,13.1c1.4,0.1,6.1,0.4,8.1,0.9c0.2,0.1,0.5,0.3,0.5,0.6c0,0.5-0.3,0.8-0.7,0.8c-0.5,0-4.6-0.5-10.3-0.5
	c-5,0-8.6,0.5-8.9,0.5c-0.4,0-0.7-0.3-0.7-0.8c0-0.3,0.3-0.5,0.5-0.6c1.4-0.4,4.8-0.7,5.8-0.7c7.9-13.4,17.7-37.3,21-46.8
	c0.2-0.5,0.4-1,0.7-1c0.3,0,0.7,1.3,1.7,4.2c1.1,3.7,5.1,15,8.1,22.5L522.9,347.5z M508.9,332.9l-7.9-19.5
	c-1.6,3.8-6.8,15.9-8.1,19.5H508.9z"/>
<path class="st2" d="M555.1,348.4c0.2,0.1,0.5,0.3,0.5,0.6c0,0.4-0.3,0.8-0.7,0.8c-0.5,0-4.6-0.5-10.4-0.5c-5.8,0-9.8,0.5-10.4,0.5
	c-0.4,0-0.8-0.3-0.8-0.8c0-0.3,0.3-0.5,0.5-0.6c1.7-0.5,5.5-0.8,6.7-0.9c0.3-5,0.3-15,0.3-21.8c0-6.9,0-16.7-0.3-21.8
	c-1.1-0.1-5-0.4-6.7-0.9c-0.2-0.1-0.5-0.3-0.5-0.6c0-0.4,0.3-0.7,0.8-0.7c0.6,0,4.6,0.4,10.4,0.4c5.8,0,9.9-0.4,10.4-0.4
	c0.4,0,0.7,0.3,0.7,0.7c0,0.3-0.3,0.5-0.5,0.6c-1.6,0.5-5.5,0.8-6.7,0.9c-0.3,5.3-0.3,14.9-0.3,21.8c0,6.9,0,16.6,0.3,21.8
	C549.6,347.6,553.5,347.9,555.1,348.4"/>
<path class="st2" d="M562.6,317.8c-1.6,0-3.1-1-3.1-3c0-2.5,3.6-11.3,5.1-13.4c0.3-0.5,0.6-0.6,1-0.6c0.4,0,0.7,0.3,0.7,0.7
	c0,0.2,0,0.4-0.1,0.7c-0.2,0.7-0.6,3.7-0.6,7c0,1.6,0.1,4.9,2.1,4.9c0.3,0,0.7-0.1,1-0.1c0.5,0,0.6,0.2,0.6,0.5
	c0,0.2-0.1,0.5-0.4,0.7C568,315.9,564.7,317.8,562.6,317.8"/>
<path class="st2" d="M593.9,348.4c0.2,0.1,0.5,0.3,0.5,0.6c0,0.4-0.3,0.8-0.7,0.8c-0.5,0-4.6-0.5-10.4-0.5c-5.9,0-9.8,0.5-10.4,0.5
	c-0.4,0-0.7-0.3-0.7-0.8c0-0.3,0.3-0.5,0.5-0.6c1.7-0.5,5.5-0.8,6.7-0.9c0.3-5,0.3-15,0.3-21.8c0-6.9,0-16.7-0.3-21.8
	c-1.1-0.1-5-0.4-6.7-0.9c-0.2-0.1-0.5-0.3-0.5-0.6c0-0.4,0.3-0.7,0.7-0.7c0.6,0,4.5,0.4,10.4,0.4c5.8,0,9.9-0.4,10.4-0.4
	c0.4,0,0.7,0.3,0.7,0.7c0,0.3-0.3,0.5-0.5,0.6c-1.6,0.5-5.5,0.8-6.7,0.9c-0.3,5.3-0.3,14.9-0.3,21.8c0,6.9,0,16.6,0.3,21.8
	C588.4,347.6,592.3,347.9,593.9,348.4"/>
</svg>
